<svg xmlns="http://www.w3.org/2000/svg" xmlns:xlink="http://www.w3.org/1999/xlink" width="500" zoomAndPan="magnify" viewBox="0 0 375 374.999991" height="500" preserveAspectRatio="xMidYMid meet" version="1.0"><defs><g/><clipPath id="59f516b080"><path d="M 159 178 L 216 178 L 216 197 L 159 197 Z M 159 178 " clip-rule="nonzero"/></clipPath><clipPath id="1c1ebff228"><path d="M 195.769531 155.710938 L 220.410156 190.644531 L 179.347656 219.609375 L 154.707031 184.675781 Z M 195.769531 155.710938 " clip-rule="nonzero"/></clipPath><clipPath id="87efdddfd1"><path d="M 195.769531 155.710938 L 220.410156 190.644531 L 179.347656 219.609375 L 154.707031 184.675781 Z M 195.769531 155.710938 " clip-rule="nonzero"/></clipPath></defs><g fill="#0f0f0f" fill-opacity="1"><g transform="translate(93.745941, 137.999991)"><g><path d="M 62.796875 -16.109375 C 66.578125 -15.210938 69.929688 -13.519531 72.859375 -11.03125 C 75.796875 -8.550781 78.132812 -5.519531 79.875 -1.9375 C 81.613281 1.644531 82.484375 5.523438 82.484375 9.703125 C 82.484375 14.566406 81.335938 18.988281 79.046875 22.96875 C 76.765625 26.945312 73.734375 30.128906 69.953125 32.515625 C 66.179688 34.898438 62.007812 36.09375 57.4375 36.09375 C 53.65625 36.09375 50.070312 35.320312 46.6875 33.78125 C 43.3125 32.238281 40.601562 30.175781 38.5625 27.59375 C 36.519531 25.007812 35.5 22.226562 35.5 19.25 C 35.5 16.0625 36.640625 13.320312 38.921875 11.03125 C 41.210938 8.75 43.953125 7.609375 47.140625 7.609375 C 50.316406 7.609375 53.023438 8.75 55.265625 11.03125 C 57.503906 13.320312 58.625 16.0625 58.625 19.25 C 58.625 22.53125 57.53125 25.265625 55.34375 27.453125 C 54.644531 28.140625 54.046875 28.878906 53.546875 29.671875 C 53.054688 30.472656 52.8125 31.273438 52.8125 32.078125 C 52.8125 34.160156 54.351562 35.203125 57.4375 35.203125 C 61.90625 35.203125 65.953125 34.054688 69.578125 31.765625 C 73.210938 29.484375 76.125 26.398438 78.3125 22.515625 C 80.5 18.640625 81.59375 14.367188 81.59375 9.703125 C 81.59375 6.117188 80.769531 2.882812 79.125 0 C 77.488281 -2.882812 75.300781 -5.171875 72.5625 -6.859375 C 69.832031 -8.546875 66.773438 -9.390625 63.390625 -9.390625 C 59.910156 -9.390625 56.753906 -8.46875 53.921875 -6.625 C 51.085938 -4.789062 48.425781 -2.554688 45.9375 0.078125 C 43.457031 2.710938 40.972656 5.367188 38.484375 8.046875 C 35.992188 10.734375 33.304688 13 30.421875 14.84375 C 27.546875 16.6875 24.265625 17.609375 20.578125 17.609375 C 17.097656 17.609375 13.890625 16.710938 10.953125 14.921875 C 8.023438 13.128906 5.710938 10.691406 4.015625 7.609375 C 2.328125 4.523438 1.484375 1.144531 1.484375 -2.53125 C 1.484375 -7.101562 2.773438 -11.15625 5.359375 -14.6875 C 7.953125 -18.21875 11.238281 -20.582031 15.21875 -21.78125 C 12.925781 -24.5625 11.132812 -27.664062 9.84375 -31.09375 C 8.550781 -34.53125 7.90625 -38.140625 7.90625 -41.921875 C 7.90625 -47.984375 9.445312 -53.5 12.53125 -58.46875 C 15.613281 -63.445312 19.710938 -67.398438 24.828125 -70.328125 C 29.953125 -73.265625 35.648438 -74.734375 41.921875 -74.734375 C 46.992188 -74.734375 51.765625 -73.738281 56.234375 -71.75 C 53.753906 -74.039062 51.269531 -77.023438 48.78125 -80.703125 C 46.289062 -84.378906 45.046875 -88.40625 45.046875 -92.78125 C 45.046875 -95.96875 46.1875 -98.703125 48.46875 -100.984375 C 50.757812 -103.273438 53.5 -104.421875 56.6875 -104.421875 C 59.863281 -104.421875 62.570312 -103.273438 64.8125 -100.984375 C 67.050781 -98.703125 68.171875 -95.96875 68.171875 -92.78125 C 68.171875 -90.300781 67.445312 -88.113281 66 -86.21875 C 64.5625 -84.332031 62.75 -82.890625 60.5625 -81.890625 C 57.175781 -80.503906 55.484375 -78.617188 55.484375 -76.234375 C 55.484375 -74.929688 56.003906 -73.679688 57.046875 -72.484375 C 58.097656 -71.296875 59.367188 -70.207031 60.859375 -69.21875 C 65.535156 -66.226562 69.210938 -62.367188 71.890625 -57.640625 C 74.578125 -52.921875 75.921875 -47.679688 75.921875 -41.921875 C 75.921875 -36.742188 74.753906 -31.890625 72.421875 -27.359375 C 70.085938 -22.835938 66.878906 -19.085938 62.796875 -16.109375 Z M 41.921875 -73.84375 C 34.265625 -73.84375 30.4375 -63.203125 30.4375 -41.921875 C 30.4375 -23.222656 33.414062 -12.726562 39.375 -10.4375 C 41.070312 -11.4375 42.738281 -12.332031 44.375 -13.125 C 46.019531 -13.925781 47.640625 -14.625 49.234375 -15.21875 C 52.109375 -20.382812 53.546875 -29.285156 53.546875 -41.921875 C 53.546875 -63.203125 49.671875 -73.84375 41.921875 -73.84375 Z M 10.734375 -12.671875 C 10.734375 -9.992188 11.703125 -7.679688 13.640625 -5.734375 C 15.585938 -3.796875 17.898438 -2.828125 20.578125 -2.828125 C 23.367188 -2.828125 26.15625 -3.523438 28.9375 -4.921875 C 31.71875 -6.316406 34.601562 -7.804688 37.59375 -9.390625 C 33.21875 -9.992188 29.140625 -11.335938 25.359375 -13.421875 C 21.578125 -15.515625 18.34375 -18.101562 15.65625 -21.1875 C 12.375 -19.195312 10.734375 -16.359375 10.734375 -12.671875 Z M 10.734375 -12.671875 "/></g></g></g><g fill="#0f0f0f" fill-opacity="1"><g transform="translate(166.533267, 137.999991)"><g><path d="M 32.21875 -101.734375 L 32.21875 -8.203125 C 32.21875 -6.410156 32.8125 -4.816406 34 -3.421875 C 35.195312 -2.035156 36.644531 -1.191406 38.34375 -0.890625 L 38.34375 0 L 3.734375 0 L 3.734375 -0.890625 C 5.421875 -1.191406 6.859375 -2.035156 8.046875 -3.421875 C 9.242188 -4.816406 9.84375 -6.410156 9.84375 -8.203125 L 9.84375 -92.484375 C 9.84375 -94.273438 9.242188 -95.863281 8.046875 -97.25 C 6.859375 -98.644531 5.421875 -99.492188 3.734375 -99.796875 L 3.734375 -100.6875 L 29.234375 -104.421875 C 29.335938 -104.421875 29.410156 -104.421875 29.453125 -104.421875 C 29.503906 -104.421875 29.582031 -104.421875 29.6875 -104.421875 C 31.375 -104.421875 32.21875 -103.523438 32.21875 -101.734375 Z M 32.21875 -101.734375 "/></g></g></g><g fill="#0f0f0f" fill-opacity="1"><g transform="translate(197.407696, 137.999991)"><g><path d="M 72.5 24.171875 C 72.5 26.054688 73.066406 27.671875 74.203125 29.015625 C 75.347656 30.359375 76.816406 31.226562 78.609375 31.625 L 78.609375 32.515625 L 52.953125 36.09375 C 52.859375 36.09375 52.8125 36.117188 52.8125 36.171875 C 52.8125 36.222656 52.757812 36.25 52.65625 36.25 C 51.957031 36.25 51.332031 35.972656 50.78125 35.421875 C 50.238281 34.878906 49.96875 34.257812 49.96875 33.5625 L 49.96875 7.3125 C 47.382812 6.414062 44.203125 5.320312 40.421875 4.03125 C 36.640625 2.738281 32.710938 1.050781 28.640625 -1.03125 C 24.566406 -3.125 20.765625 -5.8125 17.234375 -9.09375 C 13.703125 -12.375 10.816406 -16.425781 8.578125 -21.25 C 6.335938 -26.070312 5.21875 -31.816406 5.21875 -38.484375 C 5.21875 -44.054688 6.210938 -49.078125 8.203125 -53.546875 C 10.191406 -58.023438 12.828125 -61.804688 16.109375 -64.890625 C 19.390625 -67.972656 23.039062 -70.234375 27.0625 -71.671875 C 31.09375 -73.117188 35.148438 -73.644531 39.234375 -73.25 C 41.316406 -73.039062 43.253906 -72.640625 45.046875 -72.046875 C 46.835938 -71.453125 48.476562 -70.757812 49.96875 -69.96875 L 49.96875 -70.703125 C 49.96875 -71.398438 50.238281 -72 50.78125 -72.5 C 51.332031 -73 51.957031 -73.25 52.65625 -73.25 C 52.757812 -73.25 52.8125 -73.25 52.8125 -73.25 C 52.8125 -73.25 52.859375 -73.25 52.953125 -73.25 L 78.609375 -69.515625 L 78.609375 -68.625 C 76.816406 -68.320312 75.347656 -67.5 74.203125 -66.15625 C 73.066406 -64.8125 72.5 -63.195312 72.5 -61.3125 Z M 49.96875 5.96875 L 49.96875 -69.0625 C 48.375 -69.863281 46.734375 -70.265625 45.046875 -70.265625 C 41.765625 -70.265625 38.78125 -68.769531 36.09375 -65.78125 C 33.414062 -62.800781 31.28125 -58.820312 29.6875 -53.84375 C 28.09375 -48.875 27.296875 -43.304688 27.296875 -37.140625 C 27.296875 -30.273438 27.96875 -24.429688 29.3125 -19.609375 C 30.65625 -14.785156 32.441406 -10.734375 34.671875 -7.453125 C 36.910156 -4.171875 39.375 -1.460938 42.0625 0.671875 C 44.75 2.804688 47.382812 4.570312 49.96875 5.96875 Z M 49.96875 5.96875 "/></g></g></g><g fill="#0f0f0f" fill-opacity="1"><g transform="translate(102.031097, 310.49998)"><g><path d="M 72.046875 -33.265625 L 72.046875 -37.890625 L 72.9375 -37.890625 L 72.9375 0 L 72.046875 0 L 72.046875 -16.703125 C 72.046875 -15.515625 71.570312 -13.945312 70.625 -12 C 69.6875 -10.0625 68.296875 -8.148438 66.453125 -6.265625 C 64.617188 -4.378906 62.359375 -2.835938 59.671875 -1.640625 C 56.984375 -0.441406 53.898438 0.101562 50.421875 0 C 47.140625 -0.195312 44.253906 -0.816406 41.765625 -1.859375 C 39.273438 -2.910156 36.785156 -3.984375 34.296875 -5.078125 C 31.816406 -6.171875 28.835938 -6.863281 25.359375 -7.15625 C 21.679688 -7.550781 18.847656 -7.253906 16.859375 -6.265625 C 14.867188 -5.273438 13.5 -4.128906 12.75 -2.828125 C 12.007812 -1.535156 11.640625 -0.59375 11.640625 0 L 10.734375 0 C 9.441406 -2.882812 8.796875 -6.414062 8.796875 -10.59375 C 8.796875 -15.363281 9.789062 -19.6875 11.78125 -23.5625 C 13.769531 -27.445312 16.332031 -31.078125 19.46875 -34.453125 C 22.601562 -37.835938 25.929688 -41.144531 29.453125 -44.375 C 32.984375 -47.613281 36.316406 -50.992188 39.453125 -54.515625 C 42.585938 -58.046875 45.195312 -61.875 47.28125 -66 C 49.375 -70.132812 50.46875 -74.785156 50.5625 -79.953125 C 50.5625 -85.816406 49.296875 -90.9375 46.765625 -95.3125 C 44.234375 -99.695312 41.078125 -102.382812 37.296875 -103.375 C 34.304688 -103.28125 31.320312 -102.734375 28.34375 -101.734375 C 27.25 -101.234375 26.675781 -100.3125 26.625 -98.96875 C 26.570312 -97.632812 27.492188 -96.46875 29.390625 -95.46875 C 32.078125 -94.175781 34.289062 -92.238281 36.03125 -89.65625 C 37.769531 -87.070312 38.640625 -84.1875 38.640625 -81 C 38.640625 -76.625 37.070312 -72.867188 33.9375 -69.734375 C 30.800781 -66.597656 27.046875 -65.03125 22.671875 -65.03125 C 18.296875 -65.03125 14.539062 -66.597656 11.40625 -69.734375 C 8.28125 -72.867188 6.71875 -76.625 6.71875 -81 C 6.71875 -84.875 7.8125 -88.253906 10 -91.140625 C 12.1875 -94.023438 15.019531 -96.460938 18.5 -98.453125 C 21.976562 -100.441406 25.679688 -101.929688 29.609375 -102.921875 C 33.535156 -103.921875 37.191406 -104.421875 40.578125 -104.421875 C 47.234375 -104.421875 53.296875 -103.125 58.765625 -100.53125 C 64.242188 -97.945312 68.597656 -94.46875 71.828125 -90.09375 C 75.054688 -85.71875 76.671875 -80.847656 76.671875 -75.484375 C 76.671875 -70.609375 75.523438 -66.429688 73.234375 -62.953125 C 70.953125 -59.472656 67.921875 -56.460938 64.140625 -53.921875 C 60.359375 -51.390625 56.207031 -49.101562 51.6875 -47.0625 C 47.164062 -45.019531 42.59375 -43.054688 37.96875 -41.171875 C 33.34375 -39.285156 29.066406 -37.25 25.140625 -35.0625 C 21.210938 -32.875 17.953125 -30.285156 15.359375 -27.296875 C 17.253906 -28.984375 19.519531 -30.375 22.15625 -31.46875 C 24.789062 -32.5625 27.75 -33.160156 31.03125 -33.265625 C 35.007812 -33.367188 38.8125 -32.820312 42.4375 -31.625 C 46.070312 -30.425781 49.578125 -29.226562 52.953125 -28.03125 C 56.335938 -26.84375 59.570312 -26.25 62.65625 -26.25 C 66.03125 -26.25 68.4375 -27.171875 69.875 -29.015625 C 71.320312 -30.859375 72.046875 -32.273438 72.046875 -33.265625 Z M 72.046875 -33.265625 "/></g></g></g><g fill="#0f0f0f" fill-opacity="1"><g transform="translate(174.221796, 310.49998)"><g><path d="M 52.953125 -103.53125 C 50.066406 -103.53125 47.234375 -101.710938 44.453125 -98.078125 C 41.671875 -94.453125 39.382812 -89.578125 37.59375 -83.453125 C 35.800781 -77.335938 34.90625 -70.601562 34.90625 -63.25 C 34.90625 -56.382812 35.800781 -49.96875 37.59375 -44 C 39.382812 -38.039062 41.894531 -32.796875 45.125 -28.265625 C 48.351562 -23.742188 52.082031 -20.1875 56.3125 -17.59375 C 60.539062 -15.007812 65.039062 -13.71875 69.8125 -13.71875 C 73.882812 -13.71875 77.859375 -14.738281 81.734375 -16.78125 C 85.617188 -18.820312 89.050781 -21.53125 92.03125 -24.90625 L 92.78125 -24.46875 C 88.601562 -17.101562 83.007812 -11.179688 76 -6.703125 C 68.988281 -2.234375 61.304688 0 52.953125 0 C 46.492188 0 40.425781 -1.34375 34.75 -4.03125 C 29.082031 -6.71875 24.085938 -10.472656 19.765625 -15.296875 C 15.441406 -20.117188 12.0625 -25.6875 9.625 -32 C 7.1875 -38.3125 5.96875 -45.046875 5.96875 -52.203125 C 5.96875 -59.367188 7.1875 -66.109375 9.625 -72.421875 C 12.0625 -78.734375 15.441406 -84.300781 19.765625 -89.125 C 24.085938 -93.945312 29.082031 -97.703125 34.75 -100.390625 C 40.425781 -103.078125 46.492188 -104.421875 52.953125 -104.421875 C 58.222656 -104.421875 63.242188 -103.523438 68.015625 -101.734375 C 72.796875 -99.941406 77.050781 -97.601562 80.78125 -94.71875 C 84.507812 -91.832031 87.441406 -88.695312 89.578125 -85.3125 C 91.710938 -81.9375 92.78125 -78.609375 92.78125 -75.328125 C 92.78125 -70.953125 91.210938 -67.195312 88.078125 -64.0625 C 84.953125 -60.9375 81.203125 -59.375 76.828125 -59.375 C 72.453125 -59.375 68.695312 -60.9375 65.5625 -64.0625 C 62.425781 -67.195312 60.859375 -70.953125 60.859375 -75.328125 C 60.859375 -78.015625 61.304688 -80.203125 62.203125 -81.890625 C 63.097656 -83.585938 64.117188 -85.082031 65.265625 -86.375 C 66.410156 -87.664062 67.425781 -88.984375 68.3125 -90.328125 C 69.207031 -91.671875 69.65625 -93.234375 69.65625 -95.015625 C 69.65625 -97.410156 68.609375 -99.226562 66.515625 -100.46875 C 64.429688 -101.707031 62.070312 -102.523438 59.4375 -102.921875 C 56.800781 -103.328125 54.640625 -103.53125 52.953125 -103.53125 Z M 52.953125 -103.53125 "/></g></g></g><g clip-path="url(#59f516b080)"><g clip-path="url(#1c1ebff228)"><g clip-path="url(#87efdddfd1)"><path fill="#0f0f0f" d="M 208.960938 178.636719 C 208.957031 178.636719 208.957031 178.636719 208.957031 178.636719 C 208.957031 178.636719 208.953125 178.636719 208.953125 178.632812 C 208.953125 178.632812 208.960938 178.636719 208.960938 178.636719 Z M 179.402344 196.863281 C 179.402344 196.863281 179.398438 196.863281 179.398438 196.863281 Z M 187.839844 196.335938 C 187.839844 196.335938 187.839844 196.335938 187.84375 196.335938 Z M 190.992188 180.558594 C 190.992188 180.554688 190.988281 180.554688 190.988281 180.554688 C 190.988281 180.554688 190.984375 180.554688 190.980469 180.554688 Z M 191.289062 193.398438 Z M 215.371094 193.433594 C 215.367188 193.410156 215.355469 193.386719 215.339844 193.371094 C 215.3125 193.378906 215.292969 193.394531 215.28125 193.417969 C 214.378906 193.34375 213.488281 193.410156 212.605469 193.574219 C 212.535156 193.484375 212.453125 193.480469 212.363281 193.539062 C 212.121094 193.433594 211.886719 193.519531 211.648438 193.554688 C 211.625 193.507812 211.59375 193.5 211.554688 193.542969 C 211.492188 193.546875 211.429688 193.550781 211.367188 193.554688 C 211.332031 193.519531 211.296875 193.507812 211.261719 193.546875 C 211.066406 193.675781 210.828125 193.558594 210.628906 193.652344 C 210.617188 193.675781 210.601562 193.691406 210.582031 193.703125 L 210.554688 193.671875 L 210.539062 193.636719 C 210.46875 193.589844 210.40625 193.628906 210.339844 193.65625 C 210.191406 193.550781 209.972656 193.746094 209.84375 193.542969 C 209.765625 193.574219 209.699219 193.667969 209.59375 193.609375 C 209.042969 193.578125 208.492188 193.605469 207.941406 193.660156 C 207.832031 193.617188 207.722656 193.574219 207.601562 193.625 C 207.148438 193.640625 206.699219 193.671875 206.246094 193.664062 C 206.140625 193.664062 206.074219 193.691406 205.992188 193.730469 C 205.925781 193.648438 205.84375 193.625 205.75 193.6875 C 205.636719 193.675781 205.527344 193.667969 205.414062 193.65625 C 205.320312 193.730469 205.242188 193.703125 205.179688 193.613281 C 205.039062 193.628906 204.898438 193.6875 204.757812 193.605469 C 204.738281 193.550781 204.707031 193.550781 204.667969 193.585938 C 204.023438 193.574219 203.375 193.558594 202.726562 193.542969 C 202.273438 193.691406 202.105469 193.574219 201.925781 192.980469 C 201.972656 192.621094 202.023438 192.257812 202.070312 191.898438 C 202.128906 191.824219 202.09375 191.804688 202.019531 191.816406 C 201.929688 191.785156 201.839844 191.757812 201.75 191.730469 C 201.621094 191.546875 201.496094 191.367188 201.371094 191.183594 C 201.65625 191.125 201.972656 191.1875 202.222656 190.980469 C 201.996094 190.789062 202.164062 190.625 202.253906 190.457031 C 202.238281 190.335938 202.261719 190.226562 202.3125 190.121094 C 202.132812 189.871094 202.347656 189.625 202.320312 189.367188 C 202.296875 189.1875 202.195312 188.957031 202.371094 188.777344 C 202.351562 188.691406 202.335938 188.605469 202.316406 188.515625 C 202.273438 188.480469 202.277344 188.449219 202.332031 188.425781 C 202.363281 188.292969 202.398438 188.160156 202.429688 188.027344 C 202.296875 187.90625 202.390625 187.765625 202.398438 187.632812 C 202.371094 187.347656 202.371094 187.066406 202.484375 186.796875 C 202.46875 186.671875 202.457031 186.546875 202.441406 186.425781 C 202.507812 186.191406 202.441406 185.953125 202.449219 185.71875 C 202.410156 185.679688 202.414062 185.648438 202.457031 185.621094 C 202.582031 185.148438 202.371094 184.671875 202.476562 184.199219 C 202.378906 184.117188 202.402344 184.046875 202.480469 183.972656 C 202.429688 183.875 202.414062 183.78125 202.503906 183.691406 C 202.617188 183.511719 202.402344 183.28125 202.589844 183.113281 C 202.421875 182.878906 202.523438 182.644531 202.585938 182.410156 C 202.546875 182.03125 202.738281 181.671875 202.6875 181.277344 C 202.667969 181.136719 202.675781 181.136719 202.546875 181.097656 C 202.234375 181.011719 201.914062 181.117188 201.613281 181.015625 C 201.34375 181.171875 201.035156 181.132812 200.75 181.203125 C 200.707031 181.230469 200.671875 181.226562 200.648438 181.179688 C 200.179688 181.261719 199.703125 181.304688 199.230469 181.324219 C 199.136719 181.328125 199.0625 181.363281 199.050781 181.496094 C 198.996094 182.273438 198.355469 182.644531 197.804688 182.898438 C 197.363281 183.101562 196.945312 183.386719 196.464844 183.523438 C 195.359375 183.941406 194.21875 184.222656 193.027344 184.183594 C 192.65625 184.167969 192.285156 184.195312 191.914062 184.175781 C 191.601562 184.15625 191.3125 184.210938 191.039062 184.363281 C 191.039062 184.394531 191.035156 184.425781 191.03125 184.457031 C 191.335938 184.839844 191.636719 185.226562 191.9375 185.613281 C 192.027344 185.597656 192.054688 185.65625 192.082031 185.71875 C 192.21875 185.851562 192.359375 185.984375 192.5 186.121094 C 192.578125 186.101562 192.609375 186.164062 192.65625 186.207031 C 192.695312 186.195312 192.734375 186.199219 192.753906 186.246094 C 193.222656 186.660156 193.683594 187.082031 194.214844 187.414062 C 194.335938 187.394531 194.347656 187.523438 194.421875 187.570312 C 194.585938 187.636719 194.722656 187.738281 194.828125 187.878906 C 194.875 187.863281 194.910156 187.867188 194.929688 187.914062 C 195 187.957031 195.070312 187.988281 195.136719 188.035156 C 195.785156 188.523438 196.433594 189.015625 197.082031 189.503906 C 197.171875 189.472656 197.203125 189.535156 197.234375 189.597656 C 197.820312 189.996094 198.445312 190.339844 199.023438 190.742188 C 199.417969 191.015625 199.773438 191.0625 200.21875 191.03125 C 200.601562 191.003906 201.003906 191.011719 201.371094 191.183594 C 201.496094 191.363281 201.625 191.546875 201.75 191.730469 C 201.378906 191.6875 201.007812 191.644531 200.632812 191.605469 C 200.617188 191.542969 200.585938 191.546875 200.546875 191.582031 C 200.429688 191.585938 200.304688 191.609375 200.1875 191.589844 C 199.699219 191.496094 199.492188 191.570312 199.207031 192.136719 C 198.941406 192.664062 198.519531 192.925781 197.980469 193.027344 C 197.796875 193.0625 197.640625 193.125 197.511719 193.222656 C 197.203125 193.453125 196.867188 193.421875 196.523438 193.398438 C 196.453125 193.316406 196.382812 193.277344 196.296875 193.382812 C 196.097656 193.484375 195.972656 193.660156 195.851562 193.839844 C 195.570312 194.253906 195.148438 194.503906 194.738281 194.761719 C 194.601562 194.84375 194.480469 194.796875 194.351562 194.75 C 194.191406 194.953125 193.976562 194.832031 193.796875 194.828125 C 193.238281 194.816406 192.890625 195.25 192.421875 195.421875 C 192.351562 195.464844 192.285156 195.511719 192.214844 195.554688 C 191.96875 195.730469 191.671875 195.675781 191.398438 195.730469 C 190.957031 195.816406 190.582031 195.972656 190.25 196.300781 C 190.082031 196.46875 189.804688 196.535156 189.578125 196.648438 C 189.230469 196.976562 188.765625 196.773438 188.378906 196.929688 C 188.300781 196.886719 188.253906 196.9375 188.203125 196.980469 C 188.082031 196.960938 187.964844 196.941406 187.84375 196.921875 C 187.824219 196.867188 187.789062 196.867188 187.753906 196.902344 C 187.667969 196.890625 187.582031 196.875 187.496094 196.863281 C 187.476562 196.816406 187.449219 196.8125 187.417969 196.851562 C 187.292969 196.828125 187.171875 196.804688 187.046875 196.78125 C 187.023438 196.730469 186.988281 196.730469 186.945312 196.753906 C 186.855469 196.714844 186.765625 196.679688 186.675781 196.640625 C 186.632812 196.589844 186.59375 196.53125 186.515625 196.554688 C 186.324219 196.519531 186.136719 196.484375 185.945312 196.453125 C 185.773438 196.398438 185.601562 196.34375 185.425781 196.289062 C 185.375 196.183594 185.28125 196.128906 185.167969 196.105469 C 185.070312 196.03125 184.972656 195.929688 184.832031 196.019531 C 184.710938 195.910156 184.59375 195.800781 184.476562 195.691406 C 184.449219 195.644531 184.417969 195.640625 184.378906 195.671875 C 184.128906 195.511719 183.875 195.351562 183.625 195.191406 C 183.382812 194.964844 183.175781 195.042969 182.980469 195.257812 C 182.804688 195.339844 182.628906 195.417969 182.453125 195.496094 C 182.382812 195.472656 182.3125 195.433594 182.238281 195.484375 C 182.125 195.5625 182.011719 195.640625 181.902344 195.71875 C 181.777344 195.734375 181.644531 195.667969 181.53125 195.753906 C 181.160156 195.816406 180.800781 195.902344 180.539062 196.203125 C 180.484375 196.269531 180.429688 196.332031 180.375 196.394531 C 180.132812 196.53125 179.894531 196.667969 179.652344 196.800781 C 179.542969 196.703125 179.484375 196.832031 179.402344 196.855469 C 179.300781 196.804688 179.199219 196.78125 179.113281 196.882812 C 178.917969 196.832031 178.6875 196.992188 178.523438 196.785156 C 178.472656 196.757812 178.425781 196.726562 178.375 196.699219 C 178.355469 196.707031 178.332031 196.71875 178.3125 196.730469 L 178.285156 196.699219 L 178.273438 196.660156 C 178.136719 196.488281 178 196.316406 177.867188 196.144531 C 177.84375 196.09375 177.8125 196.085938 177.769531 196.117188 L 177.753906 196.082031 C 177.683594 196.171875 177.601562 196.25 177.484375 196.28125 C 177.164062 196.371094 176.867188 196.5625 176.515625 196.496094 C 176.492188 196.445312 176.460938 196.441406 176.421875 196.480469 C 176.378906 196.472656 176.335938 196.464844 176.292969 196.457031 C 176.265625 196.40625 176.226562 196.40625 176.183594 196.425781 C 176.148438 196.417969 176.113281 196.410156 176.074219 196.40625 C 175.984375 196.25 175.84375 196.34375 175.722656 196.332031 C 175.621094 196.148438 175.390625 196.046875 175.363281 195.808594 C 175.511719 195.738281 175.65625 195.664062 175.804688 195.59375 C 176.167969 195.828125 176.542969 196.019531 177 195.878906 C 177.242188 195.707031 177.488281 195.53125 177.734375 195.359375 C 177.78125 195.328125 177.824219 195.296875 177.871094 195.265625 C 177.914062 195.234375 177.957031 195.199219 178 195.164062 C 178.097656 194.84375 178.378906 194.648438 178.539062 194.367188 C 178.519531 194.324219 178.519531 194.289062 178.570312 194.265625 C 179.03125 193.710938 179.230469 192.996094 179.691406 192.441406 C 179.742188 192.417969 179.746094 192.382812 179.710938 192.34375 C 179.960938 191.734375 180.085938 191.074219 180.453125 190.515625 C 180.417969 190.476562 180.421875 190.445312 180.472656 190.421875 C 180.59375 190.015625 180.742188 189.617188 180.835938 189.195312 C 180.945312 188.699219 180.765625 188.15625 180.359375 187.875 C 180.339844 187.824219 180.308594 187.816406 180.269531 187.855469 C 180.097656 187.925781 179.886719 187.773438 179.726562 187.941406 C 179.660156 187.988281 179.59375 188.035156 179.523438 188.082031 C 178.382812 188.585938 178.007812 189.601562 177.757812 190.703125 C 177.671875 190.769531 177.648438 190.847656 177.703125 190.941406 C 177.273438 191.78125 177.140625 192.75 176.570312 193.527344 C 176.539062 193.589844 176.503906 193.648438 176.472656 193.707031 C 176.417969 193.917969 176.328125 194.109375 176.167969 194.261719 C 176.15625 194.410156 176.019531 194.429688 175.921875 194.492188 C 175.886719 194.574219 175.878906 194.675781 175.769531 194.707031 C 175.757812 194.921875 175.378906 195.046875 175.628906 195.320312 C 175.6875 195.414062 175.75 195.503906 175.808594 195.59375 C 175.660156 195.664062 175.511719 195.738281 175.363281 195.808594 C 175.332031 195.765625 175.300781 195.71875 175.269531 195.675781 C 175.246094 195.660156 175.222656 195.640625 175.199219 195.625 C 175.148438 195.511719 175.085938 195.464844 174.988281 195.582031 C 174.558594 195.980469 174.019531 195.886719 173.507812 195.925781 C 173.386719 195.9375 173.277344 195.914062 173.171875 195.851562 C 172.683594 195.835938 172.472656 195.476562 172.28125 195.113281 C 172.199219 194.957031 172.148438 194.789062 172.019531 194.660156 C 172 194.601562 171.96875 194.5625 171.898438 194.597656 C 171.546875 194.738281 171.199219 194.6875 170.855469 194.582031 C 170.828125 194.535156 170.796875 194.53125 170.757812 194.5625 C 170.539062 194.578125 170.367188 194.457031 170.1875 194.351562 C 170.164062 194.300781 170.128906 194.300781 170.085938 194.320312 C 170 194.25 169.910156 194.179688 169.824219 194.109375 C 169.707031 193.953125 169.671875 193.730469 169.445312 193.679688 C 169.523438 193.554688 169.492188 193.425781 169.445312 193.316406 C 169.492188 193.425781 169.523438 193.554688 169.445312 193.679688 C 169.441406 193.679688 169.441406 193.679688 169.441406 193.683594 C 169.4375 193.683594 169.4375 193.683594 169.4375 193.683594 C 169.339844 193.632812 169.351562 193.746094 169.308594 193.773438 C 169.332031 193.820312 169.355469 193.867188 169.378906 193.914062 C 169.328125 193.957031 169.273438 193.996094 169.308594 194.074219 C 169.226562 194.214844 169.09375 194.253906 168.941406 194.238281 C 168.550781 194.207031 168.148438 194.378906 167.769531 194.175781 C 167.664062 194.230469 167.5625 194.230469 167.464844 194.171875 C 167.355469 194.175781 167.25 194.191406 167.167969 194.269531 C 167.023438 194.171875 166.871094 194.128906 166.703125 194.195312 C 166.492188 194.082031 166.269531 194.140625 166.050781 194.164062 C 166.011719 194.152344 165.976562 194.140625 165.941406 194.128906 C 165.710938 194.128906 165.476562 194.125 165.246094 194.125 C 165.167969 194.113281 165.09375 194.097656 165.019531 194.085938 C 164.894531 194.058594 164.773438 194.078125 164.660156 194.136719 C 164.554688 194.027344 164.441406 193.976562 164.3125 194.105469 C 164.035156 193.976562 163.71875 194.175781 163.445312 194.011719 C 163.292969 194.132812 163.136719 194.160156 162.96875 194.050781 C 162.753906 194.183594 162.53125 194.207031 162.292969 194.109375 C 162.269531 194.058594 162.242188 194.050781 162.203125 194.09375 C 162.121094 194.078125 162.035156 194.066406 161.949219 194.050781 C 161.929688 193.996094 161.898438 193.996094 161.859375 194.035156 C 161.425781 194.039062 161.535156 193.589844 161.335938 193.398438 C 161.355469 193.371094 161.375 193.34375 161.398438 193.316406 C 161.371094 193.242188 161.34375 193.171875 161.316406 193.097656 C 161.292969 193.078125 161.269531 193.0625 161.246094 193.046875 C 161.222656 193 161.195312 192.957031 161.171875 192.910156 C 161.183594 192.890625 161.203125 192.875 161.222656 192.859375 C 161.21875 192.742188 161.1875 192.632812 161.113281 192.539062 C 161.160156 192.472656 161.109375 192.417969 161.089844 192.359375 C 161.160156 192.210938 160.996094 192.152344 160.96875 192.042969 C 160.992188 192.015625 161.015625 191.988281 161.039062 191.957031 C 161.003906 191.824219 160.972656 191.695312 160.9375 191.558594 C 160.824219 191.414062 160.789062 191.242188 160.789062 191.0625 C 160.578125 190.765625 160.671875 190.375 160.488281 190.070312 C 160.464844 190.058594 160.449219 190.042969 160.4375 190.023438 C 160.453125 190.003906 160.476562 189.988281 160.503906 189.984375 C 160.554688 189.90625 160.515625 189.847656 160.453125 189.796875 C 160.421875 189.691406 160.386719 189.585938 160.351562 189.476562 C 160.441406 189.339844 160.375 189.222656 160.300781 189.109375 C 160.246094 188.90625 160.269531 188.6875 160.167969 188.5 C 160.175781 188.460938 160.179688 188.421875 160.1875 188.378906 C 160.152344 188.339844 160.113281 188.300781 160.074219 188.261719 C 160.066406 188.234375 160.058594 188.203125 160.054688 188.175781 C 160.007812 187.976562 160.074219 187.75 159.917969 187.574219 C 160 187.375 159.910156 187.1875 159.882812 186.996094 C 159.847656 186.886719 159.816406 186.777344 159.78125 186.667969 C 159.878906 186.53125 159.796875 186.417969 159.726562 186.308594 C 159.789062 186.207031 159.785156 186.113281 159.714844 186.019531 C 159.820312 185.84375 159.699219 185.714844 159.617188 185.582031 C 159.605469 185.386719 159.59375 185.191406 159.585938 184.996094 C 159.589844 184.859375 159.589844 184.722656 159.59375 184.589844 C 159.484375 184.164062 159.726562 183.78125 159.757812 183.375 C 159.765625 183.308594 159.765625 183.246094 159.746094 183.183594 C 159.683594 183.074219 159.730469 182.996094 159.816406 182.925781 C 159.707031 182.71875 159.929688 182.523438 159.832031 182.320312 C 159.792969 182.28125 159.796875 182.253906 159.847656 182.230469 C 159.863281 182.210938 159.878906 182.1875 159.898438 182.171875 C 159.882812 181.914062 159.882812 181.660156 159.972656 181.414062 C 160.023438 180.988281 160.199219 180.835938 160.742188 180.90625 C 161.136719 180.957031 161.507812 180.867188 161.890625 180.875 C 162.007812 180.914062 162.113281 181.023438 162.25 180.9375 C 162.261719 180.914062 162.28125 180.898438 162.304688 180.886719 C 162.324219 180.90625 162.335938 180.925781 162.339844 180.953125 C 162.414062 180.996094 162.472656 180.957031 162.535156 180.925781 C 162.578125 180.933594 162.617188 180.941406 162.660156 180.949219 C 162.695312 180.945312 162.734375 180.945312 162.769531 180.945312 C 163.003906 180.949219 163.242188 180.953125 163.476562 180.953125 C 163.5 181.007812 163.539062 181 163.582031 180.988281 C 163.625 180.996094 163.664062 181.003906 163.707031 181.011719 C 163.742188 180.96875 163.773438 180.976562 163.796875 181.027344 C 163.90625 181.078125 164.011719 181.082031 164.121094 181.027344 C 164.15625 180.984375 164.179688 180.996094 164.203125 181.039062 C 164.605469 181.152344 165.023438 181.078125 165.429688 181.128906 C 165.570312 181.144531 165.707031 181.179688 165.84375 181.203125 C 165.964844 181.15625 166.074219 181.195312 166.1875 181.242188 C 166.25 181.238281 166.308594 181.238281 166.371094 181.234375 C 166.410156 181.199219 166.4375 181.203125 166.460938 181.25 C 166.558594 181.277344 166.652344 181.308594 166.746094 181.335938 C 166.792969 181.3125 166.835938 181.285156 166.878906 181.261719 C 166.914062 181.300781 166.953125 181.335938 166.988281 181.375 C 167.03125 181.351562 167.074219 181.324219 167.117188 181.300781 C 167.191406 181.3125 167.269531 181.328125 167.347656 181.339844 C 167.386719 181.304688 167.425781 181.316406 167.460938 181.347656 C 167.976562 181.421875 168.507812 181.382812 169.015625 181.542969 C 169.074219 181.503906 169.132812 181.480469 169.199219 181.527344 C 169.222656 181.578125 169.261719 181.574219 169.304688 181.558594 C 169.382812 181.570312 169.457031 181.578125 169.535156 181.585938 C 169.574219 181.59375 169.613281 181.601562 169.652344 181.609375 C 169.683594 181.679688 169.734375 181.726562 169.820312 181.714844 C 169.851562 181.71875 169.878906 181.722656 169.90625 181.726562 C 169.996094 181.753906 170.085938 181.785156 170.140625 181.871094 L 170.121094 181.902344 C 170.148438 181.972656 170.171875 182.042969 170.199219 182.113281 C 170.140625 182.203125 169.964844 182.203125 170.003906 182.375 C 170.136719 182.378906 170.265625 182.386719 170.394531 182.394531 C 170.632812 182.53125 170.890625 182.496094 171.136719 182.460938 C 171.242188 182.445312 171.269531 182.527344 171.339844 182.546875 C 171.429688 182.609375 171.519531 182.597656 171.613281 182.554688 C 171.628906 182.527344 171.644531 182.511719 171.671875 182.5 C 171.691406 182.519531 171.699219 182.539062 171.703125 182.566406 C 172.367188 182.632812 173.027344 182.699219 173.691406 182.765625 C 173.714844 182.816406 173.746094 182.820312 173.78125 182.78125 C 173.945312 182.832031 174.105469 182.886719 174.28125 182.835938 C 174.566406 182.964844 174.882812 182.921875 175.179688 183 C 175.164062 183.019531 175.148438 183.035156 175.132812 183.046875 C 175.148438 183.035156 175.167969 183.019531 175.179688 183 C 175.21875 182.980469 175.253906 182.960938 175.292969 182.941406 C 175.308594 182.964844 175.328125 182.984375 175.34375 183 C 175.328125 182.984375 175.308594 182.964844 175.292969 182.941406 C 175.320312 182.921875 175.34375 182.898438 175.371094 182.878906 C 175.261719 182.824219 175.105469 182.859375 175.054688 182.707031 C 175.074219 182.699219 175.09375 182.691406 175.109375 182.691406 C 175.09375 182.691406 175.074219 182.699219 175.054688 182.707031 C 174.753906 182.574219 174.457031 182.441406 174.160156 182.308594 C 174.046875 182.132812 173.828125 182.101562 173.6875 181.964844 C 173.667969 181.910156 173.636719 181.910156 173.597656 181.945312 C 173.242188 181.792969 172.964844 181.535156 172.703125 181.257812 C 172.539062 181.277344 172.5625 181.082031 172.453125 181.03125 C 172.417969 180.992188 172.382812 180.949219 172.347656 180.90625 C 172.257812 180.734375 172.136719 180.578125 172.105469 180.378906 C 172.019531 180.273438 172.003906 180.152344 172.039062 180.023438 C 171.957031 179.910156 171.867188 179.796875 171.871094 179.640625 C 171.875 179.601562 171.878906 179.5625 171.882812 179.523438 C 171.886719 179.425781 171.890625 179.324219 171.894531 179.222656 C 171.851562 179.183594 171.855469 179.15625 171.910156 179.132812 C 172.183594 178.589844 172.613281 178.453125 173.183594 178.601562 C 173.457031 178.671875 173.742188 178.6875 174.023438 178.730469 C 174.058594 178.769531 174.09375 178.808594 174.128906 178.847656 C 174.210938 178.828125 174.289062 178.808594 174.371094 178.789062 C 174.441406 178.835938 174.511719 178.878906 174.585938 178.925781 C 175.308594 179.058594 176.042969 179.148438 176.738281 179.40625 C 176.910156 179.421875 177.078125 179.4375 177.25 179.457031 C 177.371094 179.429688 177.507812 179.492188 177.621094 179.410156 C 177.660156 179.375 177.691406 179.378906 177.71875 179.425781 C 177.855469 179.503906 177.996094 179.433594 178.132812 179.433594 C 178.171875 179.464844 178.207031 179.480469 178.246094 179.4375 C 178.371094 179.410156 178.507812 179.5 178.628906 179.410156 C 178.664062 179.367188 178.691406 179.378906 178.714844 179.421875 C 178.800781 179.4375 178.882812 179.453125 178.964844 179.464844 C 179.207031 179.316406 179.5 179.402344 179.753906 179.308594 C 179.875 179.265625 179.980469 179.285156 180.082031 179.359375 C 180.191406 179.414062 180.261719 179.320312 180.347656 179.289062 C 180.386719 179.25 180.417969 179.257812 180.441406 179.304688 C 181.367188 179.207031 182.289062 179.359375 183.214844 179.375 C 183.253906 179.332031 183.28125 179.339844 183.304688 179.390625 C 183.441406 179.472656 183.582031 179.390625 183.722656 179.398438 C 183.789062 179.480469 183.867188 179.5 183.957031 179.441406 C 184.191406 179.542969 184.472656 179.441406 184.6875 179.617188 C 184.839844 179.585938 184.992188 179.546875 185.085938 179.730469 C 185.160156 179.742188 185.230469 179.753906 185.300781 179.769531 C 185.417969 179.789062 185.535156 179.8125 185.652344 179.835938 C 185.738281 179.804688 185.769531 179.878906 185.816406 179.921875 C 186.105469 179.9375 186.347656 180.097656 186.613281 180.179688 C 186.746094 180.21875 186.839844 180.234375 186.941406 180.140625 C 187.179688 180.226562 187.371094 180.0625 187.585938 180.023438 C 187.921875 179.980469 188.253906 179.933594 188.589844 179.886719 C 188.625 179.894531 188.65625 179.898438 188.6875 179.90625 C 189.128906 179.828125 189.570312 179.777344 190.015625 179.777344 C 190.058594 179.746094 190.089844 179.746094 190.113281 179.796875 C 190.1875 179.84375 190.25 179.792969 190.316406 179.777344 C 190.359375 179.738281 190.386719 179.75 190.40625 179.796875 L 190.429688 179.773438 C 190.453125 179.828125 190.492188 179.824219 190.535156 179.808594 C 190.9375 179.847656 191.335938 179.835938 191.734375 179.789062 C 191.765625 179.75 191.792969 179.757812 191.816406 179.800781 C 192.191406 179.804688 192.566406 179.808594 192.941406 179.8125 C 193.007812 179.898438 193.082031 179.933594 193.171875 179.835938 C 193.378906 179.929688 193.597656 179.953125 193.820312 179.90625 C 193.859375 179.867188 193.890625 179.875 193.914062 179.921875 C 194.089844 179.925781 194.265625 179.925781 194.445312 179.925781 C 194.605469 179.890625 194.765625 179.816406 194.929688 179.90625 C 195.273438 179.800781 195.628906 179.863281 195.980469 179.839844 C 196.105469 179.832031 196.210938 179.808594 196.316406 179.75 C 196.355469 179.710938 196.390625 179.722656 196.425781 179.753906 C 196.84375 179.835938 197.214844 179.519531 197.632812 179.625 C 197.675781 179.585938 197.703125 179.597656 197.726562 179.644531 C 198.179688 179.570312 198.601562 179.59375 198.894531 180.015625 C 199.085938 180.136719 199.042969 180.375 199.160156 180.535156 C 199.199219 180.570312 199.183594 180.609375 199.15625 180.644531 C 199.167969 180.667969 199.183594 180.6875 199.207031 180.699219 C 199.253906 180.828125 199.347656 180.84375 199.464844 180.800781 C 199.492188 180.792969 199.519531 180.785156 199.550781 180.777344 C 199.585938 180.738281 199.617188 180.738281 199.632812 180.792969 C 200.300781 180.730469 200.949219 180.53125 201.628906 180.59375 C 201.90625 180.46875 202.226562 180.550781 202.496094 180.402344 C 202.527344 180.40625 202.554688 180.410156 202.585938 180.414062 C 202.71875 180.429688 202.847656 180.4375 202.9375 180.308594 C 202.804688 180.199219 202.875 180.050781 202.867188 179.921875 C 202.847656 179.835938 202.824219 179.75 202.800781 179.664062 C 202.84375 179.628906 202.886719 179.59375 202.933594 179.558594 C 202.960938 179.527344 202.992188 179.5 203.023438 179.472656 C 203.003906 179.433594 202.988281 179.398438 202.96875 179.363281 C 203.132812 179.15625 203.03125 178.832031 203.285156 178.667969 C 203.289062 178.640625 203.304688 178.621094 203.332031 178.609375 C 203.417969 178.535156 203.445312 178.628906 203.488281 178.667969 C 203.652344 178.667969 203.8125 178.664062 203.972656 178.664062 C 204.042969 178.570312 204.113281 178.570312 204.183594 178.664062 C 204.300781 178.609375 204.421875 178.59375 204.550781 178.625 C 204.675781 178.523438 204.8125 178.492188 204.964844 178.566406 C 204.964844 178.566406 204.976562 178.570312 204.976562 178.570312 C 205.054688 178.5625 205.125 178.496094 205.203125 178.550781 C 205.292969 178.535156 205.378906 178.519531 205.46875 178.503906 C 205.507812 178.464844 205.539062 178.476562 205.558594 178.523438 L 205.578125 178.5 C 205.601562 178.554688 205.640625 178.550781 205.6875 178.535156 C 205.699219 178.550781 205.714844 178.566406 205.726562 178.585938 C 205.96875 178.515625 206.203125 178.542969 206.441406 178.59375 C 206.695312 178.476562 206.960938 178.578125 207.21875 178.570312 C 207.253906 178.53125 207.285156 178.535156 207.308594 178.582031 C 207.53125 178.5625 207.75 178.546875 207.96875 178.527344 C 208.039062 178.609375 208.113281 178.644531 208.199219 178.542969 C 208.386719 178.507812 208.550781 178.667969 208.738281 178.59375 C 208.78125 178.558594 208.8125 178.566406 208.835938 178.613281 L 208.851562 178.59375 C 208.875 178.644531 208.914062 178.644531 208.957031 178.632812 C 208.992188 178.660156 209.027344 178.671875 209.0625 178.632812 C 209.207031 178.605469 209.347656 178.582031 209.492188 178.554688 C 209.566406 178.628906 209.644531 178.660156 209.726562 178.566406 L 209.738281 178.59375 C 209.75 178.570312 209.765625 178.550781 209.792969 178.539062 C 209.8125 178.554688 209.832031 178.574219 209.847656 178.59375 C 209.882812 178.601562 209.917969 178.605469 209.953125 178.613281 C 210.015625 178.601562 210.070312 178.589844 210.128906 178.578125 C 210.25 178.566406 210.375 178.554688 210.492188 178.546875 L 210.519531 178.578125 L 210.535156 178.609375 C 210.609375 178.632812 210.675781 178.625 210.726562 178.5625 L 210.738281 178.589844 C 210.773438 178.546875 210.808594 178.558594 210.84375 178.59375 C 210.921875 178.609375 211 178.625 211.078125 178.640625 C 211.09375 178.660156 211.113281 178.675781 211.128906 178.6875 C 211.113281 178.675781 211.09375 178.660156 211.078125 178.640625 C 211.214844 178.640625 211.351562 178.636719 211.488281 178.636719 C 211.660156 178.550781 211.820312 178.570312 211.957031 178.710938 C 212.0625 178.8125 212.128906 178.941406 212.167969 179.082031 C 212.195312 179.121094 212.222656 179.164062 212.25 179.203125 C 212.21875 179.273438 212.253906 179.324219 212.300781 179.367188 C 212.464844 179.886719 212.625 180.40625 212.789062 180.925781 C 212.753906 180.957031 212.742188 180.996094 212.78125 181.03125 C 212.796875 181.09375 212.847656 181.152344 212.800781 181.21875 C 212.828125 181.269531 212.855469 181.316406 212.882812 181.363281 C 212.980469 181.449219 213.03125 181.550781 212.996094 181.683594 C 213.070312 181.851562 213.140625 182.019531 213.101562 182.210938 C 213.148438 182.34375 213.324219 182.417969 213.269531 182.59375 C 213.304688 182.675781 213.398438 182.742188 213.347656 182.847656 C 213.382812 182.957031 213.414062 183.058594 213.449219 183.164062 C 213.511719 183.238281 213.601562 183.296875 213.550781 183.414062 C 213.570312 183.460938 213.59375 183.507812 213.613281 183.554688 C 213.65625 183.589844 213.644531 183.625 213.613281 183.65625 C 213.648438 183.773438 213.710938 183.886719 213.671875 184.015625 C 213.722656 184.117188 213.855469 184.1875 213.792969 184.332031 C 213.824219 184.410156 213.9375 184.464844 213.871094 184.578125 C 213.957031 184.660156 213.878906 184.8125 213.996094 184.886719 C 214.039062 184.957031 214.078125 185.023438 214.121094 185.09375 C 214.113281 185.136719 214.101562 185.179688 214.089844 185.21875 C 213.988281 185.179688 213.917969 185.128906 213.875 185.070312 C 213.855469 185.046875 213.839844 185.019531 213.832031 184.996094 C 213.839844 185.019531 213.855469 185.046875 213.875 185.070312 C 213.917969 185.128906 213.988281 185.179688 214.089844 185.21875 C 214.132812 185.277344 214.171875 185.332031 214.214844 185.386719 C 214.1875 185.425781 214.15625 185.460938 214.128906 185.5 C 214.207031 185.589844 214.128906 185.738281 214.246094 185.8125 C 214.269531 185.855469 214.296875 185.902344 214.320312 185.945312 C 214.292969 185.984375 214.28125 186.019531 214.320312 186.058594 C 214.335938 186.144531 214.449219 186.207031 214.394531 186.316406 C 214.429688 186.421875 214.460938 186.53125 214.496094 186.636719 C 214.578125 186.84375 214.664062 187.050781 214.746094 187.261719 C 214.734375 187.386719 214.707031 187.511719 214.816406 187.613281 C 214.921875 187.832031 214.921875 188.070312 214.96875 188.300781 C 214.921875 188.375 214.972656 188.421875 215.019531 188.472656 C 215.054688 188.550781 215.085938 188.628906 215.117188 188.707031 C 215.199219 188.871094 215.207031 189.050781 215.222656 189.230469 C 215.347656 189.34375 215.371094 189.488281 215.351562 189.648438 C 215.414062 189.824219 215.480469 190.003906 215.546875 190.183594 C 215.574219 190.234375 215.605469 190.289062 215.632812 190.34375 C 215.699219 190.464844 215.6875 190.59375 215.664062 190.722656 C 215.71875 190.792969 215.785156 190.859375 215.757812 190.957031 C 215.917969 191.152344 215.898438 191.351562 215.777344 191.554688 C 215.957031 191.71875 215.820312 191.917969 215.84375 192.097656 C 215.96875 192.195312 215.863281 192.332031 215.902344 192.445312 C 215.863281 192.476562 215.824219 192.511719 215.785156 192.546875 C 215.816406 192.589844 215.851562 192.632812 215.882812 192.679688 C 215.882812 192.679688 215.851562 192.6875 215.851562 192.6875 C 215.890625 192.730469 215.890625 192.761719 215.839844 192.789062 L 215.863281 192.808594 C 215.839844 192.824219 215.816406 192.835938 215.792969 192.851562 C 215.804688 192.871094 215.820312 192.890625 215.84375 192.898438 C 215.832031 193.210938 215.769531 193.46875 215.371094 193.433594 Z M 175.902344 182.511719 C 175.953125 182.632812 176.0625 182.632812 176.171875 182.632812 C 176.53125 182.707031 176.894531 182.785156 177.253906 182.859375 C 177.308594 182.964844 177.390625 183.015625 177.511719 182.957031 C 177.667969 182.929688 177.761719 183.027344 177.851562 183.132812 C 177.898438 183.121094 177.945312 183.113281 177.992188 183.101562 C 178.125 183.074219 178.195312 183.1875 178.292969 183.238281 C 178.292969 183.238281 178.300781 183.238281 178.300781 183.238281 C 178.273438 183.296875 178.25 183.363281 178.195312 183.378906 C 178.25 183.363281 178.273438 183.296875 178.300781 183.238281 C 178.445312 183.0625 178.578125 183.257812 178.71875 183.25 C 178.753906 183.210938 178.785156 183.214844 178.808594 183.261719 C 179.113281 183.433594 179.417969 183.441406 179.714844 183.242188 C 179.753906 183.242188 179.789062 183.246094 179.824219 183.246094 C 180.503906 183.117188 181.042969 182.726562 181.5625 182.304688 C 181.652344 182.242188 181.742188 182.179688 181.828125 182.117188 C 181.917969 182.054688 182.007812 181.992188 182.097656 181.929688 C 182.207031 181.898438 182.320312 181.867188 182.429688 181.832031 C 182.492188 181.777344 182.554688 181.722656 182.613281 181.664062 C 182.675781 181.65625 182.730469 181.59375 182.800781 181.640625 C 183.289062 181.410156 183.769531 181.160156 184.316406 181.09375 C 184.386719 181.050781 184.457031 181.003906 184.523438 180.960938 C 184.75 180.75 185.109375 180.90625 185.324219 180.667969 C 185.683594 180.652344 185.636719 180.496094 185.453125 180.292969 C 185.367188 180.3125 185.285156 180.332031 185.199219 180.351562 C 185.144531 180.324219 185.085938 180.300781 185.03125 180.277344 C 185.007812 180.230469 184.972656 180.222656 184.9375 180.261719 C 184.609375 180.222656 184.285156 180.144531 183.960938 180.082031 C 183.398438 179.980469 182.820312 180.070312 182.265625 179.921875 C 182.246094 179.871094 182.214844 179.867188 182.179688 179.90625 C 182.148438 179.914062 182.121094 179.917969 182.089844 179.925781 C 182.0625 179.921875 182.03125 179.917969 182 179.910156 C 181.265625 179.824219 180.539062 180.015625 179.808594 179.960938 C 179.742188 180.003906 179.675781 180.046875 179.613281 180.085938 C 179.546875 179.996094 179.46875 179.972656 179.371094 180.039062 C 179.359375 180.023438 179.34375 180.007812 179.332031 179.992188 C 179.179688 180.085938 179.03125 180.179688 178.859375 180.046875 C 178.714844 180.070312 178.574219 180.097656 178.429688 180.121094 C 178.394531 180.089844 178.355469 180.078125 178.316406 180.117188 C 178.273438 180.109375 178.230469 180.101562 178.1875 180.097656 C 178.160156 180.050781 178.128906 180.042969 178.09375 180.082031 C 178.015625 180.09375 177.9375 180.113281 177.859375 180.117188 C 177.203125 180.140625 176.574219 179.929688 175.929688 179.867188 C 175.890625 179.90625 175.863281 179.898438 175.839844 179.851562 C 175.8125 179.832031 175.789062 179.816406 175.765625 179.800781 C 175.714844 179.679688 175.648438 179.667969 175.558594 179.761719 C 175.53125 179.761719 175.511719 179.769531 175.492188 179.785156 C 175.394531 179.714844 175.308594 179.617188 175.167969 179.640625 C 174.367188 179.460938 173.570312 179.285156 172.769531 179.105469 C 172.746094 179.0625 172.71875 179.054688 172.679688 179.09375 C 172.546875 179.132812 172.535156 179.234375 172.550781 179.347656 C 172.410156 179.449219 172.34375 179.558594 172.511719 179.691406 C 172.519531 179.761719 172.523438 179.835938 172.527344 179.910156 C 172.699219 180.574219 173.078125 181.074219 173.699219 181.394531 C 174.136719 181.617188 174.605469 181.785156 174.949219 182.160156 C 175.09375 182.207031 175.292969 182.023438 175.394531 182.265625 C 175.597656 182.28125 175.726562 182.445312 175.902344 182.511719 Z M 178.179688 183.382812 C 178.183594 183.382812 178.1875 183.382812 178.191406 183.378906 C 178.1875 183.382812 178.183594 183.382812 178.179688 183.382812 Z M 175.429688 182.832031 Z M 175.425781 182.847656 L 175.425781 182.84375 C 175.425781 182.847656 175.425781 182.847656 175.425781 182.847656 Z M 175.003906 183.121094 C 175.035156 183.105469 175.070312 183.089844 175.097656 183.074219 C 175.070312 183.089844 175.039062 183.105469 175.003906 183.121094 Z M 169.25 193.421875 C 169.25 193.390625 169.25 193.363281 169.25 193.335938 C 169.25 193.363281 169.25 193.390625 169.25 193.421875 Z M 171.90625 193.921875 C 172.0625 193.796875 172.058594 193.535156 172.238281 193.40625 C 172.222656 193.292969 172.242188 193.195312 172.363281 193.148438 C 172.414062 193.042969 172.46875 192.9375 172.519531 192.832031 C 172.933594 192.027344 173.453125 191.277344 173.734375 190.410156 C 173.789062 190.242188 173.984375 190.207031 174.089844 190.089844 C 173.988281 189.957031 174.035156 189.84375 174.117188 189.71875 C 174.574219 189.007812 174.886719 188.210938 175.414062 187.539062 C 175.40625 187.390625 175.464844 187.285156 175.609375 187.230469 C 175.585938 187.046875 175.582031 186.875 175.660156 186.695312 C 175.839844 186.269531 175.554688 185.996094 175.277344 185.765625 C 175.023438 185.558594 174.78125 185.722656 174.535156 185.867188 C 173.996094 186.1875 173.582031 186.617188 173.257812 187.148438 C 172.660156 188.132812 171.875 188.980469 171.207031 189.917969 C 171.125 190.03125 171.070312 190.140625 171.019531 190.261719 C 171.046875 190.300781 171.046875 190.335938 170.996094 190.359375 C 170.972656 190.578125 170.753906 190.660156 170.652344 190.832031 C 170.433594 191.191406 170.285156 191.601562 169.980469 191.902344 C 169.890625 192.0625 170.023438 192.285156 169.835938 192.417969 C 169.785156 192.4375 169.78125 192.46875 169.820312 192.507812 C 169.8125 192.546875 169.804688 192.589844 169.796875 192.628906 C 169.8125 193.113281 170 193.511719 170.378906 193.816406 C 170.4375 193.875 170.492188 193.933594 170.550781 193.988281 C 170.726562 193.9375 170.867188 194.042969 171.007812 194.109375 C 171.363281 194.273438 171.652344 194.121094 171.90625 193.921875 Z M 177.585938 189.335938 C 177.570312 189.289062 177.570312 189.253906 177.617188 189.226562 C 177.742188 189.144531 177.726562 188.988281 177.765625 188.878906 C 177.957031 188.328125 178.277344 187.816406 178.320312 187.214844 C 178.285156 187.175781 178.289062 187.144531 178.335938 187.121094 C 178.21875 186.457031 177.671875 186.214844 177.09375 186.578125 C 176.660156 186.851562 176.261719 187.164062 175.964844 187.589844 C 175.984375 187.675781 175.917969 187.703125 175.859375 187.730469 C 175.640625 188.257812 175.304688 188.714844 174.980469 189.179688 C 174.988281 189.210938 174.996094 189.238281 175.003906 189.269531 C 174.949219 189.304688 174.898438 189.339844 174.84375 189.378906 C 174.839844 189.492188 174.832031 189.601562 174.703125 189.648438 C 174.640625 189.824219 174.613281 190.019531 174.460938 190.148438 C 174.039062 191.140625 173.515625 192.078125 172.960938 193 C 173.085938 193.328125 172.84375 193.535156 172.703125 193.769531 C 172.398438 194.285156 172.808594 195.089844 173.382812 195.214844 C 173.742188 195.292969 174.066406 195.136719 174.40625 195.199219 C 174.601562 195.050781 174.796875 194.90625 174.992188 194.757812 C 175.0625 194.59375 175.207031 194.503906 175.332031 194.394531 C 175.613281 193.964844 175.941406 193.566406 176.113281 193.078125 C 176.089844 193.03125 176.097656 192.996094 176.144531 192.972656 C 176.207031 192.921875 176.269531 192.867188 176.332031 192.816406 C 176.3125 192.695312 176.351562 192.582031 176.394531 192.472656 C 176.664062 192.023438 176.828125 191.527344 177.011719 191.039062 C 176.96875 191.003906 176.976562 190.976562 177.027344 190.953125 C 177.308594 190.445312 177.359375 189.859375 177.585938 189.335938 Z M 179.5 196 L 179.472656 195.972656 L 179.453125 195.933594 C 179.566406 195.859375 179.675781 195.785156 179.789062 195.710938 C 180.472656 195.53125 180.90625 195.054688 181.246094 194.464844 C 181.207031 194.433594 181.210938 194.40625 181.257812 194.390625 C 181.332031 194.3125 181.398438 194.238281 181.449219 194.136719 C 181.828125 193.316406 182.25 192.515625 182.5625 191.667969 C 182.6875 191.585938 182.628906 191.425781 182.710938 191.328125 C 182.695312 191.308594 182.683594 191.285156 182.675781 191.257812 C 182.695312 191.242188 182.714844 191.230469 182.738281 191.226562 C 182.828125 190.824219 183.011719 190.441406 183.011719 190.015625 C 182.96875 189.976562 182.976562 189.949219 183.023438 189.925781 C 183.09375 189.730469 183.113281 189.535156 183.082031 189.328125 C 182.992188 188.8125 182.722656 188.585938 182.25 188.75 C 181.761719 188.917969 181.265625 189.140625 181.21875 189.78125 C 181.144531 189.847656 181.082031 189.914062 181.179688 190.007812 C 181.074219 190.289062 180.972656 190.570312 180.867188 190.847656 C 180.816406 190.875 180.816406 190.90625 180.855469 190.941406 L 180.824219 190.953125 C 180.859375 190.992188 180.859375 191.023438 180.808594 191.046875 C 180.703125 191.183594 180.585938 191.316406 180.644531 191.515625 C 180.515625 191.5625 180.496094 191.660156 180.511719 191.777344 C 180.492188 191.792969 180.476562 191.816406 180.464844 191.839844 C 180.421875 191.859375 180.410156 191.886719 180.449219 191.921875 C 180.261719 192.128906 180.246094 192.414062 180.140625 192.660156 C 180.09375 192.683594 180.082031 192.714844 180.121094 192.757812 C 180.007812 193.117188 179.789062 193.421875 179.601562 193.742188 C 179.550781 193.765625 179.542969 193.804688 179.558594 193.851562 C 179.246094 194.242188 178.933594 194.632812 178.621094 195.027344 C 178.632812 195.074219 178.628906 195.113281 178.578125 195.136719 C 178.535156 195.21875 178.496094 195.304688 178.449219 195.382812 C 178.148438 195.871094 178.179688 195.949219 178.652344 196.257812 C 178.878906 196.40625 179.03125 196.234375 179.21875 196.207031 C 179.46875 196.351562 179.476562 196.164062 179.5 196 Z M 182.707031 194.6875 C 182.761719 194.574219 182.378906 194.441406 182.234375 194.273438 C 182.21875 194.253906 182.1875 194.253906 182.164062 194.238281 C 182.050781 194.171875 181.953125 194.226562 181.945312 194.324219 C 181.925781 194.628906 181.640625 194.78125 181.5 195.132812 C 181.710938 195.058594 181.863281 195.0625 181.992188 195.039062 C 182.257812 194.984375 182.589844 194.917969 182.707031 194.6875 Z M 195.851562 183.066406 C 195.921875 183.078125 195.996094 183.085938 196.066406 183.09375 C 196.226562 183.042969 196.316406 182.859375 196.507812 182.878906 C 196.648438 182.792969 196.789062 182.703125 196.929688 182.621094 C 197.140625 182.542969 197.367188 182.488281 197.566406 182.386719 C 198.082031 182.117188 198.511719 181.773438 198.492188 181.109375 C 198.617188 181.011719 198.539062 180.894531 198.519531 180.78125 C 198.480469 180.710938 198.441406 180.640625 198.398438 180.570312 C 198.484375 180.332031 198.203125 180.375 198.152344 180.246094 C 198.128906 180.257812 198.109375 180.273438 198.097656 180.292969 C 197.585938 180.253906 197.089844 180.363281 196.59375 180.441406 C 196.5625 180.40625 196.53125 180.386719 196.492188 180.429688 C 196.421875 180.46875 196.355469 180.511719 196.285156 180.550781 C 196.054688 180.484375 195.828125 180.445312 195.617188 180.613281 C 195.46875 180.535156 195.308594 180.574219 195.152344 180.570312 C 194.914062 180.570312 194.675781 180.671875 194.441406 180.550781 C 194.421875 180.503906 194.394531 180.496094 194.359375 180.535156 C 194.070312 180.550781 193.777344 180.527344 193.496094 180.617188 C 193.402344 180.53125 193.304688 180.539062 193.207031 180.609375 C 192.9375 180.429688 192.640625 180.488281 192.347656 180.523438 C 192.3125 180.492188 192.277344 180.480469 192.242188 180.519531 C 191.945312 180.621094 191.644531 180.378906 191.347656 180.523438 C 191.226562 180.488281 191.105469 180.523438 190.988281 180.554688 C 190.777344 180.367188 190.546875 180.378906 190.304688 180.480469 C 190.085938 180.503906 189.855469 180.335938 189.648438 180.519531 C 189.472656 180.347656 189.320312 180.480469 189.160156 180.554688 C 188.816406 180.4375 188.496094 180.601562 188.167969 180.65625 C 188.085938 180.589844 188.003906 180.558594 187.925781 180.660156 C 187.453125 180.746094 186.980469 180.835938 186.507812 180.925781 C 186.480469 180.910156 186.457031 180.902344 186.441406 180.898438 C 186.457031 180.902344 186.480469 180.910156 186.507812 180.925781 C 186.460938 180.957031 186.417969 180.988281 186.371094 181.019531 C 186.265625 181.105469 186.152344 181.171875 186.015625 181.078125 C 185.925781 181.132812 185.832031 181.183594 185.742188 181.238281 C 185.667969 181.21875 185.621094 181.261719 185.574219 181.3125 C 185.511719 181.324219 185.445312 181.335938 185.378906 181.347656 C 185.394531 181.308594 185.410156 181.273438 185.429688 181.238281 C 185.410156 181.273438 185.394531 181.308594 185.378906 181.347656 C 185.191406 181.515625 184.910156 181.339844 184.730469 181.53125 C 184.679688 181.558594 184.632812 181.582031 184.582031 181.609375 C 184.523438 181.640625 184.46875 181.691406 184.40625 181.703125 C 183.519531 181.875 182.792969 182.414062 181.984375 182.757812 C 181.855469 182.828125 181.703125 182.871094 181.667969 183.046875 C 181.476562 183.09375 181.375 183.269531 181.210938 183.363281 C 181.105469 183.324219 181.039062 183.390625 180.972656 183.457031 C 180.5 183.769531 179.929688 183.78125 179.410156 183.941406 C 179.378906 183.910156 179.34375 183.898438 179.308594 183.9375 C 178.9375 183.886719 178.570312 183.835938 178.199219 183.785156 C 178.101562 183.726562 178 183.726562 177.902344 183.789062 C 177.769531 183.753906 177.636719 183.722656 177.5 183.6875 C 177.5 183.660156 177.488281 183.632812 177.464844 183.617188 C 177.441406 183.625 177.421875 183.640625 177.402344 183.652344 C 177.207031 183.65625 177.007812 183.660156 176.8125 183.660156 C 176.8125 183.660156 176.816406 183.660156 176.816406 183.660156 C 176.476562 183.570312 176.109375 183.667969 175.78125 183.503906 C 175.722656 183.542969 175.664062 183.582031 175.59375 183.53125 C 175.570312 183.480469 175.53125 183.480469 175.488281 183.5 C 175.472656 183.480469 175.453125 183.464844 175.4375 183.449219 C 175.28125 183.660156 175.066406 183.34375 174.90625 183.511719 C 174.875 183.472656 174.839844 183.433594 174.808594 183.394531 C 174.761719 183.417969 174.714844 183.441406 174.667969 183.464844 C 174.554688 183.449219 174.445312 183.433594 174.332031 183.417969 C 174.25 183.40625 174.167969 183.398438 174.085938 183.390625 C 174.066406 183.339844 174.035156 183.332031 173.996094 183.375 C 173.972656 183.378906 173.949219 183.390625 173.921875 183.402344 C 173.828125 183.371094 173.726562 183.339844 173.632812 183.308594 C 173.609375 183.261719 173.578125 183.253906 173.542969 183.296875 C 173.480469 183.296875 173.417969 183.300781 173.355469 183.300781 C 172.933594 183.234375 172.507812 183.183594 172.078125 183.199219 C 171.726562 183.058594 171.335938 183.222656 170.984375 183.070312 C 170.945312 183.042969 170.910156 183.03125 170.875 183.070312 C 170.527344 183 170.175781 182.988281 169.824219 182.988281 C 169.753906 182.941406 169.675781 182.925781 169.59375 182.949219 C 169.574219 182.933594 169.554688 182.914062 169.539062 182.898438 C 169.035156 183.246094 168.941406 183.816406 168.804688 184.34375 C 168.640625 184.96875 168.652344 185.628906 168.386719 186.230469 C 168.335938 186.25 168.332031 186.28125 168.375 186.316406 C 168.378906 186.339844 168.386719 186.367188 168.398438 186.390625 C 168.363281 186.425781 168.355469 186.464844 168.394531 186.5 C 168.363281 186.699219 168.328125 186.898438 168.292969 187.09375 C 168.246094 187.117188 168.238281 187.144531 168.28125 187.183594 C 168.25 187.4375 168.222656 187.691406 168.195312 187.949219 C 168.214844 187.988281 168.222656 188.027344 168.171875 188.054688 C 168.199219 188.484375 168.046875 188.917969 168.160156 189.347656 C 168.292969 189.84375 168.257812 190.359375 168.324219 190.863281 C 168.324219 190.902344 168.324219 190.941406 168.324219 190.984375 C 168.324219 191.078125 168.328125 191.175781 168.332031 191.273438 C 168.308594 191.277344 168.285156 191.289062 168.269531 191.304688 L 168.289062 191.339844 L 168.320312 191.363281 C 168.402344 191.535156 168.5625 191.699219 168.371094 191.898438 C 168.320312 192.078125 168.5625 192.222656 168.433594 192.410156 C 168.355469 192.523438 168.429688 192.535156 168.519531 192.535156 C 168.550781 192.578125 168.585938 192.617188 168.617188 192.65625 L 168.648438 192.664062 C 168.710938 192.675781 168.769531 192.683594 168.832031 192.695312 C 168.890625 192.671875 168.945312 192.617188 169.015625 192.667969 C 169.058594 192.644531 169.101562 192.621094 169.140625 192.597656 C 169.238281 192.703125 169.339844 192.730469 169.464844 192.644531 C 169.457031 192.554688 169.445312 192.46875 169.4375 192.378906 L 169.40625 192.355469 L 169.386719 192.320312 C 169.40625 192.304688 169.425781 192.292969 169.449219 192.289062 C 169.472656 192.234375 169.496094 192.175781 169.519531 192.117188 C 169.460938 192.023438 169.449219 191.941406 169.578125 191.898438 C 169.617188 191.863281 169.652344 191.828125 169.691406 191.792969 C 169.664062 191.707031 169.554688 191.632812 169.601562 191.539062 C 169.851562 191.058594 170.058594 190.554688 170.46875 190.175781 C 170.511719 190.140625 170.554688 190.109375 170.597656 190.074219 C 170.675781 189.703125 170.964844 189.453125 171.140625 189.136719 C 171.203125 189.105469 171.246094 189.066406 171.230469 188.988281 C 171.5 188.816406 171.5625 188.476562 171.808594 188.289062 C 171.800781 188.261719 171.796875 188.238281 171.792969 188.210938 C 171.820312 188.15625 171.847656 188.097656 171.875 188.042969 C 171.925781 188.019531 171.972656 187.992188 172.023438 187.96875 C 172.222656 187.832031 172.273438 187.59375 172.410156 187.410156 C 172.523438 187.324219 172.636719 187.238281 172.753906 187.152344 C 172.757812 187.113281 172.765625 187.074219 172.773438 187.035156 C 172.8125 186.984375 172.886719 186.953125 172.859375 186.871094 C 173.230469 186.304688 173.742188 185.871094 174.230469 185.410156 C 174.363281 185.429688 174.441406 185.335938 174.527344 185.261719 C 174.554688 185.253906 174.585938 185.246094 174.613281 185.238281 C 174.625 185.214844 174.644531 185.199219 174.667969 185.1875 C 174.6875 185.203125 174.703125 185.222656 174.710938 185.25 C 174.78125 185.292969 174.84375 185.257812 174.910156 185.230469 C 174.949219 185.230469 174.984375 185.230469 175.023438 185.226562 C 175.242188 185.097656 175.382812 185.273438 175.546875 185.363281 C 175.578125 185.414062 175.609375 185.46875 175.683594 185.46875 C 175.800781 185.582031 175.921875 185.699219 176.042969 185.816406 C 176.214844 185.992188 176.128906 186.261719 176.261719 186.453125 C 176.292969 186.488281 176.328125 186.527344 176.363281 186.566406 C 176.320312 186.585938 176.289062 186.589844 176.269531 186.585938 C 176.261719 186.582031 176.257812 186.578125 176.253906 186.574219 C 176.257812 186.578125 176.265625 186.582031 176.269531 186.585938 C 176.289062 186.589844 176.320312 186.585938 176.363281 186.566406 C 176.457031 186.46875 176.550781 186.367188 176.644531 186.269531 C 176.671875 186.261719 176.703125 186.257812 176.730469 186.25 C 176.84375 186.167969 176.929688 186.027344 177.101562 186.058594 C 177.621094 185.84375 178.082031 186.015625 178.539062 186.257812 C 178.851562 186.550781 178.84375 186.945312 178.875 187.324219 C 178.898438 187.335938 178.917969 187.355469 178.925781 187.382812 C 178.902344 187.402344 178.878906 187.414062 178.851562 187.421875 L 178.878906 187.4375 C 178.625 187.546875 178.957031 187.765625 178.789062 187.886719 C 178.800781 187.921875 178.816406 187.953125 178.828125 187.984375 C 178.773438 187.980469 178.746094 187.964844 178.753906 187.9375 C 178.746094 187.964844 178.773438 187.980469 178.828125 187.984375 C 178.996094 188.003906 178.988281 187.8125 179.09375 187.753906 C 179.425781 187.535156 179.816406 187.464844 180.175781 187.3125 C 180.246094 187.449219 180.402344 187.410156 180.511719 187.46875 C 180.546875 187.597656 180.667969 187.546875 180.746094 187.582031 C 180.804688 187.613281 180.863281 187.648438 180.921875 187.683594 C 181.046875 187.859375 181.171875 188.035156 181.296875 188.207031 C 181.300781 188.363281 181.253906 188.527344 181.367188 188.664062 C 181.449219 188.722656 181.472656 188.664062 181.496094 188.605469 C 181.542969 188.574219 181.589844 188.546875 181.636719 188.515625 C 182.050781 188.40625 182.433594 188.144531 182.890625 188.289062 C 182.921875 188.351562 182.949219 188.417969 183.039062 188.398438 C 183.152344 188.511719 183.269531 188.628906 183.382812 188.742188 C 183.34375 188.90625 183.507812 189.007812 183.515625 189.160156 C 183.617188 189.375 183.550781 189.605469 183.550781 189.828125 C 183.53125 189.878906 183.511719 189.933594 183.488281 189.984375 C 183.511719 190.03125 183.539062 190.074219 183.5625 190.125 C 183.539062 190.179688 183.515625 190.234375 183.492188 190.289062 C 183.441406 190.550781 183.390625 190.8125 183.339844 191.078125 C 183.195312 191.21875 183.289062 191.433594 183.1875 191.589844 C 183.136719 191.632812 183.078125 191.671875 183.101562 191.757812 C 183.132812 191.792969 183.140625 191.828125 183.089844 191.851562 C 183 191.953125 183.03125 192.078125 183.019531 192.191406 C 182.945312 192.277344 182.820312 192.339844 182.90625 192.484375 C 182.886719 192.496094 182.871094 192.511719 182.867188 192.535156 C 182.804688 192.5625 182.746094 192.59375 182.757812 192.679688 C 182.699219 192.765625 182.636719 192.851562 182.578125 192.9375 C 182.585938 192.984375 182.582031 193.027344 182.527344 193.046875 C 182.488281 193.097656 182.417969 193.132812 182.4375 193.214844 C 182.445312 193.433594 182.234375 193.710938 182.605469 193.832031 C 182.683594 193.871094 182.757812 193.90625 182.835938 193.945312 C 182.851562 194.097656 182.984375 194.046875 183.066406 194.078125 C 183.234375 194.253906 183.449219 194.355469 183.652344 194.472656 C 183.695312 194.613281 183.828125 194.601562 183.933594 194.636719 C 183.984375 194.691406 184.035156 194.746094 184.082031 194.796875 C 184.1875 194.835938 184.320312 194.835938 184.367188 194.972656 C 184.71875 195.179688 185.050781 195.429688 185.472656 195.496094 C 185.554688 195.667969 185.714844 195.628906 185.855469 195.640625 C 185.894531 195.683594 185.933594 195.734375 186.007812 195.722656 C 186.089844 195.828125 186.171875 195.929688 186.328125 195.867188 L 186.339844 195.898438 C 186.378906 195.867188 186.410156 195.867188 186.433594 195.917969 C 186.496094 195.941406 186.558594 195.964844 186.621094 195.988281 C 186.640625 196.042969 186.683594 196.042969 186.730469 196.023438 C 186.9375 196.0625 187.113281 196.214844 187.339844 196.183594 C 187.472656 196.347656 187.664062 196.316406 187.84375 196.332031 C 187.90625 196.429688 187.984375 196.445312 188.078125 196.375 C 188.113281 196.378906 188.152344 196.382812 188.1875 196.386719 C 188.457031 196.492188 188.730469 196.242188 189 196.394531 C 189.113281 196.363281 189.179688 196.230469 189.320312 196.273438 C 189.417969 196.214844 189.515625 196.160156 189.554688 196.042969 C 189.664062 196.007812 189.792969 196.035156 189.875 195.921875 C 189.90625 195.875 189.941406 195.882812 189.980469 195.914062 C 190.085938 195.886719 190.195312 195.863281 190.136719 195.707031 C 189.78125 195.722656 189.464844 195.5 189.105469 195.527344 C 188.972656 195.335938 188.761719 195.285156 188.554688 195.21875 C 188.535156 195.171875 188.5 195.167969 188.457031 195.179688 C 188.367188 195.050781 188.273438 194.917969 188.179688 194.789062 C 188.402344 194.59375 188.617188 194.453125 188.910156 194.695312 C 188.996094 194.765625 189.132812 194.855469 189.277344 194.816406 C 189.367188 194.996094 189.519531 194.957031 189.671875 194.9375 C 189.714844 194.976562 189.757812 195.015625 189.804688 195.054688 C 189.800781 195.082031 189.800781 195.105469 189.800781 195.132812 C 189.800781 195.15625 189.800781 195.183594 189.804688 195.207031 C 189.800781 195.183594 189.800781 195.15625 189.800781 195.132812 C 189.800781 195.105469 189.800781 195.082031 189.804688 195.054688 C 189.863281 195.050781 189.917969 195.050781 189.976562 195.046875 C 190.078125 195.082031 190.179688 195.140625 190.292969 195.101562 C 190.332031 195.105469 190.371094 195.109375 190.410156 195.113281 C 190.511719 195.179688 190.621094 195.214844 190.742188 195.164062 C 191.027344 195.195312 191.316406 195.265625 191.59375 195.117188 C 191.757812 195.261719 191.835938 195.09375 191.941406 195.019531 C 192.082031 194.976562 192.226562 194.933594 192.367188 194.890625 C 192.347656 194.816406 192.328125 194.746094 192.308594 194.675781 C 192.058594 194.550781 191.808594 194.421875 191.558594 194.296875 C 191.484375 194.207031 191.386719 194.175781 191.277344 194.199219 C 191.183594 193.894531 190.765625 194.027344 190.660156 193.738281 C 190.605469 193.605469 190.328125 193.539062 190.550781 193.332031 C 190.691406 193.128906 190.855469 193.242188 191.015625 193.292969 C 191.082031 193.390625 191.183594 193.40625 191.292969 193.394531 C 191.335938 193.441406 191.375 193.5 191.453125 193.480469 C 191.683594 193.734375 192.035156 193.785156 192.300781 193.980469 C 192.375 194.03125 192.445312 194.078125 192.519531 194.128906 C 192.519531 194.140625 192.523438 194.152344 192.523438 194.164062 C 192.523438 194.152344 192.519531 194.140625 192.519531 194.128906 C 192.640625 194.09375 192.71875 194.152344 192.792969 194.238281 C 192.894531 194.234375 192.992188 194.234375 193.089844 194.234375 C 193.335938 194.320312 193.585938 194.339844 193.839844 194.296875 C 193.949219 194.371094 194.011719 194.265625 194.089844 194.234375 C 194.160156 194.273438 194.257812 194.261719 194.292969 194.355469 C 194.84375 194.179688 195.265625 193.832031 195.613281 193.382812 C 195.703125 193.339844 195.789062 193.289062 195.734375 193.175781 C 195.695312 193.085938 195.625 193.144531 195.570312 193.171875 C 195.515625 193.113281 195.460938 193.054688 195.40625 192.992188 C 195.402344 192.96875 195.394531 192.945312 195.375 192.925781 C 195.351562 192.933594 195.328125 192.941406 195.304688 192.953125 C 195.167969 192.894531 194.992188 192.902344 194.945312 192.71875 C 194.921875 192.703125 194.898438 192.683594 194.875 192.667969 C 194.84375 192.660156 194.808594 192.652344 194.777344 192.644531 C 194.785156 192.636719 194.796875 192.628906 194.804688 192.625 C 194.796875 192.628906 194.785156 192.636719 194.777344 192.644531 L 194.769531 192.621094 C 194.730469 192.65625 194.695312 192.664062 194.660156 192.617188 C 194.367188 192.566406 194.257812 192.3125 194.097656 192.113281 C 193.933594 192.171875 193.875 191.945312 193.71875 191.972656 C 193.621094 191.910156 193.613281 191.742188 193.453125 191.757812 C 193.410156 191.714844 193.386719 191.644531 193.304688 191.660156 C 193.210938 191.574219 193.109375 191.507812 192.976562 191.496094 C 192.941406 191.457031 192.902344 191.417969 192.867188 191.378906 C 192.839844 191.335938 192.8125 191.292969 192.785156 191.246094 C 192.6875 191.242188 192.589844 191.238281 192.492188 191.234375 C 192.230469 190.925781 192.308594 190.757812 192.777344 190.636719 C 192.824219 190.773438 192.941406 190.761719 193.046875 190.769531 C 193.058594 190.789062 193.066406 190.8125 193.070312 190.832031 C 193.277344 190.921875 193.464844 191.058594 193.695312 191.089844 C 193.722656 191.160156 193.769531 191.195312 193.847656 191.1875 C 193.925781 191.289062 194.003906 191.386719 194.082031 191.488281 C 194.285156 191.492188 194.414062 191.625 194.554688 191.753906 C 194.875 192.050781 195.246094 192.273438 195.644531 192.449219 C 195.679688 192.410156 195.707031 192.410156 195.726562 192.464844 C 195.785156 192.511719 195.832031 192.578125 195.921875 192.558594 C 195.957031 192.519531 195.980469 192.523438 196.003906 192.570312 C 196.0625 192.597656 196.125 192.628906 196.1875 192.65625 C 196.226562 192.621094 196.257812 192.621094 196.28125 192.671875 C 196.304688 192.6875 196.324219 192.703125 196.339844 192.726562 C 196.386719 192.707031 196.421875 192.707031 196.445312 192.757812 C 197.226562 192.8125 197.867188 192.429688 198.519531 192.09375 C 198.625 192.039062 198.679688 191.917969 198.695312 191.789062 C 198.949219 191.445312 198.949219 191.445312 198.757812 191.332031 C 198.578125 191.222656 198.402344 191.113281 198.226562 191 C 198.195312 190.9375 198.160156 190.878906 198.074219 190.90625 C 197.84375 190.734375 197.613281 190.566406 197.382812 190.394531 C 197.339844 190.269531 197.242188 190.253906 197.128906 190.265625 C 197.023438 190.109375 196.855469 190.050781 196.691406 189.976562 C 196.667969 189.929688 196.632812 189.929688 196.585938 189.945312 C 196.324219 189.734375 196.0625 189.519531 195.800781 189.308594 C 195.6875 189.1875 195.578125 189.070312 195.464844 188.953125 C 195.441406 188.964844 195.417969 188.980469 195.398438 188.996094 C 195.351562 188.925781 195.304688 188.859375 195.257812 188.792969 C 195.0625 188.9375 195.035156 188.617188 194.878906 188.65625 C 194.84375 188.613281 194.808594 188.574219 194.769531 188.53125 C 194.714844 188.382812 194.566406 188.398438 194.453125 188.355469 C 194.285156 188.222656 194.171875 188.007812 193.921875 188.003906 C 193.832031 187.796875 193.578125 187.816406 193.453125 187.65625 C 193.425781 187.59375 193.394531 187.535156 193.308594 187.554688 C 192.972656 187.25 192.648438 186.882812 192.296875 186.664062 C 191.886719 186.410156 191.6875 186.007812 191.320312 185.757812 C 191.050781 185.621094 190.953125 185.347656 190.808594 185.117188 C 190.621094 184.871094 190.273438 184.707031 190.386719 184.304688 C 190.441406 183.832031 190.835938 183.742188 191.183594 183.644531 C 191.78125 183.480469 192.394531 183.554688 193.003906 183.585938 C 193.015625 183.566406 193.03125 183.550781 193.050781 183.539062 C 193.074219 183.554688 193.085938 183.574219 193.097656 183.601562 C 193.164062 183.632812 193.230469 183.613281 193.292969 183.578125 C 193.46875 183.550781 193.648438 183.519531 193.824219 183.492188 C 193.84375 183.507812 193.863281 183.527344 193.882812 183.542969 C 193.917969 183.550781 193.957031 183.554688 193.992188 183.5625 C 194.035156 183.53125 194.078125 183.496094 194.121094 183.464844 C 194.328125 183.421875 194.554688 183.492188 194.753906 183.367188 C 194.847656 183.335938 194.941406 183.289062 195.042969 183.332031 C 195.070312 183.375 195.097656 183.390625 195.140625 183.351562 C 195.246094 183.316406 195.339844 183.199219 195.460938 183.324219 C 195.488281 183.292969 195.515625 183.265625 195.542969 183.234375 C 195.566406 183.128906 195.625 183.097656 195.726562 183.148438 L 195.738281 183.1875 L 195.761719 183.21875 C 195.816406 183.1875 195.875 183.148438 195.851562 183.066406 Z M 194.816406 192.625 C 194.824219 192.625 194.835938 192.625 194.84375 192.628906 C 194.835938 192.625 194.828125 192.625 194.816406 192.625 Z M 192.527344 194.195312 C 192.535156 194.214844 192.539062 194.230469 192.546875 194.242188 C 192.539062 194.230469 192.535156 194.214844 192.527344 194.195312 Z M 203.003906 181.921875 Z M 203.121094 181.957031 C 203.191406 181.894531 203.199219 181.820312 203.160156 181.742188 C 203.199219 181.820312 203.191406 181.894531 203.121094 181.957031 C 203.097656 181.964844 203.078125 181.96875 203.058594 181.964844 C 203.078125 181.96875 203.097656 181.964844 203.121094 181.957031 Z M 211.230469 178.738281 C 211.25 178.738281 211.265625 178.738281 211.28125 178.738281 C 211.300781 178.734375 211.316406 178.730469 211.332031 178.726562 C 211.316406 178.730469 211.300781 178.734375 211.28125 178.738281 C 211.265625 178.738281 211.25 178.738281 211.230469 178.738281 Z M 213.832031 184.683594 C 213.820312 184.714844 213.816406 184.75 213.808594 184.78125 C 213.816406 184.75 213.824219 184.71875 213.832031 184.683594 Z M 202.867188 179.519531 C 202.824219 179.558594 202.757812 179.589844 202.796875 179.667969 C 202.839844 179.632812 202.882812 179.597656 202.929688 179.5625 C 202.910156 179.542969 202.886719 179.53125 202.867188 179.519531 Z M 202.492188 180.40625 C 202.523438 180.410156 202.550781 180.414062 202.582031 180.417969 C 202.558594 180.375 202.527344 180.363281 202.492188 180.40625 Z M 162.660156 180.953125 C 162.695312 180.953125 162.730469 180.953125 162.769531 180.949219 C 162.730469 180.921875 162.695312 180.914062 162.660156 180.953125 Z M 188.585938 179.890625 C 188.621094 179.894531 188.652344 179.902344 188.683594 179.910156 C 188.660156 179.863281 188.628906 179.851562 188.585938 179.890625 Z M 169.867188 181.667969 C 169.847656 181.679688 169.828125 181.695312 169.816406 181.71875 C 169.847656 181.722656 169.875 181.726562 169.90625 181.730469 C 169.898438 181.707031 169.886719 181.6875 169.867188 181.667969 Z M 168.320312 190.863281 C 168.320312 190.902344 168.320312 190.945312 168.320312 190.984375 C 168.351562 190.945312 168.363281 190.90625 168.320312 190.863281 Z M 174.90625 185.238281 C 174.941406 185.234375 174.980469 185.234375 175.019531 185.230469 C 175.003906 185.210938 174.984375 185.195312 174.964844 185.179688 C 174.945312 185.199219 174.925781 185.21875 174.90625 185.238281 Z M 179.71875 183.242188 C 179.753906 183.242188 179.789062 183.246094 179.828125 183.246094 C 179.789062 183.214844 179.753906 183.203125 179.71875 183.242188 Z M 188.453125 195.1875 C 188.453125 195.1875 188.453125 195.1875 188.453125 195.183594 C 188.449219 195.183594 188.449219 195.183594 188.445312 195.1875 Z M 182.089844 179.925781 C 182.0625 179.921875 182.03125 179.917969 182 179.910156 C 182.023438 179.957031 182.050781 179.96875 182.089844 179.925781 Z M 201.925781 191.035156 C 201.917969 191.039062 201.917969 191.058594 201.914062 191.070312 C 201.925781 191.074219 201.9375 191.078125 201.949219 191.082031 C 201.953125 191.070312 201.957031 191.058594 201.960938 191.046875 C 201.949219 191.042969 201.933594 191.035156 201.925781 191.035156 Z M 201.925781 191.035156 " fill-opacity="1" fill-rule="nonzero"/></g></g></g></svg>