<svg xmlns="http://www.w3.org/2000/svg" xmlns:xlink="http://www.w3.org/1999/xlink" width="500" zoomAndPan="magnify" viewBox="0 0 375 374.999991" height="500" preserveAspectRatio="xMidYMid meet" version="1.0"><defs><clipPath id="fb08f3eab4"><path d="M 33 137 L 345 137 L 345 240 L 33 240 Z M 33 137 " clip-rule="nonzero"/></clipPath><clipPath id="4bc7ffea04"><path d="M 233.21875 11.8125 L 368.535156 203.640625 L 141.773438 363.597656 L 6.457031 171.773438 Z M 233.21875 11.8125 " clip-rule="nonzero"/></clipPath><clipPath id="6791e868ad"><path d="M 233.21875 11.8125 L 368.535156 203.640625 L 141.773438 363.597656 L 6.457031 171.773438 Z M 233.21875 11.8125 " clip-rule="nonzero"/></clipPath></defs><g clip-path="url(#fb08f3eab4)"><g clip-path="url(#4bc7ffea04)"><g clip-path="url(#6791e868ad)"><path fill="#0f0f0f" d="M 306.132812 138.523438 C 306.128906 138.527344 306.117188 138.527344 306.109375 138.53125 C 306.109375 138.527344 306.097656 138.519531 306.09375 138.515625 C 306.085938 138.515625 306.132812 138.523438 306.132812 138.523438 Z M 142.753906 239.285156 C 142.75 239.28125 142.742188 239.28125 142.738281 239.273438 C 142.738281 239.273438 142.734375 239.277344 142.734375 239.277344 Z M 189.375 236.359375 C 189.375 236.359375 189.378906 236.363281 189.378906 236.363281 C 189.386719 236.363281 189.394531 236.367188 189.398438 236.363281 Z M 206.816406 149.144531 C 206.808594 149.136719 206.800781 149.132812 206.792969 149.125 C 206.78125 149.125 206.765625 149.132812 206.753906 149.132812 Z M 208.445312 220.121094 C 208.445312 220.121094 208.449219 220.128906 208.449219 220.128906 C 208.449219 220.128906 208.453125 220.125 208.457031 220.128906 Z M 341.582031 220.320312 C 341.550781 220.183594 341.492188 220.070312 341.398438 219.96875 C 341.257812 220.015625 341.148438 220.097656 341.070312 220.226562 C 336.097656 219.820312 331.175781 220.199219 326.28125 221.097656 C 325.890625 220.609375 325.4375 220.589844 324.9375 220.917969 C 323.613281 220.324219 322.304688 220.808594 321 220.992188 C 320.859375 220.730469 320.695312 220.6875 320.488281 220.921875 C 320.140625 220.945312 319.785156 220.96875 319.4375 220.992188 C 319.257812 220.804688 319.0625 220.738281 318.851562 220.960938 C 317.773438 221.671875 316.46875 221.007812 315.351562 221.535156 C 315.292969 221.652344 315.207031 221.738281 315.097656 221.804688 L 314.953125 221.648438 L 314.871094 221.457031 C 314.476562 221.183594 314.125 221.402344 313.769531 221.558594 C 312.941406 220.980469 311.730469 222.050781 311.027344 220.929688 C 310.582031 221.105469 310.222656 221.621094 309.640625 221.292969 C 306.589844 221.125 303.546875 221.28125 300.507812 221.582031 C 299.902344 221.339844 299.292969 221.105469 298.628906 221.386719 C 296.125 221.476562 293.628906 221.648438 291.128906 221.601562 C 290.542969 221.589844 290.175781 221.746094 289.734375 221.964844 C 289.355469 221.503906 288.914062 221.386719 288.386719 221.730469 C 287.769531 221.671875 287.152344 221.617188 286.535156 221.558594 C 286.015625 221.960938 285.59375 221.804688 285.242188 221.308594 C 284.46875 221.394531 283.679688 221.734375 282.910156 221.269531 C 282.800781 220.976562 282.628906 220.960938 282.417969 221.171875 C 278.839844 221.09375 275.261719 221.007812 271.683594 220.929688 C 269.179688 221.757812 268.234375 221.09375 267.25 217.824219 C 267.515625 215.824219 267.789062 213.828125 268.054688 211.828125 C 268.367188 211.417969 268.1875 211.324219 267.773438 211.378906 C 267.277344 211.222656 266.777344 211.058594 266.277344 210.90625 C 265.574219 209.902344 264.871094 208.898438 264.175781 207.890625 C 265.757812 207.566406 267.5 207.902344 268.890625 206.757812 C 267.628906 205.714844 268.570312 204.800781 269.0625 203.859375 C 268.972656 203.207031 269.113281 202.601562 269.382812 202.003906 C 268.390625 200.636719 269.578125 199.265625 269.425781 197.847656 C 269.3125 196.84375 268.746094 195.574219 269.722656 194.582031 C 269.613281 194.105469 269.507812 193.625 269.398438 193.148438 C 269.171875 192.9375 269.203125 192.773438 269.484375 192.648438 C 269.671875 191.914062 269.855469 191.179688 270.039062 190.445312 C 269.300781 189.777344 269.8125 189 269.855469 188.265625 C 269.707031 186.6875 269.710938 185.128906 270.332031 183.632812 C 270.253906 182.949219 270.183594 182.261719 270.105469 181.582031 C 270.464844 180.28125 270.097656 178.980469 270.136719 177.675781 C 269.925781 177.472656 269.960938 177.292969 270.183594 177.128906 C 270.886719 174.515625 269.703125 171.882812 270.289062 169.269531 C 269.75 168.832031 269.878906 168.429688 270.320312 168.035156 C 270.042969 167.496094 269.941406 166.964844 270.4375 166.472656 C 271.066406 165.476562 269.894531 164.207031 270.914062 163.273438 C 269.992188 161.984375 270.566406 160.6875 270.902344 159.394531 C 270.683594 157.285156 271.75 155.304688 271.453125 153.121094 C 271.34375 152.339844 271.402344 152.34375 270.679688 152.140625 C 268.960938 151.660156 267.195312 152.230469 265.515625 151.679688 C 264.035156 152.542969 262.324219 152.316406 260.742188 152.710938 C 260.515625 152.855469 260.328125 152.839844 260.183594 152.589844 C 257.589844 153.042969 254.972656 153.277344 252.34375 153.390625 C 251.832031 153.414062 251.417969 153.605469 251.367188 154.335938 C 251.066406 158.628906 247.519531 160.683594 244.480469 162.085938 C 242.039062 163.214844 239.710938 164.789062 237.066406 165.53125 C 230.945312 167.863281 224.65625 169.414062 218.066406 169.183594 C 216.007812 169.113281 213.957031 169.261719 211.917969 169.148438 C 210.171875 169.046875 208.585938 169.347656 207.078125 170.183594 C 207.0625 170.351562 207.042969 170.523438 207.027344 170.691406 C 208.703125 172.828125 210.371094 174.964844 212.046875 177.097656 C 212.53125 177 212.679688 177.34375 212.832031 177.6875 C 213.601562 178.421875 214.371094 179.15625 215.144531 179.894531 C 215.589844 179.785156 215.757812 180.144531 216 180.378906 C 216.234375 180.308594 216.4375 180.332031 216.550781 180.589844 C 219.140625 182.875 221.691406 185.203125 224.617188 187.058594 C 225.300781 186.949219 225.367188 187.648438 225.761719 187.921875 C 226.671875 188.285156 227.4375 188.839844 228.027344 189.625 C 228.265625 189.527344 228.46875 189.542969 228.574219 189.820312 C 228.957031 190.046875 229.363281 190.230469 229.710938 190.492188 C 233.304688 193.1875 236.886719 195.890625 240.46875 198.59375 C 240.960938 198.421875 241.136719 198.773438 241.320312 199.113281 C 244.558594 201.328125 248.015625 203.21875 251.210938 205.445312 C 253.386719 206.957031 255.363281 207.226562 257.816406 207.042969 C 259.929688 206.882812 262.148438 206.941406 264.183594 207.882812 C 264.886719 208.886719 265.589844 209.890625 266.285156 210.898438 C 264.226562 210.671875 262.167969 210.4375 260.109375 210.210938 C 260.023438 209.878906 259.847656 209.898438 259.636719 210.085938 C 258.972656 210.105469 258.285156 210.246094 257.644531 210.125 C 254.941406 209.609375 253.808594 210.03125 252.230469 213.160156 C 250.761719 216.074219 248.421875 217.527344 245.4375 218.082031 C 244.4375 218.265625 243.574219 218.609375 242.84375 219.160156 C 241.15625 220.421875 239.289062 220.261719 237.394531 220.121094 C 237.007812 219.667969 236.601562 219.460938 236.144531 220.035156 C 235.035156 220.597656 234.339844 221.570312 233.664062 222.566406 C 232.109375 224.851562 229.792969 226.234375 227.515625 227.660156 C 226.769531 228.125 226.089844 227.863281 225.382812 227.609375 C 224.503906 228.726562 223.3125 228.042969 222.3125 228.027344 C 219.238281 227.957031 217.300781 230.359375 214.714844 231.308594 C 214.335938 231.558594 213.957031 231.804688 213.578125 232.050781 C 212.214844 233.015625 210.5625 232.710938 209.058594 233.015625 C 206.621094 233.503906 204.535156 234.371094 202.71875 236.171875 C 201.773438 237.109375 200.25 237.472656 198.992188 238.097656 C 197.082031 239.90625 194.496094 238.789062 192.359375 239.640625 C 191.941406 239.410156 191.671875 239.691406 191.398438 239.933594 C 190.734375 239.820312 190.074219 239.714844 189.410156 239.597656 C 189.289062 239.3125 189.113281 239.292969 188.902344 239.5 C 188.429688 239.425781 187.964844 239.355469 187.492188 239.28125 C 187.382812 239.023438 187.234375 238.992188 187.042969 239.214844 C 186.367188 239.085938 185.6875 238.957031 185.007812 238.824219 C 184.878906 238.558594 184.675781 238.554688 184.441406 238.671875 C 183.945312 238.46875 183.445312 238.257812 182.949219 238.054688 C 182.71875 237.765625 182.507812 237.449219 182.058594 237.574219 C 181.011719 237.386719 179.96875 237.199219 178.917969 237.003906 C 177.964844 236.707031 177.003906 236.410156 176.050781 236.109375 C 175.757812 235.519531 175.25 235.222656 174.625 235.085938 C 174.066406 234.675781 173.546875 234.121094 172.753906 234.609375 C 172.097656 234.003906 171.441406 233.40625 170.785156 232.804688 C 170.652344 232.539062 170.472656 232.515625 170.253906 232.703125 C 168.863281 231.8125 167.472656 230.921875 166.082031 230.039062 C 164.753906 228.785156 163.605469 229.226562 162.53125 230.414062 C 161.558594 230.855469 160.589844 231.292969 159.617188 231.734375 C 159.230469 231.59375 158.839844 231.378906 158.421875 231.671875 C 157.800781 232.097656 157.179688 232.519531 156.554688 232.949219 C 155.875 233.035156 155.148438 232.667969 154.503906 233.15625 C 152.457031 233.488281 150.476562 233.972656 149.03125 235.632812 C 148.726562 235.992188 148.414062 236.34375 148.113281 236.699219 C 146.78125 237.449219 145.457031 238.195312 144.125 238.941406 C 143.519531 238.398438 143.195312 239.117188 142.738281 239.246094 C 142.179688 238.960938 141.628906 238.835938 141.144531 239.398438 C 140.074219 239.101562 138.804688 239.988281 137.878906 238.851562 C 137.609375 238.691406 137.34375 238.535156 137.074219 238.371094 C 136.949219 238.417969 136.828125 238.476562 136.714844 238.542969 L 136.566406 238.378906 L 136.503906 238.167969 C 135.75 237.214844 134.996094 236.261719 134.25 235.308594 C 134.132812 235.035156 133.964844 234.976562 133.71875 235.164062 L 133.640625 234.960938 C 133.234375 235.457031 132.78125 235.890625 132.140625 236.074219 C 130.371094 236.550781 128.734375 237.613281 126.78125 237.257812 C 126.660156 236.980469 126.488281 236.960938 126.277344 237.167969 C 126.035156 237.125 125.792969 237.074219 125.550781 237.027344 C 125.414062 236.765625 125.199219 236.753906 124.957031 236.855469 C 124.757812 236.824219 124.5625 236.785156 124.359375 236.746094 C 123.855469 235.890625 123.074219 236.414062 122.414062 236.355469 C 121.835938 235.328125 120.570312 234.777344 120.414062 233.460938 C 121.230469 233.058594 122.042969 232.660156 122.863281 232.261719 C 124.875 233.5625 126.945312 234.617188 129.457031 233.839844 C 130.816406 232.878906 132.171875 231.921875 133.53125 230.964844 C 133.78125 230.792969 134.03125 230.632812 134.285156 230.460938 C 134.523438 230.273438 134.765625 230.085938 135.003906 229.898438 C 135.535156 228.125 137.09375 227.039062 137.972656 225.496094 C 137.863281 225.253906 137.867188 225.054688 138.148438 224.929688 C 140.703125 221.863281 141.792969 217.90625 144.347656 214.839844 C 144.617188 214.703125 144.636719 214.519531 144.445312 214.304688 C 145.824219 210.933594 146.523438 207.289062 148.5625 204.183594 C 148.359375 203.96875 148.375 203.800781 148.660156 203.683594 C 149.339844 201.425781 150.160156 199.21875 150.667969 196.898438 C 151.269531 194.144531 150.285156 191.15625 148.042969 189.59375 C 147.929688 189.3125 147.761719 189.28125 147.546875 189.492188 C 146.578125 189.878906 145.425781 189.042969 144.542969 189.96875 C 144.167969 190.226562 143.796875 190.484375 143.421875 190.746094 C 137.109375 193.515625 135.046875 199.144531 133.652344 205.226562 C 133.171875 205.585938 133.0625 206.023438 133.359375 206.554688 C 130.96875 211.1875 130.234375 216.546875 127.085938 220.851562 C 126.90625 221.183594 126.726562 221.511719 126.546875 221.835938 C 126.253906 223.003906 125.742188 224.050781 124.863281 224.894531 C 124.800781 225.722656 124.035156 225.828125 123.515625 226.183594 C 123.3125 226.632812 123.269531 227.195312 122.671875 227.367188 C 122.605469 228.542969 120.507812 229.25 121.894531 230.761719 C 122.21875 231.261719 122.550781 231.757812 122.875 232.257812 C 122.054688 232.660156 121.242188 233.058594 120.425781 233.460938 C 120.25 233.210938 120.078125 232.960938 119.902344 232.710938 C 119.773438 232.621094 119.640625 232.53125 119.511719 232.441406 C 119.230469 231.816406 118.882812 231.558594 118.34375 232.203125 C 115.972656 234.402344 112.984375 233.882812 110.160156 234.089844 C 109.496094 234.167969 108.878906 234.035156 108.300781 233.699219 C 105.601562 233.609375 104.4375 231.613281 103.371094 229.601562 C 102.917969 228.75 102.636719 227.816406 101.929688 227.109375 C 101.824219 226.773438 101.648438 226.566406 101.265625 226.75 C 99.324219 227.535156 97.40625 227.261719 95.492188 226.671875 C 95.359375 226.414062 95.183594 226.390625 94.972656 226.574219 C 93.746094 226.648438 92.796875 225.972656 91.8125 225.390625 C 91.6875 225.105469 91.488281 225.113281 91.246094 225.234375 C 90.761719 224.839844 90.273438 224.449219 89.789062 224.058594 C 89.160156 223.203125 88.953125 221.972656 87.699219 221.675781 C 88.148438 221 87.960938 220.289062 87.710938 219.664062 C 87.960938 220.289062 88.148438 221 87.699219 221.675781 C 87.691406 221.6875 87.691406 221.695312 87.679688 221.703125 L 87.675781 221.703125 C 87.671875 221.707031 87.667969 221.710938 87.667969 221.710938 C 87.121094 221.421875 87.195312 222.046875 86.953125 222.203125 C 87.078125 222.464844 87.207031 222.726562 87.332031 222.988281 C 87.066406 223.214844 86.757812 223.425781 86.953125 223.859375 C 86.492188 224.648438 85.765625 224.855469 84.914062 224.78125 C 82.761719 224.589844 80.535156 225.539062 78.429688 224.421875 C 77.871094 224.738281 77.304688 224.730469 76.75 224.414062 C 76.152344 224.429688 75.578125 224.515625 75.109375 224.933594 C 74.320312 224.402344 73.480469 224.167969 72.554688 224.539062 C 71.375 223.90625 70.148438 224.230469 68.933594 224.359375 C 68.734375 224.289062 68.535156 224.226562 68.335938 224.15625 C 67.054688 224.15625 65.773438 224.152344 64.488281 224.152344 C 64.070312 224.078125 63.648438 224.003906 63.234375 223.933594 C 62.539062 223.785156 61.886719 223.890625 61.253906 224.207031 C 60.660156 223.613281 60.042969 223.332031 59.335938 224.039062 C 57.796875 223.316406 56.058594 224.425781 54.535156 223.527344 C 53.699219 224.195312 52.828125 224.339844 51.898438 223.730469 C 50.714844 224.472656 49.480469 224.601562 48.179688 224.050781 C 48.046875 223.777344 47.882812 223.746094 47.667969 223.96875 C 47.207031 223.890625 46.742188 223.8125 46.277344 223.730469 C 46.152344 223.4375 45.988281 223.425781 45.78125 223.648438 C 43.363281 223.664062 43.984375 221.179688 42.878906 220.121094 C 42.992188 219.972656 43.105469 219.824219 43.214844 219.679688 C 43.066406 219.273438 42.921875 218.867188 42.769531 218.460938 C 42.640625 218.367188 42.511719 218.269531 42.386719 218.175781 C 42.242188 217.925781 42.105469 217.679688 41.960938 217.429688 C 42.046875 217.328125 42.140625 217.234375 42.242188 217.148438 C 42.242188 216.496094 42.058594 215.902344 41.644531 215.390625 C 41.90625 215.015625 41.628906 214.710938 41.507812 214.382812 C 41.902344 213.5625 41.007812 213.242188 40.847656 212.640625 C 40.976562 212.480469 41.105469 212.328125 41.238281 212.167969 C 41.050781 211.433594 40.859375 210.703125 40.671875 209.96875 C 40.054688 209.152344 39.859375 208.214844 39.859375 207.214844 C 38.691406 205.570312 39.203125 203.421875 38.191406 201.730469 C 38.070312 201.671875 37.972656 201.585938 37.910156 201.464844 C 38.007812 201.355469 38.136719 201.289062 38.28125 201.265625 C 38.554688 200.816406 38.339844 200.503906 38.003906 200.21875 C 37.820312 199.632812 37.628906 199.042969 37.445312 198.457031 C 37.941406 197.695312 37.578125 197.046875 37.15625 196.410156 C 36.851562 195.300781 36.992188 194.09375 36.417969 193.046875 C 36.457031 192.828125 36.496094 192.613281 36.539062 192.394531 C 36.328125 192.171875 36.117188 191.953125 35.90625 191.730469 C 35.867188 191.574219 35.828125 191.414062 35.785156 191.261719 C 35.539062 190.152344 35.894531 188.90625 35.042969 187.933594 C 35.492188 186.832031 35.003906 185.792969 34.835938 184.734375 C 34.652344 184.132812 34.46875 183.53125 34.28125 182.929688 C 34.816406 182.167969 34.363281 181.554688 33.984375 180.929688 C 34.316406 180.382812 34.304688 179.851562 33.925781 179.335938 C 34.492188 178.363281 33.839844 177.667969 33.378906 176.925781 C 33.316406 175.84375 33.253906 174.769531 33.195312 173.6875 C 33.21875 172.933594 33.234375 172.179688 33.257812 171.429688 C 32.640625 169.078125 33.988281 166.976562 34.15625 164.726562 C 34.1875 164.34375 34.203125 164.015625 34.089844 163.671875 C 33.742188 163.054688 34.003906 162.617188 34.484375 162.230469 C 33.875 161.097656 35.101562 160.011719 34.570312 158.882812 C 34.351562 158.679688 34.382812 158.519531 34.660156 158.402344 C 34.730469 158.277344 34.824219 158.167969 34.929688 158.070312 C 34.84375 156.652344 34.855469 155.246094 35.339844 153.882812 C 35.628906 151.523438 36.585938 150.679688 39.601562 151.070312 C 41.773438 151.351562 43.835938 150.863281 45.949219 150.898438 C 46.589844 151.121094 47.171875 151.714844 47.933594 151.242188 C 48.003906 151.121094 48.101562 151.03125 48.234375 150.976562 C 48.339844 151.070312 48.402344 151.1875 48.433594 151.328125 C 48.835938 151.574219 49.167969 151.355469 49.515625 151.1875 C 49.742188 151.230469 49.96875 151.265625 50.195312 151.308594 C 50.398438 151.300781 50.601562 151.300781 50.804688 151.292969 C 52.105469 151.304688 53.410156 151.324219 54.710938 151.339844 C 54.835938 151.636719 55.058594 151.601562 55.300781 151.523438 C 55.527344 151.566406 55.753906 151.609375 55.980469 151.65625 C 56.1875 151.429688 56.359375 151.46875 56.492188 151.734375 C 57.078125 152.03125 57.671875 152.039062 58.269531 151.746094 C 58.457031 151.515625 58.609375 151.566406 58.726562 151.8125 C 60.945312 152.445312 63.25 152.027344 65.511719 152.296875 C 66.292969 152.390625 67.035156 152.582031 67.800781 152.710938 C 68.464844 152.457031 69.078125 152.679688 69.6875 152.925781 C 70.03125 152.914062 70.375 152.902344 70.71875 152.886719 C 70.921875 152.691406 71.089844 152.714844 71.210938 152.972656 C 71.738281 153.136719 72.269531 153.292969 72.796875 153.457031 C 73.035156 153.320312 73.28125 153.175781 73.519531 153.039062 C 73.722656 153.25 73.921875 153.453125 74.121094 153.664062 C 74.359375 153.53125 74.589844 153.394531 74.824219 153.261719 C 75.253906 153.332031 75.683594 153.40625 76.117188 153.472656 C 76.332031 153.28125 76.53125 153.335938 76.726562 153.515625 C 79.589844 153.929688 82.53125 153.703125 85.335938 154.59375 C 85.65625 154.378906 85.984375 154.25 86.34375 154.503906 C 86.46875 154.785156 86.6875 154.765625 86.933594 154.6875 C 87.355469 154.742188 87.777344 154.789062 88.199219 154.84375 C 88.414062 154.878906 88.628906 154.917969 88.847656 154.953125 C 89.023438 155.359375 89.308594 155.601562 89.78125 155.542969 C 89.941406 155.566406 90.097656 155.589844 90.261719 155.609375 C 90.761719 155.753906 91.238281 155.933594 91.539062 156.398438 L 91.4375 156.585938 C 91.582031 156.976562 91.722656 157.363281 91.867188 157.753906 C 91.558594 158.242188 90.582031 158.238281 90.800781 159.191406 C 91.535156 159.226562 92.25 159.261719 92.960938 159.292969 C 94.265625 160.050781 95.691406 159.855469 97.0625 159.664062 C 97.648438 159.585938 97.796875 160.027344 98.175781 160.136719 C 98.671875 160.484375 99.179688 160.429688 99.699219 160.183594 C 99.765625 160.042969 99.871094 159.941406 100.019531 159.882812 C 100.113281 159.988281 100.171875 160.109375 100.195312 160.246094 C 103.855469 160.617188 107.515625 160.988281 111.175781 161.359375 C 111.300781 161.636719 111.46875 161.660156 111.679688 161.449219 C 112.578125 161.726562 113.476562 162.023438 114.433594 161.730469 C 116.011719 162.464844 117.765625 162.210938 119.398438 162.648438 C 119.324219 162.746094 119.234375 162.839844 119.136719 162.914062 C 119.238281 162.835938 119.328125 162.75 119.398438 162.648438 C 119.609375 162.539062 119.820312 162.433594 120.03125 162.320312 C 120.121094 162.457031 120.214844 162.558594 120.3125 162.640625 C 120.21875 162.5625 120.121094 162.457031 120.03125 162.320312 C 120.175781 162.207031 120.316406 162.09375 120.460938 161.980469 C 119.867188 161.683594 118.996094 161.878906 118.703125 161.023438 C 118.808594 160.980469 118.917969 160.953125 119.019531 160.933594 C 118.917969 160.953125 118.808594 160.980469 118.703125 161.023438 C 117.058594 160.289062 115.410156 159.554688 113.769531 158.820312 C 113.144531 157.847656 111.929688 157.691406 111.15625 156.925781 C 111.042969 156.628906 110.863281 156.632812 110.648438 156.824219 C 108.683594 155.976562 107.160156 154.554688 105.722656 153.023438 C 104.800781 153.117188 104.925781 152.058594 104.339844 151.773438 C 104.144531 151.542969 103.945312 151.316406 103.746094 151.085938 C 103.257812 150.125 102.578125 149.253906 102.414062 148.152344 C 101.9375 147.570312 101.84375 146.914062 102.035156 146.203125 C 101.585938 145.5625 101.085938 144.941406 101.117188 144.089844 C 101.136719 143.871094 101.15625 143.65625 101.175781 143.4375 C 101.199219 142.882812 101.214844 142.332031 101.234375 141.773438 C 101.007812 141.5625 101.039062 141.394531 101.324219 141.273438 C 102.839844 138.277344 105.226562 137.511719 108.378906 138.335938 C 109.878906 138.730469 111.457031 138.8125 113.003906 139.042969 C 113.199219 139.261719 113.390625 139.476562 113.585938 139.695312 C 114.039062 139.589844 114.488281 139.480469 114.9375 139.371094 C 115.328125 139.625 115.71875 139.875 116.109375 140.132812 C 120.113281 140.855469 124.167969 141.355469 128.015625 142.777344 C 128.960938 142.867188 129.90625 142.964844 130.851562 143.054688 C 131.527344 142.914062 132.265625 143.261719 132.910156 142.804688 C 133.125 142.601562 133.296875 142.632812 133.429688 142.890625 C 134.1875 143.324219 134.964844 142.941406 135.730469 142.945312 C 135.933594 143.117188 136.140625 143.1875 136.359375 142.960938 C 137.054688 142.808594 137.792969 143.292969 138.464844 142.804688 C 138.65625 142.570312 138.816406 142.632812 138.953125 142.867188 C 139.410156 142.949219 139.867188 143.03125 140.324219 143.113281 C 141.675781 142.289062 143.289062 142.753906 144.699219 142.246094 C 145.355469 142.015625 145.949219 142.121094 146.496094 142.53125 C 147.097656 142.832031 147.484375 142.308594 147.972656 142.144531 C 148.183594 141.917969 148.355469 141.957031 148.492188 142.226562 C 153.613281 141.675781 158.710938 142.527344 163.816406 142.601562 C 164.03125 142.375 164.195312 142.40625 164.316406 142.6875 C 165.074219 143.144531 165.855469 142.703125 166.628906 142.746094 C 166.992188 143.195312 167.421875 143.304688 167.929688 142.980469 C 169.214844 143.550781 170.769531 142.984375 171.957031 143.960938 C 172.804688 143.769531 173.65625 143.566406 174.171875 144.566406 C 174.566406 144.640625 174.960938 144.710938 175.359375 144.785156 C 176.007812 144.90625 176.65625 145.023438 177.304688 145.148438 C 177.773438 144.988281 177.933594 145.398438 178.199219 145.625 C 179.789062 145.71875 181.128906 146.613281 182.609375 147.054688 C 183.335938 147.273438 183.867188 147.363281 184.429688 146.839844 C 185.734375 147.316406 186.792969 146.402344 187.976562 146.203125 C 189.828125 145.949219 191.683594 145.695312 193.539062 145.441406 C 193.71875 145.476562 193.894531 145.507812 194.070312 145.542969 C 196.503906 145.125 198.945312 144.828125 201.421875 144.832031 C 201.640625 144.65625 201.828125 144.667969 201.949219 144.949219 C 202.359375 145.203125 202.714844 144.921875 203.085938 144.828125 C 203.308594 144.617188 203.46875 144.6875 203.582031 144.945312 L 203.691406 144.8125 C 203.824219 145.105469 204.046875 145.097656 204.296875 145.007812 C 206.503906 145.226562 208.710938 145.15625 210.910156 144.902344 C 211.089844 144.675781 211.234375 144.730469 211.359375 144.960938 C 213.433594 144.980469 215.507812 145.007812 217.582031 145.027344 C 217.960938 145.511719 218.371094 145.695312 218.855469 145.15625 C 220.011719 145.6875 221.210938 145.8125 222.453125 145.554688 C 222.664062 145.335938 222.832031 145.375 222.960938 145.640625 C 223.9375 145.648438 224.914062 145.652344 225.894531 145.660156 C 226.785156 145.457031 227.664062 145.054688 228.582031 145.542969 C 230.480469 144.964844 232.445312 145.308594 234.375 145.183594 C 235.078125 145.132812 235.664062 145.003906 236.246094 144.675781 C 236.457031 144.457031 236.652344 144.53125 236.847656 144.695312 C 239.148438 145.167969 241.21875 143.417969 243.527344 143.992188 C 243.746094 143.78125 243.90625 143.847656 244.03125 144.097656 C 246.535156 143.683594 248.871094 143.8125 250.496094 146.15625 C 251.546875 146.824219 251.316406 148.140625 251.957031 149.019531 C 252.167969 149.226562 252.09375 149.429688 251.9375 149.628906 C 252 149.761719 252.089844 149.859375 252.21875 149.921875 C 252.480469 150.644531 252.992188 150.730469 253.636719 150.484375 C 253.796875 150.441406 253.957031 150.402344 254.113281 150.355469 C 254.320312 150.144531 254.488281 150.148438 254.585938 150.457031 C 258.257812 150.109375 261.859375 148.996094 265.597656 149.335938 C 267.132812 148.667969 268.90625 149.113281 270.40625 148.296875 C 270.570312 148.316406 270.734375 148.34375 270.898438 148.363281 C 271.632812 148.445312 272.351562 148.496094 272.835938 147.765625 C 272.117188 147.160156 272.496094 146.355469 272.460938 145.625 C 272.335938 145.152344 272.207031 144.679688 272.085938 144.207031 C 272.328125 144.015625 272.566406 143.820312 272.816406 143.625 C 272.976562 143.464844 273.148438 143.300781 273.3125 143.140625 C 273.214844 142.9375 273.121094 142.738281 273.027344 142.535156 C 273.921875 141.398438 273.367188 139.609375 274.765625 138.695312 C 274.789062 138.542969 274.878906 138.4375 275.023438 138.382812 C 275.507812 137.96875 275.644531 138.488281 275.890625 138.703125 C 276.785156 138.695312 277.675781 138.683594 278.566406 138.675781 C 278.964844 138.171875 279.355469 138.160156 279.738281 138.679688 C 280.390625 138.382812 281.058594 138.296875 281.75 138.457031 C 282.453125 137.902344 283.207031 137.734375 284.042969 138.152344 C 284.042969 138.152344 284.117188 138.152344 284.117188 138.152344 C 284.539062 138.125 284.925781 137.757812 285.371094 138.042969 C 285.859375 137.957031 286.339844 137.875 286.828125 137.789062 C 287.050781 137.585938 287.21875 137.640625 287.335938 137.902344 L 287.441406 137.773438 C 287.558594 138.070312 287.789062 138.0625 288.039062 137.972656 C 288.121094 138.058594 288.203125 138.148438 288.269531 138.242188 C 289.589844 137.851562 290.902344 138.007812 292.210938 138.28125 C 293.625 137.636719 295.074219 138.214844 296.507812 138.15625 C 296.710938 137.9375 296.878906 137.976562 297.011719 138.230469 C 298.230469 138.125 299.441406 138.027344 300.65625 137.917969 C 301.046875 138.386719 301.460938 138.570312 301.9375 138.015625 C 302.957031 137.816406 303.871094 138.707031 304.914062 138.289062 C 305.144531 138.089844 305.316406 138.132812 305.441406 138.410156 L 305.542969 138.285156 C 305.65625 138.566406 305.875 138.578125 306.113281 138.507812 C 306.308594 138.648438 306.507812 138.71875 306.703125 138.5 C 307.492188 138.363281 308.28125 138.21875 309.070312 138.078125 C 309.480469 138.492188 309.90625 138.664062 310.371094 138.140625 L 310.429688 138.289062 C 310.5 138.164062 310.597656 138.0625 310.730469 137.992188 C 310.847656 138.082031 310.953125 138.183594 311.042969 138.300781 C 311.242188 138.332031 311.4375 138.363281 311.636719 138.390625 C 311.960938 138.324219 312.28125 138.261719 312.605469 138.195312 C 313.273438 138.140625 313.945312 138.085938 314.613281 138.027344 L 314.746094 138.195312 L 314.847656 138.390625 C 315.253906 138.511719 315.613281 138.464844 315.898438 138.113281 L 315.957031 138.261719 C 316.167969 138.035156 316.359375 138.097656 316.554688 138.289062 C 316.984375 138.378906 317.414062 138.464844 317.84375 138.554688 C 317.9375 138.65625 318.03125 138.746094 318.128906 138.8125 C 318.03125 138.746094 317.9375 138.65625 317.84375 138.554688 C 318.59375 138.542969 319.351562 138.535156 320.101562 138.527344 C 321.066406 138.050781 321.9375 138.160156 322.703125 138.9375 C 323.28125 139.507812 323.652344 140.207031 323.871094 140.984375 C 324.015625 141.214844 324.167969 141.4375 324.320312 141.667969 C 324.15625 142.054688 324.351562 142.320312 324.601562 142.578125 C 325.5 145.445312 326.402344 148.308594 327.296875 151.179688 C 327.109375 151.363281 327.039062 151.5625 327.253906 151.777344 C 327.335938 152.117188 327.625 152.433594 327.375 152.8125 C 327.519531 153.074219 327.667969 153.335938 327.8125 153.597656 C 328.351562 154.070312 328.628906 154.636719 328.441406 155.367188 C 328.84375 156.296875 329.253906 157.230469 329.035156 158.289062 C 329.277344 159.023438 330.261719 159.433594 329.957031 160.402344 C 330.152344 160.859375 330.675781 161.214844 330.394531 161.816406 C 330.585938 162.402344 330.765625 162.984375 330.953125 163.566406 C 331.292969 163.960938 331.785156 164.296875 331.503906 164.941406 C 331.625 165.199219 331.742188 165.460938 331.863281 165.714844 C 332.101562 165.90625 332.027344 166.09375 331.859375 166.277344 C 332.046875 166.925781 332.386719 167.542969 332.183594 168.253906 C 332.453125 168.824219 333.199219 169.21875 332.847656 170.023438 C 333.027344 170.453125 333.652344 170.746094 333.285156 171.363281 C 333.761719 171.828125 333.324219 172.664062 333.96875 173.070312 C 334.203125 173.457031 334.433594 173.84375 334.671875 174.230469 C 334.609375 174.460938 334.546875 174.6875 334.484375 174.921875 C 333.933594 174.695312 333.546875 174.414062 333.292969 174.085938 C 333.191406 173.953125 333.109375 173.816406 333.054688 173.671875 C 333.117188 173.816406 333.191406 173.953125 333.292969 174.085938 C 333.546875 174.414062 333.933594 174.695312 334.484375 174.921875 C 334.71875 175.226562 334.953125 175.539062 335.1875 175.84375 C 335.03125 176.050781 334.867188 176.261719 334.707031 176.464844 C 335.128906 176.960938 334.699219 177.777344 335.355469 178.1875 C 335.488281 178.4375 335.628906 178.683594 335.769531 178.9375 C 335.621094 179.140625 335.550781 179.347656 335.773438 179.546875 C 335.855469 180.035156 336.484375 180.371094 336.183594 180.972656 C 336.367188 181.566406 336.550781 182.160156 336.734375 182.753906 C 337.191406 183.90625 337.65625 185.050781 338.113281 186.199219 C 338.054688 186.890625 337.902344 187.59375 338.507812 188.144531 C 339.09375 189.347656 339.097656 190.675781 339.359375 191.949219 C 339.089844 192.371094 339.367188 192.628906 339.636719 192.890625 C 339.816406 193.324219 340.003906 193.761719 340.179688 194.195312 C 340.628906 195.109375 340.667969 196.101562 340.742188 197.089844 C 341.445312 197.714844 341.582031 198.511719 341.460938 199.394531 C 341.820312 200.378906 342.175781 201.363281 342.535156 202.355469 C 342.703125 202.648438 342.867188 202.9375 343.03125 203.234375 C 343.375 203.910156 343.320312 204.617188 343.203125 205.328125 C 343.492188 205.71875 343.855469 206.085938 343.703125 206.640625 C 344.59375 207.707031 344.488281 208.808594 343.820312 209.933594 C 344.804688 210.835938 344.050781 211.941406 344.175781 212.949219 C 344.886719 213.480469 344.300781 214.234375 344.5 214.855469 C 344.289062 215.039062 344.070312 215.230469 343.859375 215.417969 C 344.039062 215.660156 344.222656 215.902344 344.402344 216.148438 C 344.402344 216.148438 344.242188 216.207031 344.242188 216.207031 C 344.457031 216.425781 344.4375 216.609375 344.15625 216.757812 L 344.292969 216.875 C 344.164062 216.949219 344.035156 217.027344 343.902344 217.109375 C 343.96875 217.222656 344.0625 217.3125 344.175781 217.375 C 344.121094 219.082031 343.769531 220.511719 341.582031 220.320312 Z M 123.394531 159.941406 C 123.6875 160.625 124.285156 160.621094 124.886719 160.609375 C 126.878906 161.027344 128.871094 161.453125 130.859375 161.875 C 131.179688 162.460938 131.621094 162.730469 132.285156 162.421875 C 133.164062 162.257812 133.675781 162.800781 134.167969 163.378906 C 134.429688 163.324219 134.6875 163.269531 134.949219 163.207031 C 135.6875 163.058594 136.066406 163.6875 136.605469 163.964844 C 136.609375 163.960938 136.648438 163.976562 136.652344 163.972656 C 136.5 164.296875 136.371094 164.664062 136.066406 164.75 C 136.371094 164.664062 136.496094 164.296875 136.652344 163.972656 C 137.449219 162.996094 138.195312 164.082031 138.96875 164.027344 C 139.167969 163.804688 139.324219 163.84375 139.457031 164.101562 C 141.152344 165.035156 142.832031 165.097656 144.480469 163.988281 C 144.683594 163.996094 144.878906 164 145.085938 164.003906 C 148.835938 163.292969 151.804688 161.132812 154.683594 158.8125 C 155.175781 158.46875 155.671875 158.117188 156.164062 157.769531 C 156.65625 157.421875 157.15625 157.078125 157.648438 156.730469 C 158.257812 156.554688 158.875 156.375 159.488281 156.199219 C 159.828125 155.894531 160.164062 155.585938 160.503906 155.273438 C 160.84375 155.21875 161.152344 154.878906 161.53125 155.140625 C 164.234375 153.863281 166.890625 152.488281 169.917969 152.113281 C 170.300781 151.867188 170.683594 151.617188 171.0625 151.367188 C 172.308594 150.210938 174.289062 151.074219 175.46875 149.753906 C 177.46875 149.667969 177.203125 148.800781 176.1875 147.675781 C 175.726562 147.789062 175.261719 147.894531 174.796875 148.003906 C 174.484375 147.867188 174.171875 147.730469 173.863281 147.589844 C 173.722656 147.34375 173.546875 147.304688 173.335938 147.5 C 171.523438 147.289062 169.730469 146.855469 167.949219 146.523438 C 164.828125 145.949219 161.632812 146.457031 158.570312 145.632812 C 158.464844 145.347656 158.300781 145.320312 158.101562 145.542969 C 157.933594 145.582031 157.769531 145.621094 157.601562 145.660156 C 157.441406 145.632812 157.269531 145.601562 157.109375 145.574219 C 153.054688 145.082031 149.035156 146.152344 144.988281 145.855469 C 144.621094 146.085938 144.265625 146.316406 143.902344 146.546875 C 143.542969 146.039062 143.109375 145.921875 142.578125 146.277344 C 142.503906 146.1875 142.429688 146.105469 142.347656 146.027344 C 141.523438 146.546875 140.699219 147.066406 139.734375 146.328125 C 138.949219 146.464844 138.160156 146.597656 137.375 146.730469 C 137.171875 146.5625 136.957031 146.5 136.734375 146.703125 C 136.5 146.667969 136.257812 146.632812 136.023438 146.597656 C 135.878906 146.34375 135.714844 146.292969 135.503906 146.523438 C 135.074219 146.589844 134.644531 146.699219 134.207031 146.714844 C 130.582031 146.832031 127.117188 145.667969 123.550781 145.324219 C 123.34375 145.539062 123.175781 145.507812 123.050781 145.238281 C 122.914062 145.148438 122.777344 145.0625 122.636719 144.96875 C 122.371094 144.292969 121.988281 144.238281 121.488281 144.746094 C 121.355469 144.738281 121.234375 144.78125 121.136719 144.871094 C 120.597656 144.480469 120.121094 143.949219 119.34375 144.074219 C 114.921875 143.09375 110.503906 142.109375 106.085938 141.132812 C 105.953125 140.886719 105.792969 140.832031 105.59375 141.058594 C 104.859375 141.273438 104.792969 141.832031 104.867188 142.460938 C 104.097656 143.019531 103.738281 143.617188 104.660156 144.359375 C 104.6875 144.757812 104.71875 145.164062 104.75 145.558594 C 105.699219 149.246094 107.796875 152 111.226562 153.769531 C 113.628906 155.007812 116.238281 155.9375 118.128906 158.015625 C 118.933594 158.273438 120.039062 157.253906 120.589844 158.589844 C 121.710938 158.664062 122.417969 159.585938 123.394531 159.941406 Z M 135.984375 164.769531 C 136.007812 164.765625 136.03125 164.761719 136.054688 164.753906 C 136.03125 164.761719 136.007812 164.765625 135.984375 164.769531 Z M 120.777344 161.722656 C 120.777344 161.722656 120.777344 161.730469 120.777344 161.730469 Z M 120.757812 161.816406 L 120.761719 161.792969 C 120.757812 161.804688 120.757812 161.816406 120.757812 161.816406 Z M 118.4375 163.328125 C 118.613281 163.242188 118.792969 163.148438 118.953125 163.050781 C 118.796875 163.15625 118.617188 163.238281 118.4375 163.328125 Z M 86.617188 220.25 C 86.625 220.097656 86.628906 219.9375 86.632812 219.785156 C 86.632812 219.933594 86.628906 220.09375 86.617188 220.25 Z M 101.316406 223.019531 C 102.175781 222.34375 102.152344 220.878906 103.15625 220.164062 C 103.058594 219.542969 103.15625 219.007812 103.835938 218.753906 C 104.125 218.171875 104.410156 217.589844 104.699219 217 C 106.984375 212.558594 109.859375 208.414062 111.421875 203.609375 C 111.726562 202.6875 112.785156 202.484375 113.386719 201.832031 C 112.816406 201.113281 113.085938 200.476562 113.519531 199.796875 C 116.054688 195.863281 117.792969 191.453125 120.703125 187.738281 C 120.648438 186.917969 120.988281 186.332031 121.769531 186.03125 C 121.648438 185.023438 121.636719 184.078125 122.0625 183.066406 C 123.0625 180.726562 121.484375 179.210938 119.933594 177.941406 C 118.539062 176.796875 117.195312 177.707031 115.847656 178.5 C 112.867188 180.261719 110.5625 182.636719 108.785156 185.582031 C 105.484375 191.03125 101.136719 195.714844 97.445312 200.882812 C 97 201.503906 96.699219 202.125 96.40625 202.789062 C 96.5625 203.015625 96.550781 203.207031 96.28125 203.335938 C 96.15625 204.546875 94.945312 204.984375 94.371094 205.941406 C 93.175781 207.925781 92.355469 210.1875 90.664062 211.867188 C 90.171875 212.75 90.90625 213.972656 89.867188 214.699219 C 89.582031 214.824219 89.5625 214.996094 89.777344 215.207031 C 89.730469 215.429688 89.691406 215.652344 89.648438 215.875 C 89.730469 218.550781 90.78125 220.75 92.871094 222.4375 C 93.183594 222.757812 93.5 223.078125 93.808594 223.394531 C 94.789062 223.101562 95.566406 223.703125 96.347656 224.0625 C 98.304688 224.972656 99.90625 224.125 101.316406 223.019531 Z M 132.699219 197.664062 C 132.609375 197.421875 132.613281 197.207031 132.875 197.070312 C 133.558594 196.625 133.484375 195.757812 133.695312 195.15625 C 134.765625 192.105469 136.527344 189.269531 136.765625 185.941406 C 136.5625 185.726562 136.597656 185.554688 136.851562 185.421875 C 136.207031 181.753906 133.171875 180.429688 129.980469 182.429688 C 127.582031 183.933594 125.386719 185.664062 123.75 188.015625 C 123.855469 188.5 123.496094 188.640625 123.167969 188.796875 C 121.957031 191.71875 120.089844 194.238281 118.3125 196.8125 C 118.351562 196.972656 118.386719 197.136719 118.425781 197.296875 C 118.136719 197.5 117.84375 197.699219 117.550781 197.90625 C 117.53125 198.53125 117.480469 199.132812 116.777344 199.398438 C 116.421875 200.367188 116.273438 201.445312 115.421875 202.167969 C 113.089844 207.648438 110.199219 212.832031 107.140625 217.933594 C 107.835938 219.734375 106.484375 220.890625 105.722656 222.179688 C 104.035156 225.039062 106.289062 229.484375 109.464844 230.167969 C 111.457031 230.59375 113.25 229.726562 115.132812 230.085938 C 116.210938 229.269531 117.292969 228.457031 118.371094 227.644531 C 118.746094 226.742188 119.5625 226.25 120.253906 225.640625 C 121.792969 223.269531 123.609375 221.0625 124.5625 218.355469 C 124.441406 218.109375 124.472656 217.90625 124.746094 217.78125 C 125.089844 217.492188 125.433594 217.195312 125.777344 216.90625 C 125.664062 216.234375 125.875 215.625 126.113281 215.019531 C 127.617188 212.53125 128.507812 209.78125 129.539062 207.09375 C 129.300781 206.890625 129.34375 206.730469 129.613281 206.605469 C 131.175781 203.804688 131.453125 200.5625 132.699219 197.664062 Z M 143.296875 234.507812 L 143.136719 234.351562 L 143.035156 234.152344 C 143.652344 233.738281 144.265625 233.332031 144.878906 232.921875 C 148.667969 231.910156 151.066406 229.277344 152.929688 226.027344 C 152.726562 225.84375 152.742188 225.703125 153.007812 225.613281 C 153.417969 225.1875 153.785156 224.769531 154.050781 224.207031 C 156.15625 219.679688 158.480469 215.257812 160.207031 210.558594 C 160.898438 210.117188 160.570312 209.234375 161.03125 208.695312 C 160.957031 208.570312 160.890625 208.441406 160.84375 208.304688 C 160.941406 208.207031 161.0625 208.144531 161.195312 208.125 C 161.679688 205.890625 162.6875 203.773438 162.6875 201.429688 C 162.460938 201.222656 162.496094 201.058594 162.769531 200.933594 C 163.152344 199.851562 163.269531 198.761719 163.078125 197.621094 C 162.597656 194.777344 161.097656 193.523438 158.484375 194.425781 C 155.78125 195.363281 153.039062 196.59375 152.785156 200.128906 C 152.386719 200.492188 152.03125 200.863281 152.570312 201.386719 C 151.992188 202.933594 151.417969 204.488281 150.839844 206.035156 C 150.566406 206.175781 150.570312 206.347656 150.769531 206.554688 L 150.601562 206.617188 C 150.808594 206.824219 150.800781 206.992188 150.527344 207.128906 C 149.941406 207.894531 149.292969 208.628906 149.605469 209.714844 C 148.910156 209.972656 148.792969 210.515625 148.886719 211.164062 C 148.761719 211.257812 148.675781 211.375 148.609375 211.511719 C 148.375 211.628906 148.324219 211.769531 148.539062 211.957031 C 147.492188 213.121094 147.410156 214.6875 146.820312 216.042969 C 146.5625 216.175781 146.511719 216.355469 146.714844 216.582031 C 146.085938 218.578125 144.886719 220.265625 143.835938 222.039062 C 143.5625 222.15625 143.527344 222.371094 143.605469 222.628906 C 141.875 224.792969 140.148438 226.960938 138.417969 229.125 C 138.484375 229.382812 138.472656 229.605469 138.191406 229.738281 C 137.953125 230.191406 137.734375 230.660156 137.46875 231.097656 C 135.8125 233.796875 135.984375 234.230469 138.59375 235.9375 C 139.84375 236.753906 140.691406 235.808594 141.722656 235.660156 C 143.101562 236.457031 143.148438 235.421875 143.296875 234.507812 Z M 161.007812 227.246094 C 161.3125 226.636719 159.199219 225.898438 158.40625 224.960938 C 158.320312 224.855469 158.128906 224.855469 158.007812 224.78125 C 157.394531 224.394531 156.851562 224.699219 156.8125 225.238281 C 156.691406 226.933594 155.128906 227.765625 154.34375 229.71875 C 155.5 229.308594 156.34375 229.332031 157.0625 229.195312 C 158.527344 228.902344 160.355469 228.53125 161.007812 227.246094 Z M 233.667969 163.023438 C 234.066406 163.070312 234.460938 163.125 234.863281 163.171875 C 235.738281 162.894531 236.242188 161.863281 237.304688 161.972656 C 238.078125 161.5 238.855469 161.019531 239.632812 160.546875 C 240.804688 160.125 242.046875 159.832031 243.148438 159.261719 C 246.007812 157.777344 248.375 155.863281 248.269531 152.203125 C 248.957031 151.648438 248.539062 151.007812 248.425781 150.382812 C 248.203125 149.992188 247.980469 149.601562 247.757812 149.210938 C 248.230469 147.898438 246.679688 148.148438 246.382812 147.425781 C 246.257812 147.484375 246.164062 147.582031 246.089844 147.691406 C 243.269531 147.464844 240.527344 148.070312 237.765625 148.496094 C 237.601562 148.300781 237.421875 148.210938 237.21875 148.449219 C 236.832031 148.667969 236.453125 148.886719 236.066406 149.105469 C 234.796875 148.738281 233.539062 148.527344 232.386719 149.453125 C 231.554688 149.03125 230.667969 149.230469 229.800781 149.222656 C 228.492188 149.210938 227.164062 149.769531 225.878906 149.105469 C 225.765625 148.84375 225.617188 148.8125 225.421875 149.027344 C 223.828125 149.101562 222.21875 148.984375 220.65625 149.476562 C 220.140625 149.007812 219.601562 149.050781 219.054688 149.421875 C 217.554688 148.441406 215.929688 148.757812 214.3125 148.949219 C 214.113281 148.78125 213.914062 148.730469 213.714844 148.941406 C 212.074219 149.5 210.421875 148.167969 208.785156 148.96875 C 208.101562 148.765625 207.445312 148.949219 206.789062 149.128906 C 205.628906 148.085938 204.34375 148.152344 203.003906 148.714844 C 201.800781 148.847656 200.53125 147.929688 199.382812 148.945312 C 198.410156 147.988281 197.5625 148.71875 196.6875 149.136719 C 194.777344 148.488281 193.019531 149.378906 191.203125 149.6875 C 190.75 149.320312 190.292969 149.15625 189.851562 149.710938 C 187.246094 150.199219 184.632812 150.6875 182.019531 151.171875 C 181.875 151.101562 181.753906 151.050781 181.648438 151.039062 C 181.753906 151.050781 181.875 151.101562 182.019531 151.171875 C 181.773438 151.347656 181.523438 151.523438 181.277344 151.699219 C 180.675781 152.167969 180.0625 152.535156 179.304688 152.015625 C 178.800781 152.316406 178.292969 152.613281 177.792969 152.910156 C 177.382812 152.808594 177.113281 153.03125 176.871094 153.3125 C 176.511719 153.375 176.148438 153.445312 175.789062 153.507812 C 175.867188 153.296875 175.957031 153.097656 176.054688 152.910156 C 175.964844 153.09375 175.875 153.292969 175.789062 153.507812 C 174.757812 154.441406 173.183594 153.464844 172.195312 154.535156 C 171.925781 154.679688 171.652344 154.820312 171.386719 154.957031 C 171.0625 155.140625 170.746094 155.421875 170.402344 155.492188 C 165.507812 156.4375 161.492188 159.402344 157.015625 161.304688 C 156.300781 161.6875 155.457031 161.929688 155.273438 162.898438 C 154.214844 163.171875 153.640625 164.136719 152.746094 164.648438 C 152.152344 164.449219 151.785156 164.804688 151.425781 165.1875 C 148.808594 166.90625 145.671875 166.96875 142.792969 167.863281 C 142.617188 167.675781 142.425781 167.617188 142.222656 167.828125 C 140.183594 167.550781 138.136719 167.269531 136.097656 166.992188 C 135.546875 166.664062 135 166.664062 134.460938 167.019531 C 133.71875 166.824219 132.980469 166.636719 132.238281 166.445312 C 132.230469 166.289062 132.164062 166.15625 132.039062 166.054688 C 131.914062 166.109375 131.796875 166.179688 131.6875 166.257812 C 130.605469 166.273438 129.515625 166.289062 128.429688 166.304688 C 128.429688 166.304688 128.453125 166.300781 128.453125 166.300781 C 126.578125 165.808594 124.542969 166.339844 122.734375 165.425781 C 122.410156 165.644531 122.082031 165.871094 121.683594 165.582031 C 121.5625 165.3125 121.351562 165.3125 121.113281 165.40625 C 121.019531 165.308594 120.917969 165.21875 120.820312 165.132812 C 119.964844 166.304688 118.777344 164.554688 117.894531 165.46875 C 117.710938 165.257812 117.527344 165.042969 117.347656 164.832031 C 117.089844 164.960938 116.832031 165.09375 116.570312 165.222656 C 115.953125 165.132812 115.335938 165.042969 114.71875 164.949219 C 114.269531 164.902344 113.816406 164.855469 113.367188 164.800781 C 113.238281 164.53125 113.078125 164.492188 112.871094 164.71875 C 112.726562 164.753906 112.589844 164.800781 112.460938 164.875 C 111.921875 164.707031 111.382812 164.53125 110.84375 164.363281 C 110.714844 164.097656 110.554688 164.0625 110.347656 164.28125 C 110.003906 164.292969 109.660156 164.308594 109.320312 164.320312 C 106.980469 163.953125 104.636719 163.660156 102.265625 163.753906 C 100.308594 162.972656 98.15625 163.886719 96.207031 163.046875 C 96.003906 162.878906 95.808594 162.820312 95.597656 163.042969 C 93.6875 162.648438 91.742188 162.59375 89.792969 162.582031 C 89.40625 162.328125 88.984375 162.242188 88.53125 162.363281 C 88.425781 162.269531 88.320312 162.175781 88.214844 162.089844 C 85.429688 164.019531 84.921875 167.167969 84.160156 170.085938 C 83.261719 173.523438 83.328125 177.179688 81.855469 180.5 C 81.570312 180.621094 81.546875 180.78125 81.78125 180.980469 C 81.800781 181.121094 81.84375 181.257812 81.910156 181.390625 C 81.714844 181.59375 81.683594 181.796875 81.902344 182.003906 C 81.714844 183.09375 81.535156 184.1875 81.34375 185.28125 C 81.066406 185.402344 81.027344 185.566406 81.269531 185.769531 C 81.109375 187.179688 80.953125 188.585938 80.792969 189.996094 C 80.90625 190.226562 80.949219 190.441406 80.660156 190.589844 C 80.816406 192.972656 79.980469 195.359375 80.609375 197.734375 C 81.335938 200.484375 81.136719 203.332031 81.511719 206.113281 C 81.503906 206.332031 81.503906 206.554688 81.5 206.777344 C 81.515625 207.3125 81.53125 207.839844 81.546875 208.378906 C 81.410156 208.40625 81.296875 208.472656 81.199219 208.5625 L 81.304688 208.753906 L 81.484375 208.875 C 81.929688 209.832031 82.828125 210.738281 81.773438 211.839844 C 81.496094 212.828125 82.824219 213.625 82.113281 214.667969 C 81.679688 215.300781 82.085938 215.359375 82.578125 215.359375 C 82.757812 215.585938 82.945312 215.8125 83.125 216.035156 L 83.300781 216.074219 C 83.640625 216.125 83.980469 216.183594 84.320312 216.234375 C 84.644531 216.105469 84.949219 215.804688 85.335938 216.085938 C 85.5625 215.957031 85.792969 215.835938 86.027344 215.707031 C 86.550781 216.277344 87.132812 216.445312 87.808594 215.960938 C 87.757812 215.46875 87.707031 214.980469 87.65625 214.488281 L 87.484375 214.359375 L 87.378906 214.171875 C 87.480469 214.078125 87.597656 214.023438 87.730469 214.003906 C 87.859375 213.683594 87.988281 213.363281 88.117188 213.042969 C 87.792969 212.527344 87.722656 212.082031 88.4375 211.84375 C 88.644531 211.648438 88.851562 211.453125 89.0625 211.261719 C 88.90625 210.78125 88.300781 210.371094 88.578125 209.847656 C 89.957031 207.203125 91.09375 204.402344 93.359375 202.316406 C 93.597656 202.125 93.839844 201.941406 94.078125 201.753906 C 94.5 199.695312 96.101562 198.320312 97.078125 196.578125 C 97.414062 196.402344 97.652344 196.175781 97.582031 195.75 C 99.054688 194.800781 99.414062 192.929688 100.777344 191.878906 C 100.734375 191.742188 100.703125 191.601562 100.683594 191.460938 C 100.832031 191.144531 100.984375 190.828125 101.128906 190.523438 C 101.40625 190.386719 101.683594 190.253906 101.957031 190.121094 C 103.050781 189.355469 103.34375 188.035156 104.085938 187.03125 C 104.71875 186.558594 105.351562 186.085938 105.984375 185.613281 C 106.023438 185.386719 106.058594 185.167969 106.097656 184.945312 C 106.324219 184.683594 106.71875 184.507812 106.570312 184.042969 C 108.636719 180.921875 111.460938 178.519531 114.152344 175.980469 C 114.890625 176.078125 115.324219 175.570312 115.792969 175.144531 C 115.953125 175.105469 116.117188 175.070312 116.28125 175.03125 C 116.34375 174.898438 116.4375 174.804688 116.566406 174.734375 C 116.691406 174.820312 116.777344 174.941406 116.8125 175.09375 C 117.203125 175.332031 117.554688 175.132812 117.914062 174.988281 C 118.121094 174.976562 118.332031 174.96875 118.539062 174.957031 C 119.757812 174.242188 120.527344 175.226562 121.421875 175.722656 C 121.613281 176 121.773438 176.304688 122.179688 176.289062 C 122.84375 176.929688 123.507812 177.574219 124.171875 178.21875 C 125.128906 179.195312 124.644531 180.671875 125.382812 181.726562 C 125.566406 181.941406 125.761719 182.15625 125.945312 182.371094 C 125.703125 182.46875 125.539062 182.488281 125.433594 182.460938 C 125.390625 182.449219 125.359375 182.433594 125.335938 182.402344 C 125.359375 182.425781 125.398438 182.445312 125.433594 182.460938 C 125.535156 182.492188 125.699219 182.464844 125.945312 182.371094 C 126.460938 181.816406 126.980469 181.269531 127.496094 180.714844 C 127.65625 180.683594 127.816406 180.652344 127.972656 180.617188 C 128.601562 180.160156 129.066406 179.390625 130.019531 179.5625 C 132.890625 178.363281 135.453125 179.324219 137.96875 180.667969 C 139.703125 182.273438 139.648438 184.449219 139.828125 186.550781 C 139.964844 186.625 140.058594 186.734375 140.101562 186.886719 C 139.988281 186.980469 139.859375 187.042969 139.707031 187.082031 L 139.839844 187.183594 C 138.441406 187.773438 140.289062 188.988281 139.355469 189.667969 C 139.425781 189.851562 139.496094 190.03125 139.5625 190.210938 C 139.261719 190.1875 139.125 190.097656 139.171875 189.941406 C 139.128906 190.101562 139.261719 190.1875 139.5625 190.210938 C 140.507812 190.304688 140.457031 189.257812 141.042969 188.933594 C 142.871094 187.722656 145.039062 187.335938 147.011719 186.484375 C 147.410156 187.25 148.277344 187.015625 148.871094 187.363281 C 149.074219 188.070312 149.738281 187.777344 150.183594 187.972656 C 150.503906 188.160156 150.820312 188.347656 151.140625 188.535156 C 151.835938 189.5 152.527344 190.472656 153.222656 191.441406 C 153.246094 192.296875 152.984375 193.199219 153.613281 193.964844 C 154.058594 194.292969 154.191406 193.953125 154.328125 193.628906 C 154.585938 193.46875 154.847656 193.304688 155.101562 193.136719 C 157.378906 192.523438 159.503906 191.09375 162.035156 191.882812 C 162.207031 192.21875 162.355469 192.59375 162.859375 192.492188 C 163.484375 193.125 164.113281 193.761719 164.738281 194.394531 C 164.542969 195.304688 165.429688 195.859375 165.476562 196.691406 C 166.046875 197.898438 165.667969 199.160156 165.679688 200.394531 C 165.5625 200.679688 165.449219 200.96875 165.335938 201.253906 C 165.46875 201.507812 165.605469 201.761719 165.742188 202.023438 C 165.613281 202.328125 165.480469 202.628906 165.351562 202.933594 C 165.070312 204.390625 164.789062 205.839844 164.503906 207.296875 C 163.710938 208.089844 164.234375 209.265625 163.675781 210.125 C 163.382812 210.367188 163.0625 210.589844 163.195312 211.054688 C 163.371094 211.257812 163.40625 211.445312 163.121094 211.585938 C 162.628906 212.140625 162.796875 212.828125 162.734375 213.464844 C 162.328125 213.929688 161.644531 214.28125 162.117188 215.078125 C 162 215.132812 161.925781 215.226562 161.894531 215.351562 C 161.558594 215.519531 161.222656 215.683594 161.292969 216.152344 C 160.960938 216.628906 160.628906 217.101562 160.296875 217.578125 C 160.347656 217.84375 160.324219 218.078125 160.019531 218.183594 C 159.796875 218.464844 159.410156 218.65625 159.527344 219.105469 C 159.574219 220.320312 158.410156 221.859375 160.457031 222.53125 C 160.882812 222.738281 161.296875 222.945312 161.722656 223.15625 C 161.804688 224 162.546875 223.707031 163.007812 223.894531 C 163.933594 224.851562 165.109375 225.425781 166.238281 226.078125 C 166.484375 226.851562 167.210938 226.78125 167.792969 226.980469 C 168.066406 227.273438 168.34375 227.570312 168.617188 227.863281 C 169.207031 228.085938 169.929688 228.082031 170.183594 228.835938 C 172.136719 229.976562 173.976562 231.355469 176.296875 231.71875 C 176.742188 232.667969 177.632812 232.453125 178.410156 232.519531 C 178.640625 232.769531 178.859375 233.039062 179.257812 232.976562 C 179.707031 233.554688 180.167969 234.117188 181.035156 233.78125 L 181.089844 233.953125 C 181.308594 233.773438 181.488281 233.769531 181.617188 234.046875 C 181.957031 234.179688 182.304688 234.3125 182.644531 234.445312 C 182.765625 234.746094 182.988281 234.75 183.246094 234.644531 C 184.386719 234.863281 185.375 235.6875 186.621094 235.527344 C 187.359375 236.4375 188.421875 236.261719 189.40625 236.351562 C 189.757812 236.882812 190.191406 236.96875 190.707031 236.578125 C 190.902344 236.597656 191.105469 236.617188 191.304688 236.640625 C 192.796875 237.222656 194.316406 235.839844 195.808594 236.695312 C 196.421875 236.527344 196.800781 235.785156 197.566406 236.015625 C 198.105469 235.703125 198.644531 235.398438 198.863281 234.757812 C 199.464844 234.554688 200.191406 234.695312 200.640625 234.089844 C 200.8125 233.8125 201.007812 233.863281 201.21875 234.039062 C 201.804688 233.882812 202.40625 233.742188 202.085938 232.902344 C 200.117188 232.972656 198.375 231.75 196.390625 231.90625 C 195.652344 230.839844 194.480469 230.546875 193.339844 230.199219 C 193.234375 229.929688 193.035156 229.914062 192.800781 229.976562 C 192.292969 229.253906 191.777344 228.535156 191.269531 227.816406 C 192.496094 226.726562 193.6875 225.964844 195.308594 227.308594 C 195.777344 227.695312 196.53125 228.175781 197.339844 227.972656 C 197.824219 228.953125 198.679688 228.75 199.503906 228.648438 C 199.75 228.859375 200 229.070312 200.242188 229.28125 C 200.234375 229.429688 200.226562 229.570312 200.222656 229.714844 C 200.226562 229.851562 200.234375 229.988281 200.25 230.121094 C 200.230469 229.992188 200.222656 229.855469 200.222656 229.714844 C 200.21875 229.574219 200.230469 229.433594 200.242188 229.28125 C 200.5625 229.265625 200.878906 229.253906 201.203125 229.242188 C 201.765625 229.4375 202.316406 229.765625 202.953125 229.539062 C 203.167969 229.566406 203.382812 229.582031 203.59375 229.605469 C 204.160156 229.96875 204.757812 230.164062 205.425781 229.894531 C 207.007812 230.058594 208.605469 230.445312 210.132812 229.628906 C 211.050781 230.421875 211.488281 229.5 212.066406 229.085938 C 212.84375 228.847656 213.625 228.605469 214.402344 228.367188 C 214.296875 227.976562 214.1875 227.589844 214.078125 227.199219 C 212.699219 226.496094 211.316406 225.792969 209.933594 225.09375 C 209.523438 224.609375 209.003906 224.425781 208.378906 224.550781 C 207.863281 222.878906 205.550781 223.597656 204.980469 222 C 204.679688 221.277344 203.132812 220.898438 204.378906 219.761719 C 205.140625 218.644531 206.046875 219.261719 206.929688 219.535156 C 207.308594 220.09375 207.867188 220.164062 208.476562 220.109375 C 208.710938 220.375 208.929688 220.683594 209.363281 220.578125 C 210.640625 221.980469 212.578125 222.269531 214.046875 223.355469 C 214.449219 223.625 214.847656 223.890625 215.253906 224.160156 C 215.261719 224.226562 215.269531 224.296875 215.285156 224.359375 C 215.277344 224.296875 215.265625 224.234375 215.253906 224.160156 C 215.914062 223.964844 216.367188 224.300781 216.765625 224.761719 C 217.316406 224.757812 217.863281 224.753906 218.414062 224.75 C 219.761719 225.222656 221.144531 225.328125 222.558594 225.097656 C 223.15625 225.511719 223.5 224.917969 223.941406 224.742188 C 224.316406 224.964844 224.867188 224.894531 225.058594 225.414062 C 228.109375 224.457031 230.429688 222.523438 232.355469 220.035156 C 232.84375 219.8125 233.324219 219.523438 233.035156 218.902344 C 232.808594 218.410156 232.425781 218.730469 232.109375 218.886719 C 231.808594 218.550781 231.511719 218.21875 231.207031 217.886719 C 231.195312 217.746094 231.140625 217.625 231.042969 217.515625 C 230.90625 217.5625 230.773438 217.613281 230.640625 217.664062 C 229.902344 217.347656 228.929688 217.390625 228.65625 216.367188 C 228.535156 216.277344 228.40625 216.183594 228.285156 216.097656 C 228.097656 216.050781 227.914062 216.011719 227.726562 215.96875 C 227.789062 215.917969 227.84375 215.886719 227.898438 215.863281 C 227.84375 215.886719 227.789062 215.917969 227.726562 215.96875 L 227.683594 215.832031 C 227.480469 216.027344 227.277344 216.078125 227.082031 215.816406 C 225.464844 215.53125 224.859375 214.132812 223.984375 213.027344 C 223.070312 213.339844 222.738281 212.085938 221.882812 212.253906 C 221.351562 211.902344 221.300781 210.96875 220.417969 211.054688 C 220.183594 210.820312 220.042969 210.441406 219.597656 210.527344 C 219.078125 210.046875 218.515625 209.667969 217.789062 209.609375 C 217.582031 209.394531 217.378906 209.179688 217.167969 208.960938 C 217.019531 208.722656 216.871094 208.484375 216.71875 208.238281 C 216.183594 208.214844 215.648438 208.191406 215.109375 208.167969 C 213.648438 206.460938 214.09375 205.523438 216.675781 204.871094 C 216.933594 205.609375 217.582031 205.550781 218.171875 205.601562 C 218.226562 205.710938 218.269531 205.828125 218.292969 205.945312 C 219.445312 206.429688 220.476562 207.195312 221.757812 207.375 C 221.902344 207.765625 222.167969 207.949219 222.589844 207.902344 C 223.027344 208.460938 223.453125 209.015625 223.886719 209.574219 C 225.019531 209.601562 225.726562 210.316406 226.503906 211.042969 C 228.269531 212.683594 230.324219 213.902344 232.53125 214.871094 C 232.722656 214.660156 232.882812 214.664062 232.980469 214.957031 C 233.300781 215.21875 233.570312 215.589844 234.066406 215.476562 C 234.25 215.261719 234.394531 215.292969 234.507812 215.542969 C 234.847656 215.703125 235.1875 215.871094 235.527344 216.027344 C 235.738281 215.839844 235.917969 215.839844 236.046875 216.121094 C 236.171875 216.203125 236.277344 216.296875 236.382812 216.40625 C 236.621094 216.316406 236.832031 216.316406 236.964844 216.589844 C 241.269531 216.890625 244.808594 214.765625 248.425781 212.921875 C 249.011719 212.625 249.316406 211.945312 249.390625 211.242188 C 250.796875 209.339844 250.796875 209.339844 249.734375 208.710938 C 248.757812 208.101562 247.78125 207.492188 246.808594 206.882812 C 246.636719 206.515625 246.4375 206.210938 245.949219 206.359375 C 244.683594 205.414062 243.410156 204.472656 242.140625 203.523438 C 241.90625 202.824219 241.355469 202.738281 240.730469 202.816406 C 240.148438 201.957031 239.214844 201.621094 238.328125 201.222656 C 238.195312 200.949219 237.984375 200.949219 237.742188 201.042969 C 236.289062 199.867188 234.835938 198.6875 233.386719 197.515625 C 232.773438 196.863281 232.152344 196.203125 231.53125 195.554688 C 231.40625 195.628906 231.289062 195.707031 231.164062 195.785156 C 230.90625 195.414062 230.648438 195.046875 230.390625 194.675781 C 229.308594 195.464844 229.15625 193.703125 228.289062 193.90625 C 228.09375 193.679688 227.902344 193.453125 227.703125 193.21875 C 227.382812 192.410156 226.578125 192.488281 225.9375 192.25 C 225.011719 191.515625 224.394531 190.324219 223.003906 190.304688 C 222.511719 189.171875 221.105469 189.261719 220.417969 188.390625 C 220.265625 188.039062 220.085938 187.71875 219.609375 187.820312 C 217.761719 186.136719 215.964844 184.113281 214.015625 182.90625 C 211.765625 181.507812 210.652344 179.277344 208.625 177.890625 C 207.136719 177.144531 206.601562 175.628906 205.789062 174.34375 C 204.765625 172.984375 202.84375 172.082031 203.46875 169.863281 C 203.761719 167.246094 205.957031 166.742188 207.867188 166.214844 C 211.167969 165.296875 214.570312 165.722656 217.941406 165.894531 C 218 165.777344 218.089844 165.6875 218.203125 165.621094 C 218.3125 165.710938 218.394531 165.828125 218.445312 165.964844 C 218.828125 166.144531 219.179688 166.039062 219.523438 165.84375 C 220.503906 165.6875 221.492188 165.523438 222.476562 165.371094 C 222.582031 165.464844 222.691406 165.558594 222.796875 165.652344 C 222.992188 165.6875 223.191406 165.722656 223.386719 165.761719 C 223.625 165.578125 223.863281 165.398438 224.101562 165.222656 C 225.257812 164.988281 226.507812 165.375 227.597656 164.683594 C 228.121094 164.496094 228.632812 164.25 229.210938 164.476562 C 229.347656 164.714844 229.515625 164.796875 229.746094 164.589844 C 230.320312 164.390625 230.855469 163.757812 231.507812 164.433594 C 231.664062 164.273438 231.824219 164.113281 231.976562 163.953125 C 232.105469 163.367188 232.425781 163.1875 232.972656 163.472656 L 233.046875 163.683594 L 233.183594 163.859375 C 233.480469 163.675781 233.796875 163.472656 233.667969 163.023438 Z M 227.957031 215.863281 C 228.003906 215.855469 228.054688 215.859375 228.09375 215.886719 C 228.054688 215.859375 228.007812 215.851562 227.957031 215.863281 Z M 215.300781 224.542969 C 215.335938 224.648438 215.375 224.730469 215.417969 224.800781 C 215.367188 224.734375 215.335938 224.648438 215.300781 224.542969 Z M 273.210938 156.6875 Z M 273.863281 156.875 C 274.238281 156.542969 274.285156 156.132812 274.078125 155.703125 C 274.285156 156.132812 274.238281 156.542969 273.863281 156.875 C 273.730469 156.933594 273.621094 156.953125 273.519531 156.925781 C 273.621094 156.953125 273.730469 156.933594 273.863281 156.875 Z M 318.691406 139.085938 C 318.789062 139.097656 318.882812 139.097656 318.976562 139.085938 C 319.070312 139.074219 319.164062 139.054688 319.257812 139.023438 C 319.164062 139.054688 319.070312 139.074219 318.976562 139.085938 C 318.875 139.097656 318.785156 139.101562 318.691406 139.085938 Z M 333.070312 171.953125 C 333.011719 172.136719 332.96875 172.316406 332.941406 172.488281 C 332.972656 172.320312 333.015625 172.140625 333.070312 171.953125 Z M 272.445312 143.398438 C 272.210938 143.625 271.84375 143.789062 272.066406 144.230469 C 272.308594 144.035156 272.546875 143.839844 272.796875 143.644531 C 272.6875 143.546875 272.570312 143.46875 272.445312 143.398438 Z M 270.382812 148.308594 C 270.542969 148.328125 270.710938 148.355469 270.875 148.375 C 270.742188 148.128906 270.582031 148.074219 270.382812 148.308594 Z M 50.1875 151.335938 C 50.390625 151.328125 50.59375 151.324219 50.796875 151.316406 C 50.589844 151.160156 50.386719 151.121094 50.1875 151.335938 Z M 193.515625 145.457031 C 193.695312 145.492188 193.875 145.523438 194.050781 145.558594 C 193.914062 145.304688 193.738281 145.253906 193.515625 145.457031 Z M 90.046875 155.296875 C 89.921875 155.359375 89.828125 155.445312 89.765625 155.570312 C 89.925781 155.59375 90.082031 155.617188 90.246094 155.636719 C 90.199219 155.503906 90.140625 155.390625 90.046875 155.296875 Z M 81.492188 206.117188 C 81.488281 206.339844 81.488281 206.5625 81.480469 206.78125 C 81.652344 206.5625 81.71875 206.34375 81.492188 206.117188 Z M 117.886719 175.011719 C 118.097656 175 118.308594 174.992188 118.515625 174.980469 C 118.421875 174.878906 118.320312 174.78125 118.207031 174.699219 C 118.097656 174.800781 117.996094 174.902344 117.886719 175.011719 Z M 144.488281 163.992188 C 144.691406 164 144.886719 164 145.09375 164.003906 C 144.894531 163.835938 144.695312 163.773438 144.488281 163.992188 Z M 192.78125 230.015625 C 192.777344 230.011719 192.777344 230.007812 192.773438 230.003906 C 192.761719 230.003906 192.746094 230.007812 192.738281 230.015625 Z M 157.605469 145.664062 C 157.445312 145.636719 157.273438 145.605469 157.113281 145.578125 C 157.234375 145.835938 157.394531 145.886719 157.605469 145.664062 Z M 267.253906 207.074219 C 267.210938 207.097656 267.203125 207.191406 267.179688 207.253906 C 267.246094 207.277344 267.308594 207.300781 267.371094 207.324219 C 267.394531 207.261719 267.417969 207.195312 267.441406 207.132812 C 267.375 207.109375 267.296875 207.058594 267.253906 207.074219 Z M 267.253906 207.074219 " fill-opacity="1" fill-rule="nonzero"/></g></g></g></svg>