<svg xmlns="http://www.w3.org/2000/svg" xmlns:xlink="http://www.w3.org/1999/xlink" width="900" zoomAndPan="magnify" viewBox="0 0 675 374.999991" height="500" preserveAspectRatio="xMidYMid meet" version="1.0"><defs><g/><clipPath id="9de2036677"><path d="M 309 172 L 405 172 L 405 204 L 309 204 Z M 309 172 " clip-rule="nonzero"/></clipPath><clipPath id="dbde1fd265"><path d="M 370.355469 134.078125 L 411.425781 192.300781 L 342.789062 240.722656 L 301.714844 182.5 Z M 370.355469 134.078125 " clip-rule="nonzero"/></clipPath><clipPath id="6a8b7f82d2"><path d="M 370.355469 134.078125 L 411.425781 192.300781 L 342.789062 240.722656 L 301.714844 182.5 Z M 370.355469 134.078125 " clip-rule="nonzero"/></clipPath></defs><g fill="#ffffff" fill-opacity="1"><g transform="translate(22.849072, 244.874984)"><g><path d="M 96.75 -24.828125 C 102.570312 -23.441406 107.742188 -20.832031 112.265625 -17 C 116.785156 -13.175781 120.382812 -8.503906 123.0625 -2.984375 C 125.75 2.523438 127.09375 8.5 127.09375 14.9375 C 127.09375 22.445312 125.328125 29.265625 121.796875 35.390625 C 118.273438 41.523438 113.601562 46.429688 107.78125 50.109375 C 101.96875 53.785156 95.535156 55.625 88.484375 55.625 C 82.660156 55.625 77.144531 54.4375 71.9375 52.0625 C 66.726562 49.6875 62.550781 46.503906 59.40625 42.515625 C 56.269531 38.535156 54.703125 34.242188 54.703125 29.640625 C 54.703125 24.742188 56.460938 20.53125 59.984375 17 C 63.503906 13.476562 67.71875 11.71875 72.625 11.71875 C 77.53125 11.71875 81.707031 13.476562 85.15625 17 C 88.601562 20.53125 90.328125 24.742188 90.328125 29.640625 C 90.328125 34.703125 88.640625 38.914062 85.265625 42.28125 C 84.191406 43.351562 83.269531 44.503906 82.5 45.734375 C 81.738281 46.960938 81.359375 48.1875 81.359375 49.40625 C 81.359375 52.625 83.734375 54.234375 88.484375 54.234375 C 95.378906 54.234375 101.625 52.472656 107.21875 48.953125 C 112.8125 45.429688 117.289062 40.679688 120.65625 34.703125 C 124.03125 28.722656 125.71875 22.132812 125.71875 14.9375 C 125.71875 9.425781 124.453125 4.445312 121.921875 0 C 119.390625 -4.445312 116.015625 -7.972656 111.796875 -10.578125 C 107.585938 -13.179688 102.878906 -14.484375 97.671875 -14.484375 C 92.316406 -14.484375 87.453125 -13.0625 83.078125 -10.21875 C 78.710938 -7.382812 74.613281 -3.941406 70.78125 0.109375 C 66.957031 4.171875 63.128906 8.269531 59.296875 12.40625 C 55.460938 16.539062 51.320312 20.023438 46.875 22.859375 C 42.4375 25.703125 37.382812 27.125 31.71875 27.125 C 26.351562 27.125 21.410156 25.742188 16.890625 22.984375 C 12.367188 20.222656 8.804688 16.46875 6.203125 11.71875 C 3.597656 6.96875 2.296875 1.757812 2.296875 -3.90625 C 2.296875 -10.957031 4.285156 -17.203125 8.265625 -22.640625 C 12.253906 -28.078125 17.3125 -31.71875 23.4375 -33.5625 C 19.914062 -37.84375 17.160156 -42.625 15.171875 -47.90625 C 13.179688 -53.195312 12.1875 -58.753906 12.1875 -64.578125 C 12.1875 -73.921875 14.5625 -82.421875 19.3125 -90.078125 C 24.0625 -97.742188 30.378906 -103.835938 38.265625 -108.359375 C 46.160156 -112.878906 54.929688 -115.140625 64.578125 -115.140625 C 72.390625 -115.140625 79.742188 -113.609375 86.640625 -110.546875 C 82.816406 -114.066406 78.988281 -118.660156 75.15625 -124.328125 C 71.320312 -130.003906 69.40625 -136.210938 69.40625 -142.953125 C 69.40625 -147.859375 71.164062 -152.070312 74.6875 -155.59375 C 78.21875 -159.113281 82.429688 -160.875 87.328125 -160.875 C 92.234375 -160.875 96.410156 -159.113281 99.859375 -155.59375 C 103.304688 -152.070312 105.03125 -147.859375 105.03125 -142.953125 C 105.03125 -139.117188 103.914062 -135.742188 101.6875 -132.828125 C 99.46875 -129.921875 96.675781 -127.703125 93.3125 -126.171875 C 88.101562 -124.023438 85.5 -121.113281 85.5 -117.4375 C 85.5 -115.445312 86.300781 -113.53125 87.90625 -111.6875 C 89.519531 -109.851562 91.472656 -108.171875 93.765625 -106.640625 C 100.972656 -102.046875 106.644531 -96.109375 110.78125 -88.828125 C 114.914062 -81.546875 116.984375 -73.460938 116.984375 -64.578125 C 116.984375 -56.609375 115.179688 -49.140625 111.578125 -42.171875 C 107.984375 -35.203125 103.039062 -29.421875 96.75 -24.828125 Z M 64.578125 -113.765625 C 52.785156 -113.765625 46.890625 -97.367188 46.890625 -64.578125 C 46.890625 -35.773438 51.484375 -19.613281 60.671875 -16.09375 C 63.273438 -17.625 65.84375 -19 68.375 -20.21875 C 70.90625 -21.445312 73.394531 -22.519531 75.84375 -23.4375 C 80.289062 -31.40625 82.515625 -45.117188 82.515625 -64.578125 C 82.515625 -97.367188 76.535156 -113.765625 64.578125 -113.765625 Z M 16.546875 -19.53125 C 16.546875 -15.394531 18.039062 -11.832031 21.03125 -8.84375 C 24.019531 -5.851562 27.582031 -4.359375 31.71875 -4.359375 C 36.007812 -4.359375 40.296875 -5.429688 44.578125 -7.578125 C 48.867188 -9.722656 53.316406 -12.023438 57.921875 -14.484375 C 51.171875 -15.398438 44.882812 -17.46875 39.0625 -20.6875 C 33.25 -23.90625 28.269531 -27.890625 24.125 -32.640625 C 19.070312 -29.566406 16.546875 -25.195312 16.546875 -19.53125 Z M 16.546875 -19.53125 "/></g></g></g><g fill="#ffffff" fill-opacity="1"><g transform="translate(135.005432, 244.874984)"><g><path d="M 49.640625 -156.75 L 49.640625 -12.640625 C 49.640625 -9.878906 50.554688 -7.425781 52.390625 -5.28125 C 54.234375 -3.132812 56.457031 -1.832031 59.0625 -1.375 L 59.0625 0 L 5.75 0 L 5.75 -1.375 C 8.351562 -1.832031 10.570312 -3.132812 12.40625 -5.28125 C 14.25 -7.425781 15.171875 -9.878906 15.171875 -12.640625 L 15.171875 -142.5 C 15.171875 -145.25 14.25 -147.695312 12.40625 -149.84375 C 10.570312 -151.988281 8.351562 -153.289062 5.75 -153.75 L 5.75 -155.140625 L 45.046875 -160.875 C 45.203125 -160.875 45.316406 -160.875 45.390625 -160.875 C 45.460938 -160.875 45.578125 -160.875 45.734375 -160.875 C 48.335938 -160.875 49.640625 -159.5 49.640625 -156.75 Z M 49.640625 -156.75 "/></g></g></g><g fill="#ffffff" fill-opacity="1"><g transform="translate(182.579698, 244.874984)"><g><path d="M 111.703125 37.234375 C 111.703125 40.140625 112.582031 42.625 114.34375 44.6875 C 116.101562 46.757812 118.363281 48.101562 121.125 48.71875 L 121.125 50.109375 L 81.59375 55.625 C 81.4375 55.625 81.359375 55.660156 81.359375 55.734375 C 81.359375 55.804688 81.28125 55.84375 81.125 55.84375 C 80.050781 55.84375 79.09375 55.421875 78.25 54.578125 C 77.414062 53.734375 77 52.78125 77 51.71875 L 77 11.265625 C 73.007812 9.878906 68.101562 8.191406 62.28125 6.203125 C 56.457031 4.210938 50.40625 1.609375 44.125 -1.609375 C 37.84375 -4.828125 31.984375 -8.960938 26.546875 -14.015625 C 21.109375 -19.078125 16.664062 -25.320312 13.21875 -32.75 C 9.769531 -40.175781 8.046875 -49.023438 8.046875 -59.296875 C 8.046875 -67.878906 9.578125 -75.613281 12.640625 -82.5 C 15.703125 -89.394531 19.757812 -95.21875 24.8125 -99.96875 C 29.875 -104.71875 35.503906 -108.203125 41.703125 -110.421875 C 47.910156 -112.648438 54.15625 -113.457031 60.4375 -112.84375 C 63.65625 -112.539062 66.644531 -111.925781 69.40625 -111 C 72.164062 -110.082031 74.695312 -109.015625 77 -107.796875 L 77 -108.9375 C 77 -110.007812 77.414062 -110.925781 78.25 -111.6875 C 79.09375 -112.457031 80.050781 -112.84375 81.125 -112.84375 C 81.28125 -112.84375 81.359375 -112.84375 81.359375 -112.84375 C 81.359375 -112.84375 81.4375 -112.84375 81.59375 -112.84375 L 121.125 -107.09375 L 121.125 -105.71875 C 118.363281 -105.257812 116.101562 -103.992188 114.34375 -101.921875 C 112.582031 -99.859375 111.703125 -97.367188 111.703125 -94.453125 Z M 77 9.1875 L 77 -106.40625 C 74.539062 -107.632812 72.007812 -108.25 69.40625 -108.25 C 64.351562 -108.25 59.753906 -105.945312 55.609375 -101.34375 C 51.472656 -96.75 48.179688 -90.617188 45.734375 -82.953125 C 43.285156 -75.296875 42.0625 -66.722656 42.0625 -57.234375 C 42.0625 -46.660156 43.09375 -37.65625 45.15625 -30.21875 C 47.226562 -22.789062 49.988281 -16.546875 53.4375 -11.484375 C 56.882812 -6.429688 60.675781 -2.257812 64.8125 1.03125 C 68.945312 4.320312 73.007812 7.039062 77 9.1875 Z M 77 9.1875 "/></g></g></g><g fill="#ffffff" fill-opacity="1"><g transform="translate(294.513116, 244.874984)"><g/></g></g><g fill="#ffffff" fill-opacity="1"><g transform="translate(341.627692, 244.874984)"><g/></g></g><g fill="#ffffff" fill-opacity="1"><g transform="translate(388.743583, 244.874984)"><g><path d="M 111 -51.25 L 111 -58.375 L 112.390625 -58.375 L 112.390625 0 L 111 0 L 111 -25.734375 C 111 -23.898438 110.269531 -21.488281 108.8125 -18.5 C 107.363281 -15.507812 105.222656 -12.554688 102.390625 -9.640625 C 99.554688 -6.734375 96.066406 -4.359375 91.921875 -2.515625 C 87.785156 -0.679688 83.039062 0.15625 77.6875 0 C 72.625 -0.300781 68.175781 -1.253906 64.34375 -2.859375 C 60.519531 -4.472656 56.691406 -6.125 52.859375 -7.8125 C 49.023438 -9.5 44.429688 -10.570312 39.078125 -11.03125 C 33.398438 -11.644531 29.03125 -11.1875 25.96875 -9.65625 C 22.90625 -8.125 20.796875 -6.359375 19.640625 -4.359375 C 18.492188 -2.367188 17.921875 -0.914062 17.921875 0 L 16.546875 0 C 14.554688 -4.445312 13.5625 -9.882812 13.5625 -16.3125 C 13.5625 -23.664062 15.09375 -30.332031 18.15625 -36.3125 C 21.21875 -42.289062 25.160156 -47.882812 29.984375 -53.09375 C 34.816406 -58.300781 39.953125 -63.394531 45.390625 -68.375 C 50.828125 -73.351562 55.957031 -78.5625 60.78125 -84 C 65.613281 -89.4375 69.640625 -95.332031 72.859375 -101.6875 C 76.078125 -108.050781 77.757812 -115.21875 77.90625 -123.1875 C 77.90625 -132.226562 75.953125 -140.117188 72.046875 -146.859375 C 68.140625 -153.597656 63.273438 -157.734375 57.453125 -159.265625 C 52.859375 -159.117188 48.265625 -158.28125 43.671875 -156.75 C 41.984375 -155.976562 41.097656 -154.554688 41.015625 -152.484375 C 40.941406 -150.421875 42.363281 -148.625 45.28125 -147.09375 C 49.414062 -145.101562 52.820312 -142.113281 55.5 -138.125 C 58.1875 -134.144531 59.53125 -129.703125 59.53125 -124.796875 C 59.53125 -118.054688 57.113281 -112.269531 52.28125 -107.4375 C 47.457031 -102.613281 41.675781 -100.203125 34.9375 -100.203125 C 28.195312 -100.203125 22.410156 -102.613281 17.578125 -107.4375 C 12.753906 -112.269531 10.34375 -118.054688 10.34375 -124.796875 C 10.34375 -130.773438 12.023438 -135.984375 15.390625 -140.421875 C 18.765625 -144.867188 23.132812 -148.625 28.5 -151.6875 C 33.863281 -154.75 39.570312 -157.046875 45.625 -158.578125 C 51.675781 -160.109375 57.304688 -160.875 62.515625 -160.875 C 72.773438 -160.875 82.117188 -158.878906 90.546875 -154.890625 C 98.972656 -150.910156 105.675781 -145.550781 110.65625 -138.8125 C 115.632812 -132.070312 118.125 -124.566406 118.125 -116.296875 C 118.125 -108.785156 116.363281 -102.347656 112.84375 -96.984375 C 109.320312 -91.617188 104.648438 -86.984375 98.828125 -83.078125 C 93.003906 -79.171875 86.601562 -75.644531 79.625 -72.5 C 72.65625 -69.363281 65.609375 -66.335938 58.484375 -63.421875 C 51.359375 -60.515625 44.769531 -57.375 38.71875 -54 C 32.664062 -50.632812 27.648438 -46.65625 23.671875 -42.0625 C 26.578125 -44.664062 30.0625 -46.804688 34.125 -48.484375 C 38.1875 -50.171875 42.742188 -51.09375 47.796875 -51.25 C 53.929688 -51.40625 59.796875 -50.5625 65.390625 -48.71875 C 70.984375 -46.882812 76.382812 -45.046875 81.59375 -43.203125 C 86.800781 -41.367188 91.78125 -40.453125 96.53125 -40.453125 C 101.738281 -40.453125 105.453125 -41.867188 107.671875 -44.703125 C 109.890625 -47.535156 111 -49.71875 111 -51.25 Z M 111 -51.25 "/></g></g></g><g fill="#ffffff" fill-opacity="1"><g transform="translate(499.980628, 244.874984)"><g><path d="M 81.59375 -159.5 C 77.144531 -159.5 72.773438 -156.703125 68.484375 -151.109375 C 64.191406 -145.515625 60.664062 -138.003906 57.90625 -128.578125 C 55.15625 -119.160156 53.78125 -108.785156 53.78125 -97.453125 C 53.78125 -86.878906 55.15625 -76.992188 57.90625 -67.796875 C 60.664062 -58.609375 64.535156 -50.523438 69.515625 -43.546875 C 74.503906 -36.578125 80.253906 -31.097656 86.765625 -27.109375 C 93.273438 -23.128906 100.207031 -21.140625 107.5625 -21.140625 C 113.84375 -21.140625 119.96875 -22.707031 125.9375 -25.84375 C 131.914062 -28.988281 137.203125 -33.164062 141.796875 -38.375 L 142.953125 -37.6875 C 136.515625 -26.351562 127.894531 -17.238281 117.09375 -10.34375 C 106.289062 -3.445312 94.457031 0 81.59375 0 C 71.632812 0 62.285156 -2.066406 53.546875 -6.203125 C 44.816406 -10.335938 37.117188 -16.117188 30.453125 -23.546875 C 23.785156 -30.984375 18.570312 -39.566406 14.8125 -49.296875 C 11.0625 -59.023438 9.1875 -69.40625 9.1875 -80.4375 C 9.1875 -91.46875 11.0625 -101.847656 14.8125 -111.578125 C 18.570312 -121.304688 23.785156 -129.882812 30.453125 -137.3125 C 37.117188 -144.75 44.816406 -150.535156 53.546875 -154.671875 C 62.285156 -158.804688 71.632812 -160.875 81.59375 -160.875 C 89.707031 -160.875 97.441406 -159.492188 104.796875 -156.734375 C 112.148438 -153.984375 118.703125 -150.382812 124.453125 -145.9375 C 130.203125 -141.5 134.722656 -136.671875 138.015625 -131.453125 C 141.304688 -126.242188 142.953125 -121.113281 142.953125 -116.0625 C 142.953125 -109.320312 140.535156 -103.535156 135.703125 -98.703125 C 130.878906 -93.878906 125.097656 -91.46875 118.359375 -91.46875 C 111.617188 -91.46875 105.832031 -93.878906 101 -98.703125 C 96.175781 -103.535156 93.765625 -109.320312 93.765625 -116.0625 C 93.765625 -120.195312 94.453125 -123.566406 95.828125 -126.171875 C 97.210938 -128.773438 98.785156 -131.070312 100.546875 -133.0625 C 102.304688 -135.0625 103.875 -137.09375 105.25 -139.15625 C 106.632812 -141.226562 107.328125 -143.644531 107.328125 -146.40625 C 107.328125 -150.082031 105.71875 -152.875 102.5 -154.78125 C 99.28125 -156.695312 95.640625 -157.960938 91.578125 -158.578125 C 87.523438 -159.191406 84.195312 -159.5 81.59375 -159.5 Z M 81.59375 -159.5 "/></g></g></g><g clip-path="url(#9de2036677)"><g clip-path="url(#dbde1fd265)"><g clip-path="url(#6a8b7f82d2)"><path fill="#ffffff" d="M 392.527344 172.605469 C 392.527344 172.605469 392.523438 172.605469 392.519531 172.609375 C 392.519531 172.605469 392.515625 172.605469 392.515625 172.601562 C 392.511719 172.601562 392.527344 172.605469 392.527344 172.605469 Z M 342.855469 203.238281 C 342.855469 203.238281 342.851562 203.238281 342.851562 203.238281 C 342.851562 203.238281 342.847656 203.238281 342.847656 203.238281 Z M 357.03125 202.351562 C 357.035156 202.351562 357.035156 202.351562 357.035156 202.351562 Z M 362.332031 175.835938 C 362.328125 175.832031 362.328125 175.832031 362.324219 175.828125 C 362.320312 175.828125 362.316406 175.832031 362.3125 175.832031 Z M 362.828125 197.414062 C 362.828125 197.414062 362.832031 197.414062 362.832031 197.414062 Z M 403.304688 197.472656 C 403.296875 197.433594 403.277344 197.398438 403.25 197.367188 C 403.207031 197.382812 403.171875 197.40625 403.148438 197.445312 C 401.636719 197.324219 400.140625 197.4375 398.652344 197.710938 C 398.535156 197.5625 398.398438 197.554688 398.246094 197.65625 C 397.84375 197.476562 397.445312 197.621094 397.046875 197.679688 C 397.003906 197.597656 396.953125 197.585938 396.890625 197.65625 C 396.785156 197.664062 396.679688 197.671875 396.574219 197.679688 C 396.515625 197.621094 396.457031 197.601562 396.394531 197.667969 C 396.066406 197.886719 395.667969 197.683594 395.332031 197.84375 C 395.3125 197.878906 395.285156 197.90625 395.253906 197.925781 L 395.210938 197.878906 L 395.183594 197.820312 C 395.0625 197.734375 394.957031 197.804688 394.847656 197.851562 C 394.597656 197.675781 394.230469 198 394.015625 197.660156 C 393.878906 197.710938 393.769531 197.871094 393.59375 197.769531 C 392.664062 197.71875 391.742188 197.765625 390.816406 197.859375 C 390.632812 197.785156 390.449219 197.714844 390.246094 197.796875 C 389.484375 197.824219 388.726562 197.878906 387.964844 197.863281 C 387.789062 197.859375 387.675781 197.90625 387.542969 197.972656 C 387.425781 197.832031 387.292969 197.796875 387.132812 197.902344 C 386.945312 197.886719 386.757812 197.867188 386.570312 197.851562 C 386.410156 197.972656 386.28125 197.925781 386.175781 197.773438 C 385.941406 197.800781 385.699219 197.902344 385.46875 197.761719 C 385.433594 197.671875 385.382812 197.667969 385.316406 197.734375 C 384.230469 197.707031 383.140625 197.683594 382.054688 197.660156 C 381.292969 197.910156 381.003906 197.710938 380.707031 196.714844 C 380.785156 196.105469 380.871094 195.5 380.949219 194.890625 C 381.046875 194.765625 380.992188 194.738281 380.863281 194.753906 C 380.714844 194.707031 380.5625 194.660156 380.410156 194.613281 C 380.195312 194.304688 379.984375 194 379.769531 193.695312 C 380.253906 193.597656 380.78125 193.699219 381.203125 193.351562 C 380.820312 193.035156 381.109375 192.753906 381.257812 192.46875 C 381.230469 192.269531 381.273438 192.085938 381.355469 191.90625 C 381.054688 191.488281 381.414062 191.074219 381.367188 190.640625 C 381.332031 190.335938 381.160156 189.949219 381.457031 189.648438 C 381.425781 189.503906 381.390625 189.359375 381.359375 189.210938 C 381.289062 189.148438 381.300781 189.097656 381.386719 189.0625 C 381.441406 188.839844 381.496094 188.613281 381.554688 188.390625 C 381.328125 188.1875 381.484375 187.953125 381.496094 187.726562 C 381.453125 187.25 381.453125 186.773438 381.640625 186.320312 C 381.621094 186.113281 381.597656 185.902344 381.574219 185.695312 C 381.683594 185.300781 381.570312 184.90625 381.582031 184.507812 C 381.519531 184.445312 381.53125 184.390625 381.597656 184.34375 C 381.8125 183.546875 381.453125 182.746094 381.628906 181.953125 C 381.464844 181.820312 381.503906 181.699219 381.640625 181.578125 C 381.554688 181.414062 381.523438 181.253906 381.675781 181.101562 C 381.867188 180.800781 381.507812 180.414062 381.820312 180.128906 C 381.539062 179.738281 381.714844 179.34375 381.816406 178.949219 C 381.75 178.308594 382.074219 177.707031 381.984375 177.042969 C 381.949219 176.804688 381.96875 176.808594 381.75 176.746094 C 381.226562 176.601562 380.6875 176.773438 380.179688 176.605469 C 379.730469 176.867188 379.207031 176.800781 378.726562 176.917969 C 378.65625 176.964844 378.601562 176.957031 378.558594 176.882812 C 377.769531 177.019531 376.972656 177.089844 376.171875 177.125 C 376.019531 177.132812 375.890625 177.191406 375.878906 177.414062 C 375.785156 178.71875 374.707031 179.34375 373.785156 179.769531 C 373.042969 180.113281 372.332031 180.589844 371.527344 180.816406 C 369.667969 181.523438 367.753906 181.996094 365.753906 181.925781 C 365.128906 181.90625 364.503906 181.949219 363.882812 181.917969 C 363.351562 181.886719 362.871094 181.976562 362.414062 182.230469 C 362.40625 182.28125 362.402344 182.335938 362.398438 182.386719 C 362.90625 183.035156 363.414062 183.683594 363.921875 184.332031 C 364.070312 184.304688 364.113281 184.40625 364.160156 184.511719 C 364.394531 184.734375 364.628906 184.960938 364.863281 185.183594 C 365 185.148438 365.050781 185.257812 365.125 185.332031 C 365.195312 185.308594 365.257812 185.316406 365.292969 185.394531 C 366.078125 186.089844 366.855469 186.796875 367.746094 187.359375 C 367.953125 187.328125 367.972656 187.542969 368.09375 187.625 C 368.371094 187.734375 368.601562 187.902344 368.78125 188.140625 C 368.855469 188.113281 368.914062 188.117188 368.949219 188.203125 C 369.0625 188.269531 369.1875 188.324219 369.292969 188.40625 C 370.386719 189.226562 371.472656 190.046875 372.5625 190.867188 C 372.714844 190.816406 372.765625 190.921875 372.824219 191.027344 C 373.808594 191.699219 374.859375 192.273438 375.828125 192.949219 C 376.492188 193.410156 377.089844 193.492188 377.835938 193.4375 C 378.480469 193.386719 379.15625 193.40625 379.773438 193.691406 C 379.988281 193.996094 380.199219 194.304688 380.414062 194.609375 C 379.785156 194.539062 379.160156 194.46875 378.535156 194.398438 C 378.507812 194.300781 378.457031 194.304688 378.390625 194.363281 C 378.191406 194.367188 377.980469 194.410156 377.785156 194.375 C 376.964844 194.21875 376.617188 194.347656 376.140625 195.296875 C 375.695312 196.183594 374.980469 196.625 374.074219 196.792969 C 373.769531 196.847656 373.507812 196.953125 373.285156 197.121094 C 372.773438 197.503906 372.207031 197.457031 371.628906 197.414062 C 371.511719 197.277344 371.386719 197.210938 371.25 197.386719 C 370.910156 197.558594 370.699219 197.851562 370.496094 198.15625 C 370.023438 198.851562 369.316406 199.273438 368.625 199.707031 C 368.398438 199.847656 368.191406 199.765625 367.976562 199.691406 C 367.710938 200.027344 367.347656 199.820312 367.042969 199.816406 C 366.109375 199.796875 365.519531 200.527344 364.734375 200.816406 C 364.617188 200.890625 364.503906 200.964844 364.386719 201.039062 C 363.972656 201.332031 363.472656 201.242188 363.015625 201.332031 C 362.273438 201.484375 361.640625 201.746094 361.085938 202.292969 C 360.796875 202.578125 360.335938 202.6875 359.953125 202.878906 C 359.371094 203.429688 358.585938 203.089844 357.9375 203.347656 C 357.808594 203.277344 357.726562 203.363281 357.644531 203.4375 C 357.445312 203.402344 357.242188 203.371094 357.039062 203.335938 C 357.003906 203.25 356.949219 203.242188 356.886719 203.304688 C 356.742188 203.28125 356.601562 203.261719 356.457031 203.238281 C 356.425781 203.160156 356.378906 203.152344 356.320312 203.21875 C 356.113281 203.179688 355.910156 203.140625 355.703125 203.101562 C 355.664062 203.019531 355.601562 203.019531 355.527344 203.054688 C 355.378906 202.992188 355.226562 202.929688 355.078125 202.867188 C 355.007812 202.777344 354.941406 202.679688 354.804688 202.71875 C 354.488281 202.664062 354.167969 202.605469 353.851562 202.546875 C 353.558594 202.457031 353.269531 202.367188 352.980469 202.273438 C 352.890625 202.09375 352.734375 202.003906 352.546875 201.964844 C 352.375 201.839844 352.21875 201.667969 351.976562 201.816406 C 351.777344 201.632812 351.578125 201.453125 351.378906 201.269531 C 351.335938 201.1875 351.285156 201.183594 351.214844 201.238281 C 350.792969 200.96875 350.371094 200.699219 349.949219 200.429688 C 349.542969 200.046875 349.195312 200.179688 348.867188 200.542969 C 348.574219 200.675781 348.277344 200.808594 347.984375 200.945312 C 347.863281 200.902344 347.746094 200.835938 347.621094 200.925781 C 347.429688 201.054688 347.242188 201.183594 347.050781 201.3125 C 346.84375 201.339844 346.625 201.230469 346.429688 201.375 C 345.804688 201.476562 345.203125 201.625 344.761719 202.128906 C 344.671875 202.238281 344.578125 202.347656 344.484375 202.453125 C 344.082031 202.683594 343.675781 202.910156 343.273438 203.136719 C 343.089844 202.96875 342.988281 203.1875 342.851562 203.226562 C 342.679688 203.140625 342.515625 203.101562 342.367188 203.273438 C 342.039062 203.183594 341.65625 203.453125 341.375 203.109375 C 341.292969 203.058594 341.210938 203.011719 341.128906 202.960938 C 341.089844 202.976562 341.054688 202.992188 341.019531 203.015625 L 340.972656 202.964844 L 340.957031 202.898438 C 340.726562 202.609375 340.496094 202.320312 340.269531 202.03125 C 340.234375 201.949219 340.183594 201.929688 340.109375 201.988281 L 340.085938 201.925781 C 339.960938 202.078125 339.824219 202.207031 339.628906 202.261719 C 339.089844 202.410156 338.59375 202.730469 338 202.625 C 337.960938 202.539062 337.910156 202.53125 337.847656 202.597656 C 337.773438 202.582031 337.699219 202.566406 337.625 202.554688 C 337.582031 202.472656 337.519531 202.46875 337.445312 202.5 C 337.382812 202.492188 337.324219 202.480469 337.261719 202.46875 C 337.109375 202.207031 336.871094 202.367188 336.671875 202.347656 C 336.496094 202.035156 336.109375 201.867188 336.0625 201.46875 C 336.3125 201.347656 336.558594 201.226562 336.808594 201.105469 C 337.421875 201.5 338.050781 201.820312 338.8125 201.582031 C 339.226562 201.292969 339.636719 201 340.050781 200.710938 C 340.128906 200.660156 340.203125 200.609375 340.28125 200.558594 C 340.351562 200.5 340.425781 200.445312 340.5 200.386719 C 340.660156 199.847656 341.132812 199.515625 341.402344 199.046875 C 341.367188 198.972656 341.371094 198.914062 341.457031 198.875 C 342.230469 197.945312 342.5625 196.738281 343.339844 195.808594 C 343.421875 195.765625 343.429688 195.710938 343.371094 195.644531 C 343.789062 194.621094 344 193.511719 344.621094 192.566406 C 344.558594 192.503906 344.5625 192.453125 344.652344 192.414062 C 344.859375 191.730469 345.109375 191.058594 345.261719 190.355469 C 345.445312 189.515625 345.144531 188.605469 344.464844 188.132812 C 344.429688 188.046875 344.378906 188.039062 344.3125 188.101562 C 344.019531 188.21875 343.667969 187.964844 343.398438 188.246094 C 343.285156 188.324219 343.171875 188.402344 343.058594 188.484375 C 341.140625 189.324219 340.511719 191.035156 340.089844 192.886719 C 339.941406 192.996094 339.910156 193.128906 340 193.289062 C 339.273438 194.699219 339.046875 196.328125 338.09375 197.636719 C 338.039062 197.734375 337.984375 197.835938 337.925781 197.933594 C 337.839844 198.289062 337.683594 198.609375 337.417969 198.863281 C 337.398438 199.117188 337.164062 199.148438 337.007812 199.257812 C 336.945312 199.394531 336.933594 199.5625 336.75 199.617188 C 336.730469 199.972656 336.09375 200.1875 336.511719 200.648438 C 336.613281 200.800781 336.710938 200.953125 336.8125 201.101562 C 336.5625 201.226562 336.316406 201.347656 336.066406 201.46875 C 336.011719 201.394531 335.960938 201.316406 335.910156 201.242188 C 335.867188 201.214844 335.828125 201.1875 335.789062 201.160156 C 335.703125 200.96875 335.597656 200.890625 335.433594 201.085938 C 334.714844 201.753906 333.804688 201.597656 332.945312 201.660156 C 332.746094 201.683594 332.554688 201.644531 332.382812 201.542969 C 331.5625 201.515625 331.207031 200.90625 330.882812 200.296875 C 330.746094 200.039062 330.660156 199.753906 330.445312 199.539062 C 330.410156 199.4375 330.359375 199.371094 330.242188 199.429688 C 329.652344 199.667969 329.070312 199.585938 328.488281 199.40625 C 328.445312 199.328125 328.394531 199.320312 328.328125 199.375 C 327.957031 199.398438 327.667969 199.191406 327.367188 199.015625 C 327.328125 198.929688 327.269531 198.929688 327.195312 198.96875 C 327.046875 198.847656 326.898438 198.730469 326.753906 198.609375 C 326.5625 198.351562 326.5 197.976562 326.117188 197.886719 C 326.253906 197.679688 326.195312 197.464844 326.121094 197.273438 C 326.195312 197.464844 326.253906 197.679688 326.117188 197.886719 C 326.113281 197.890625 326.113281 197.890625 326.113281 197.894531 L 326.109375 197.894531 C 326.109375 197.894531 326.109375 197.898438 326.109375 197.898438 C 325.941406 197.808594 325.964844 198 325.890625 198.046875 C 325.929688 198.125 325.96875 198.203125 326.007812 198.285156 C 325.925781 198.355469 325.832031 198.417969 325.890625 198.550781 C 325.75 198.789062 325.53125 198.851562 325.269531 198.832031 C 324.617188 198.773438 323.941406 199.0625 323.300781 198.722656 C 323.128906 198.816406 322.957031 198.816406 322.789062 198.71875 C 322.605469 198.722656 322.433594 198.75 322.289062 198.875 C 322.050781 198.714844 321.796875 198.644531 321.511719 198.757812 C 321.15625 198.5625 320.78125 198.664062 320.410156 198.703125 C 320.351562 198.679688 320.289062 198.660156 320.230469 198.640625 C 319.839844 198.640625 319.453125 198.640625 319.0625 198.640625 C 318.933594 198.617188 318.804688 198.59375 318.679688 198.574219 C 318.46875 198.527344 318.269531 198.558594 318.078125 198.65625 C 317.898438 198.472656 317.710938 198.390625 317.492188 198.605469 C 317.027344 198.382812 316.496094 198.722656 316.035156 198.449219 C 315.78125 198.652344 315.515625 198.695312 315.234375 198.511719 C 314.871094 198.738281 314.496094 198.773438 314.101562 198.609375 C 314.0625 198.523438 314.011719 198.515625 313.949219 198.582031 C 313.808594 198.558594 313.664062 198.535156 313.523438 198.511719 C 313.484375 198.421875 313.4375 198.417969 313.371094 198.484375 C 312.636719 198.488281 312.828125 197.734375 312.492188 197.414062 C 312.523438 197.367188 312.558594 197.324219 312.59375 197.277344 C 312.546875 197.15625 312.503906 197.03125 312.457031 196.910156 C 312.417969 196.878906 312.378906 196.851562 312.339844 196.820312 C 312.296875 196.746094 312.253906 196.671875 312.210938 196.59375 C 312.238281 196.566406 312.265625 196.535156 312.296875 196.511719 C 312.296875 196.3125 312.242188 196.128906 312.113281 195.976562 C 312.195312 195.859375 312.109375 195.769531 312.074219 195.667969 C 312.195312 195.417969 311.921875 195.320312 311.871094 195.140625 C 311.914062 195.089844 311.953125 195.042969 311.992188 194.996094 C 311.933594 194.773438 311.875 194.550781 311.820312 194.328125 C 311.632812 194.078125 311.574219 193.792969 311.570312 193.488281 C 311.21875 192.988281 311.371094 192.335938 311.066406 191.820312 C 311.027344 191.804688 311 191.777344 310.980469 191.742188 C 311.011719 191.707031 311.046875 191.6875 311.09375 191.679688 C 311.175781 191.542969 311.109375 191.449219 311.007812 191.363281 C 310.953125 191.183594 310.894531 191.003906 310.839844 190.828125 C 310.988281 190.59375 310.878906 190.398438 310.75 190.203125 C 310.660156 189.867188 310.703125 189.5 310.527344 189.183594 C 310.539062 189.117188 310.550781 189.050781 310.5625 188.984375 C 310.5 188.914062 310.433594 188.847656 310.371094 188.78125 C 310.359375 188.734375 310.347656 188.6875 310.335938 188.640625 C 310.257812 188.300781 310.367188 187.921875 310.109375 187.628906 C 310.246094 187.292969 310.097656 186.976562 310.046875 186.65625 C 309.988281 186.472656 309.933594 186.289062 309.875 186.105469 C 310.039062 185.875 309.902344 185.6875 309.785156 185.496094 C 309.886719 185.332031 309.882812 185.171875 309.769531 185.011719 C 309.941406 184.71875 309.742188 184.507812 309.601562 184.28125 C 309.585938 183.953125 309.566406 183.625 309.546875 183.296875 C 309.554688 183.066406 309.558594 182.839844 309.566406 182.609375 C 309.378906 181.894531 309.789062 181.257812 309.839844 180.570312 C 309.847656 180.457031 309.851562 180.355469 309.820312 180.25 C 309.714844 180.0625 309.792969 179.929688 309.9375 179.8125 C 309.753906 179.46875 310.125 179.136719 309.964844 178.796875 C 309.898438 178.734375 309.90625 178.683594 309.992188 178.648438 C 310.015625 178.613281 310.042969 178.578125 310.074219 178.546875 C 310.046875 178.117188 310.050781 177.6875 310.199219 177.273438 C 310.285156 176.558594 310.578125 176.300781 311.496094 176.421875 C 312.15625 176.503906 312.78125 176.355469 313.425781 176.367188 C 313.621094 176.4375 313.796875 176.617188 314.027344 176.472656 C 314.046875 176.433594 314.078125 176.40625 314.117188 176.390625 C 314.152344 176.421875 314.171875 176.457031 314.179688 176.5 C 314.300781 176.574219 314.402344 176.507812 314.507812 176.457031 C 314.578125 176.46875 314.648438 176.480469 314.714844 176.492188 C 314.777344 176.488281 314.839844 176.488281 314.902344 176.488281 C 315.296875 176.492188 315.691406 176.496094 316.089844 176.503906 C 316.125 176.59375 316.195312 176.582031 316.269531 176.558594 C 316.335938 176.570312 316.40625 176.585938 316.472656 176.597656 C 316.535156 176.527344 316.589844 176.542969 316.628906 176.621094 C 316.808594 176.710938 316.988281 176.714844 317.167969 176.625 C 317.226562 176.554688 317.273438 176.570312 317.308594 176.644531 C 317.984375 176.835938 318.683594 176.710938 319.371094 176.792969 C 319.609375 176.820312 319.835938 176.878906 320.066406 176.917969 C 320.269531 176.839844 320.457031 176.910156 320.640625 176.984375 C 320.746094 176.980469 320.851562 176.976562 320.953125 176.972656 C 321.015625 176.914062 321.066406 176.921875 321.105469 177 C 321.265625 177.046875 321.425781 177.097656 321.585938 177.144531 C 321.660156 177.105469 321.734375 177.058594 321.808594 177.019531 C 321.867188 177.082031 321.929688 177.144531 321.988281 177.207031 C 322.0625 177.167969 322.132812 177.125 322.203125 177.085938 C 322.332031 177.105469 322.464844 177.128906 322.597656 177.148438 C 322.660156 177.089844 322.722656 177.109375 322.78125 177.164062 C 323.652344 177.289062 324.546875 177.222656 325.398438 177.492188 C 325.496094 177.425781 325.597656 177.386719 325.707031 177.464844 C 325.742188 177.550781 325.808594 177.542969 325.886719 177.519531 C 326.011719 177.535156 326.140625 177.550781 326.269531 177.566406 C 326.335938 177.578125 326.402344 177.589844 326.464844 177.601562 C 326.519531 177.726562 326.605469 177.796875 326.75 177.78125 C 326.796875 177.789062 326.847656 177.792969 326.898438 177.800781 C 327.046875 177.84375 327.195312 177.898438 327.285156 178.039062 L 327.253906 178.097656 C 327.296875 178.214844 327.339844 178.332031 327.386719 178.453125 C 327.289062 178.601562 326.992188 178.597656 327.058594 178.890625 C 327.285156 178.898438 327.5 178.910156 327.71875 178.921875 C 328.113281 179.148438 328.546875 179.089844 328.964844 179.035156 C 329.140625 179.007812 329.1875 179.144531 329.304688 179.175781 C 329.453125 179.28125 329.609375 179.265625 329.765625 179.191406 C 329.785156 179.148438 329.816406 179.117188 329.863281 179.097656 C 329.890625 179.132812 329.910156 179.167969 329.917969 179.210938 C 331.03125 179.324219 332.140625 179.433594 333.253906 179.546875 C 333.292969 179.632812 333.34375 179.640625 333.410156 179.574219 C 333.679688 179.660156 333.953125 179.75 334.246094 179.660156 C 334.726562 179.882812 335.257812 179.808594 335.753906 179.941406 C 335.734375 179.96875 335.703125 179.996094 335.675781 180.019531 C 335.707031 179.996094 335.734375 179.972656 335.753906 179.941406 C 335.820312 179.90625 335.882812 179.875 335.949219 179.839844 C 335.972656 179.882812 336.003906 179.914062 336.03125 179.9375 C 336.003906 179.914062 335.972656 179.882812 335.949219 179.839844 C 335.992188 179.804688 336.035156 179.773438 336.078125 179.738281 C 335.898438 179.648438 335.632812 179.707031 335.542969 179.445312 C 335.574219 179.433594 335.609375 179.425781 335.640625 179.417969 C 335.609375 179.425781 335.574219 179.433594 335.542969 179.445312 C 335.042969 179.222656 334.542969 179 334.042969 178.777344 C 333.855469 178.480469 333.484375 178.433594 333.25 178.199219 C 333.214844 178.109375 333.160156 178.113281 333.09375 178.171875 C 332.496094 177.910156 332.035156 177.480469 331.597656 177.015625 C 331.316406 177.042969 331.355469 176.71875 331.175781 176.632812 C 331.117188 176.5625 331.054688 176.496094 330.996094 176.425781 C 330.847656 176.132812 330.640625 175.867188 330.589844 175.53125 C 330.445312 175.355469 330.417969 175.15625 330.476562 174.941406 C 330.339844 174.746094 330.1875 174.554688 330.195312 174.296875 C 330.203125 174.230469 330.207031 174.164062 330.214844 174.097656 C 330.222656 173.929688 330.226562 173.761719 330.234375 173.59375 C 330.164062 173.527344 330.171875 173.476562 330.261719 173.441406 C 330.722656 172.53125 331.445312 172.296875 332.402344 172.550781 C 332.859375 172.667969 333.339844 172.695312 333.808594 172.761719 C 333.871094 172.828125 333.929688 172.894531 333.988281 172.960938 C 334.125 172.929688 334.261719 172.894531 334.398438 172.863281 C 334.515625 172.941406 334.636719 173.015625 334.753906 173.09375 C 335.972656 173.316406 337.207031 173.464844 338.375 173.898438 C 338.660156 173.925781 338.949219 173.957031 339.238281 173.984375 C 339.441406 173.941406 339.667969 174.046875 339.863281 173.90625 C 339.925781 173.84375 339.980469 173.855469 340.019531 173.933594 C 340.25 174.066406 340.488281 173.949219 340.71875 173.949219 C 340.78125 174.003906 340.84375 174.023438 340.910156 173.953125 C 341.121094 173.90625 341.347656 174.054688 341.550781 173.90625 C 341.609375 173.835938 341.660156 173.855469 341.699219 173.925781 C 341.839844 173.949219 341.976562 173.976562 342.117188 174 C 342.527344 173.75 343.019531 173.890625 343.445312 173.738281 C 343.644531 173.667969 343.828125 173.699219 343.992188 173.824219 C 344.175781 173.914062 344.292969 173.757812 344.441406 173.707031 C 344.507812 173.636719 344.558594 173.648438 344.601562 173.730469 C 346.15625 173.5625 347.707031 173.824219 349.257812 173.84375 C 349.324219 173.777344 349.375 173.785156 349.410156 173.871094 C 349.640625 174.011719 349.878906 173.875 350.113281 173.890625 C 350.226562 174.027344 350.355469 174.058594 350.511719 173.960938 C 350.902344 174.132812 351.375 173.960938 351.734375 174.257812 C 351.992188 174.199219 352.25 174.140625 352.40625 174.441406 C 352.527344 174.464844 352.648438 174.488281 352.769531 174.507812 C 352.964844 174.546875 353.164062 174.582031 353.359375 174.621094 C 353.5 174.570312 353.550781 174.695312 353.632812 174.765625 C 354.113281 174.792969 354.523438 175.066406 354.972656 175.199219 C 355.195312 175.265625 355.355469 175.292969 355.527344 175.132812 C 355.921875 175.277344 356.246094 175 356.605469 174.941406 C 357.167969 174.863281 357.730469 174.785156 358.296875 174.707031 C 358.351562 174.71875 358.402344 174.726562 358.457031 174.738281 C 359.199219 174.613281 359.941406 174.523438 360.691406 174.523438 C 360.757812 174.46875 360.816406 174.472656 360.851562 174.558594 C 360.976562 174.636719 361.085938 174.550781 361.199219 174.523438 C 361.265625 174.457031 361.3125 174.480469 361.347656 174.558594 L 361.382812 174.515625 C 361.421875 174.605469 361.492188 174.605469 361.566406 174.578125 C 362.238281 174.644531 362.910156 174.621094 363.578125 174.546875 C 363.632812 174.476562 363.675781 174.492188 363.714844 174.5625 C 364.34375 174.570312 364.972656 174.578125 365.605469 174.582031 C 365.722656 174.730469 365.84375 174.785156 365.992188 174.621094 C 366.34375 174.78125 366.707031 174.820312 367.085938 174.742188 C 367.152344 174.675781 367.203125 174.6875 367.242188 174.769531 C 367.539062 174.769531 367.835938 174.773438 368.132812 174.773438 C 368.402344 174.714844 368.671875 174.589844 368.949219 174.738281 C 369.527344 174.5625 370.125 174.667969 370.710938 174.628906 C 370.925781 174.617188 371.101562 174.578125 371.28125 174.476562 C 371.34375 174.410156 371.402344 174.433594 371.464844 174.480469 C 372.164062 174.625 372.792969 174.09375 373.492188 174.269531 C 373.558594 174.203125 373.609375 174.222656 373.644531 174.300781 C 374.40625 174.175781 375.117188 174.214844 375.613281 174.925781 C 375.933594 175.128906 375.863281 175.53125 376.054688 175.796875 C 376.121094 175.859375 376.097656 175.921875 376.050781 175.980469 C 376.070312 176.023438 376.097656 176.050781 376.136719 176.070312 C 376.214844 176.289062 376.371094 176.316406 376.566406 176.242188 C 376.613281 176.226562 376.664062 176.214844 376.710938 176.203125 C 376.773438 176.136719 376.824219 176.140625 376.855469 176.234375 C 377.972656 176.128906 379.066406 175.789062 380.203125 175.894531 C 380.671875 175.6875 381.210938 175.824219 381.664062 175.578125 C 381.714844 175.582031 381.765625 175.589844 381.816406 175.597656 C 382.039062 175.621094 382.257812 175.636719 382.40625 175.414062 C 382.1875 175.230469 382.300781 174.988281 382.289062 174.765625 C 382.253906 174.621094 382.214844 174.476562 382.175781 174.332031 C 382.25 174.277344 382.324219 174.214844 382.398438 174.15625 C 382.445312 174.105469 382.5 174.058594 382.546875 174.007812 C 382.519531 173.949219 382.492188 173.886719 382.460938 173.824219 C 382.734375 173.480469 382.566406 172.933594 382.992188 172.65625 C 383 172.609375 383.027344 172.578125 383.070312 172.5625 C 383.214844 172.4375 383.257812 172.59375 383.332031 172.660156 C 383.605469 172.65625 383.875 172.652344 384.148438 172.652344 C 384.265625 172.5 384.386719 172.496094 384.503906 172.652344 C 384.699219 172.5625 384.902344 172.535156 385.113281 172.585938 C 385.328125 172.417969 385.558594 172.367188 385.8125 172.492188 C 385.8125 172.492188 385.835938 172.492188 385.835938 172.492188 C 385.960938 172.484375 386.082031 172.371094 386.214844 172.460938 C 386.363281 172.433594 386.511719 172.40625 386.65625 172.382812 C 386.726562 172.320312 386.777344 172.335938 386.8125 172.417969 L 386.84375 172.378906 C 386.878906 172.46875 386.949219 172.464844 387.027344 172.4375 C 387.050781 172.464844 387.078125 172.492188 387.097656 172.519531 C 387.496094 172.402344 387.898438 172.449219 388.292969 172.53125 C 388.726562 172.335938 389.164062 172.511719 389.601562 172.492188 C 389.664062 172.425781 389.714844 172.4375 389.753906 172.515625 C 390.125 172.484375 390.492188 172.453125 390.863281 172.421875 C 390.980469 172.5625 391.105469 172.621094 391.25 172.453125 C 391.5625 172.390625 391.839844 172.660156 392.15625 172.535156 C 392.226562 172.472656 392.277344 172.488281 392.316406 172.570312 L 392.347656 172.53125 C 392.382812 172.617188 392.449219 172.621094 392.523438 172.601562 C 392.582031 172.644531 392.640625 172.664062 392.699219 172.597656 C 392.941406 172.554688 393.179688 172.511719 393.421875 172.46875 C 393.546875 172.597656 393.675781 172.648438 393.816406 172.488281 L 393.832031 172.535156 C 393.855469 172.496094 393.886719 172.464844 393.925781 172.445312 C 393.960938 172.472656 393.992188 172.503906 394.019531 172.539062 C 394.082031 172.546875 394.140625 172.554688 394.199219 172.566406 C 394.296875 172.546875 394.394531 172.527344 394.496094 172.503906 C 394.699219 172.488281 394.902344 172.472656 395.105469 172.453125 L 395.144531 172.507812 L 395.175781 172.566406 C 395.300781 172.601562 395.410156 172.585938 395.496094 172.480469 L 395.515625 172.527344 C 395.578125 172.457031 395.636719 172.476562 395.695312 172.535156 C 395.824219 172.5625 395.957031 172.585938 396.085938 172.613281 C 396.117188 172.644531 396.144531 172.671875 396.175781 172.695312 C 396.144531 172.671875 396.117188 172.644531 396.085938 172.613281 C 396.316406 172.613281 396.546875 172.609375 396.773438 172.605469 C 397.066406 172.460938 397.332031 172.496094 397.566406 172.730469 C 397.742188 172.90625 397.855469 173.117188 397.921875 173.355469 C 397.964844 173.421875 398.011719 173.492188 398.054688 173.5625 C 398.007812 173.679688 398.066406 173.761719 398.140625 173.839844 C 398.417969 174.710938 398.691406 175.582031 398.960938 176.453125 C 398.90625 176.507812 398.882812 176.570312 398.949219 176.636719 C 398.972656 176.738281 399.0625 176.832031 398.984375 176.949219 C 399.03125 177.03125 399.074219 177.109375 399.117188 177.1875 C 399.28125 177.332031 399.367188 177.503906 399.308594 177.726562 C 399.433594 178.007812 399.558594 178.292969 399.492188 178.613281 C 399.5625 178.839844 399.863281 178.960938 399.769531 179.257812 C 399.832031 179.394531 399.988281 179.503906 399.902344 179.6875 C 399.960938 179.863281 400.015625 180.042969 400.074219 180.21875 C 400.175781 180.339844 400.328125 180.441406 400.242188 180.636719 C 400.277344 180.714844 400.3125 180.796875 400.351562 180.871094 C 400.421875 180.929688 400.398438 180.988281 400.347656 181.042969 C 400.40625 181.242188 400.507812 181.429688 400.449219 181.644531 C 400.53125 181.816406 400.757812 181.9375 400.648438 182.183594 C 400.703125 182.3125 400.894531 182.402344 400.78125 182.589844 C 400.925781 182.730469 400.792969 182.984375 400.988281 183.109375 C 401.0625 183.226562 401.132812 183.34375 401.203125 183.460938 C 401.1875 183.53125 401.167969 183.601562 401.148438 183.671875 C 400.980469 183.601562 400.863281 183.515625 400.785156 183.417969 C 400.753906 183.378906 400.730469 183.335938 400.710938 183.292969 C 400.730469 183.335938 400.753906 183.378906 400.785156 183.417969 C 400.863281 183.515625 400.980469 183.601562 401.148438 183.671875 C 401.21875 183.765625 401.289062 183.859375 401.359375 183.953125 C 401.3125 184.015625 401.261719 184.078125 401.214844 184.140625 C 401.34375 184.292969 401.210938 184.539062 401.410156 184.664062 C 401.453125 184.738281 401.496094 184.816406 401.539062 184.890625 C 401.492188 184.953125 401.472656 185.015625 401.539062 185.078125 C 401.5625 185.226562 401.753906 185.328125 401.664062 185.511719 C 401.71875 185.691406 401.773438 185.871094 401.832031 186.054688 C 401.96875 186.402344 402.109375 186.75 402.25 187.101562 C 402.234375 187.3125 402.1875 187.523438 402.371094 187.691406 C 402.546875 188.058594 402.550781 188.460938 402.628906 188.847656 C 402.546875 188.976562 402.632812 189.054688 402.714844 189.132812 C 402.769531 189.265625 402.824219 189.398438 402.878906 189.53125 C 403.015625 189.808594 403.027344 190.113281 403.050781 190.410156 C 403.265625 190.601562 403.304688 190.84375 403.269531 191.113281 C 403.378906 191.410156 403.484375 191.710938 403.59375 192.011719 C 403.644531 192.101562 403.695312 192.1875 403.746094 192.28125 C 403.851562 192.484375 403.832031 192.699219 403.796875 192.917969 C 403.886719 193.035156 403.996094 193.144531 403.949219 193.316406 C 404.222656 193.640625 404.1875 193.972656 403.984375 194.316406 C 404.285156 194.589844 404.054688 194.925781 404.09375 195.230469 C 404.308594 195.394531 404.132812 195.625 404.191406 195.8125 C 404.128906 195.867188 404.0625 195.925781 403.996094 195.984375 C 404.050781 196.058594 404.105469 196.132812 404.160156 196.207031 C 404.160156 196.207031 404.113281 196.222656 404.113281 196.222656 C 404.179688 196.289062 404.171875 196.347656 404.085938 196.390625 L 404.128906 196.425781 C 404.089844 196.449219 404.050781 196.472656 404.011719 196.496094 C 404.03125 196.53125 404.058594 196.558594 404.09375 196.578125 C 404.078125 197.097656 403.96875 197.53125 403.304688 197.472656 Z M 336.96875 179.117188 C 337.058594 179.324219 337.242188 179.324219 337.421875 179.320312 C 338.027344 179.449219 338.636719 179.578125 339.238281 179.703125 C 339.335938 179.882812 339.46875 179.964844 339.671875 179.871094 C 339.941406 179.820312 340.09375 179.988281 340.246094 180.164062 C 340.324219 180.144531 340.402344 180.128906 340.484375 180.109375 C 340.707031 180.0625 340.824219 180.257812 340.984375 180.339844 C 340.988281 180.339844 341 180.34375 341 180.34375 C 340.953125 180.441406 340.914062 180.554688 340.820312 180.578125 C 340.914062 180.554688 340.953125 180.441406 341 180.34375 C 341.242188 180.046875 341.46875 180.375 341.703125 180.359375 C 341.765625 180.292969 341.8125 180.304688 341.855469 180.382812 C 342.367188 180.664062 342.878906 180.683594 343.382812 180.347656 C 343.441406 180.351562 343.503906 180.351562 343.566406 180.351562 C 344.703125 180.136719 345.609375 179.480469 346.484375 178.773438 C 346.632812 178.667969 346.78125 178.5625 346.933594 178.457031 C 347.082031 178.351562 347.234375 178.246094 347.382812 178.140625 C 347.570312 178.085938 347.757812 178.03125 347.945312 177.980469 C 348.046875 177.886719 348.148438 177.792969 348.253906 177.699219 C 348.355469 177.679688 348.449219 177.578125 348.566406 177.65625 C 349.386719 177.269531 350.195312 176.851562 351.113281 176.738281 C 351.230469 176.664062 351.347656 176.585938 351.460938 176.511719 C 351.839844 176.160156 352.441406 176.421875 352.800781 176.019531 C 353.410156 175.992188 353.328125 175.730469 353.019531 175.386719 C 352.878906 175.421875 352.738281 175.453125 352.597656 175.488281 C 352.503906 175.445312 352.40625 175.402344 352.3125 175.363281 C 352.269531 175.285156 352.21875 175.273438 352.152344 175.335938 C 351.601562 175.269531 351.058594 175.136719 350.515625 175.039062 C 349.566406 174.863281 348.59375 175.019531 347.664062 174.765625 C 347.632812 174.679688 347.582031 174.671875 347.523438 174.738281 C 347.46875 174.75 347.421875 174.761719 347.371094 174.773438 C 347.320312 174.765625 347.269531 174.757812 347.21875 174.75 C 345.988281 174.601562 344.765625 174.925781 343.535156 174.835938 C 343.421875 174.902344 343.316406 174.972656 343.203125 175.042969 C 343.097656 174.890625 342.964844 174.855469 342.800781 174.964844 C 342.78125 174.933594 342.757812 174.910156 342.730469 174.886719 C 342.480469 175.046875 342.230469 175.203125 341.9375 174.980469 C 341.699219 175.019531 341.457031 175.058594 341.21875 175.101562 C 341.15625 175.050781 341.09375 175.03125 341.023438 175.09375 C 340.953125 175.082031 340.882812 175.070312 340.808594 175.058594 C 340.765625 174.984375 340.714844 174.96875 340.652344 175.039062 C 340.519531 175.058594 340.390625 175.089844 340.257812 175.09375 C 339.15625 175.132812 338.101562 174.777344 337.015625 174.671875 C 336.953125 174.738281 336.902344 174.730469 336.867188 174.648438 C 336.824219 174.621094 336.78125 174.59375 336.738281 174.566406 C 336.660156 174.359375 336.542969 174.34375 336.390625 174.496094 C 336.347656 174.496094 336.3125 174.507812 336.285156 174.535156 C 336.121094 174.417969 335.972656 174.253906 335.738281 174.292969 C 334.394531 173.996094 333.050781 173.695312 331.707031 173.398438 C 331.667969 173.324219 331.617188 173.308594 331.558594 173.375 C 331.335938 173.441406 331.316406 173.609375 331.335938 173.804688 C 331.101562 173.972656 330.992188 174.15625 331.273438 174.378906 C 331.28125 174.5 331.292969 174.625 331.300781 174.746094 C 331.589844 175.867188 332.226562 176.703125 333.269531 177.242188 C 334 177.617188 334.792969 177.898438 335.371094 178.53125 C 335.613281 178.609375 335.949219 178.300781 336.117188 178.707031 C 336.457031 178.730469 336.671875 179.007812 336.96875 179.117188 Z M 340.796875 180.585938 C 340.804688 180.582031 340.8125 180.582031 340.816406 180.578125 C 340.8125 180.582031 340.804688 180.582031 340.796875 180.585938 Z M 336.175781 179.660156 Z M 336.167969 179.6875 L 336.167969 179.679688 C 336.167969 179.683594 336.167969 179.6875 336.167969 179.6875 Z M 335.460938 180.144531 C 335.515625 180.121094 335.570312 180.09375 335.621094 180.0625 C 335.570312 180.09375 335.519531 180.121094 335.460938 180.144531 Z M 325.789062 197.453125 C 325.789062 197.40625 325.792969 197.359375 325.792969 197.3125 C 325.792969 197.355469 325.792969 197.40625 325.789062 197.453125 Z M 330.257812 198.292969 C 330.519531 198.089844 330.511719 197.644531 330.816406 197.425781 C 330.789062 197.238281 330.816406 197.074219 331.023438 196.996094 C 331.113281 196.820312 331.199219 196.644531 331.285156 196.464844 C 331.980469 195.113281 332.855469 193.855469 333.332031 192.394531 C 333.421875 192.113281 333.746094 192.050781 333.925781 191.851562 C 333.753906 191.632812 333.835938 191.441406 333.96875 191.234375 C 334.738281 190.039062 335.265625 188.695312 336.152344 187.566406 C 336.136719 187.316406 336.238281 187.140625 336.476562 187.050781 C 336.4375 186.742188 336.433594 186.457031 336.566406 186.148438 C 336.867188 185.4375 336.390625 184.976562 335.917969 184.589844 C 335.492188 184.242188 335.085938 184.519531 334.675781 184.757812 C 333.769531 185.296875 333.070312 186.019531 332.527344 186.914062 C 331.523438 188.570312 330.203125 189.992188 329.078125 191.5625 C 328.945312 191.753906 328.851562 191.941406 328.765625 192.144531 C 328.8125 192.210938 328.808594 192.269531 328.726562 192.308594 C 328.6875 192.679688 328.320312 192.8125 328.144531 193.101562 C 327.78125 193.707031 327.535156 194.394531 327.019531 194.902344 C 326.867188 195.171875 327.09375 195.542969 326.777344 195.765625 C 326.691406 195.804688 326.683594 195.855469 326.75 195.917969 C 326.734375 195.988281 326.722656 196.054688 326.710938 196.121094 C 326.734375 196.9375 327.054688 197.605469 327.691406 198.117188 C 327.785156 198.214844 327.878906 198.3125 327.976562 198.410156 C 328.273438 198.320312 328.507812 198.5 328.746094 198.613281 C 329.34375 198.886719 329.828125 198.632812 330.257812 198.292969 Z M 339.796875 190.585938 C 339.769531 190.511719 339.773438 190.449219 339.851562 190.40625 C 340.058594 190.269531 340.035156 190.007812 340.101562 189.824219 C 340.425781 188.894531 340.964844 188.035156 341.035156 187.019531 C 340.972656 186.957031 340.984375 186.902344 341.0625 186.863281 C 340.863281 185.75 339.941406 185.347656 338.972656 185.953125 C 338.242188 186.410156 337.574219 186.9375 337.078125 187.652344 C 337.109375 187.800781 337 187.84375 336.902344 187.890625 C 336.53125 188.777344 335.964844 189.542969 335.425781 190.328125 C 335.4375 190.375 335.445312 190.425781 335.457031 190.472656 C 335.371094 190.535156 335.28125 190.597656 335.191406 190.660156 C 335.1875 190.847656 335.171875 191.03125 334.957031 191.113281 C 334.851562 191.40625 334.804688 191.734375 334.546875 191.957031 C 333.835938 193.621094 332.957031 195.199219 332.027344 196.75 C 332.238281 197.296875 331.828125 197.648438 331.597656 198.039062 C 331.085938 198.90625 331.769531 200.261719 332.734375 200.46875 C 333.339844 200.597656 333.886719 200.335938 334.457031 200.441406 C 334.785156 200.195312 335.113281 199.949219 335.441406 199.699219 C 335.558594 199.425781 335.804688 199.277344 336.015625 199.089844 C 336.484375 198.371094 337.035156 197.699219 337.324219 196.875 C 337.289062 196.800781 337.296875 196.738281 337.378906 196.703125 C 337.484375 196.613281 337.589844 196.523438 337.695312 196.4375 C 337.660156 196.230469 337.722656 196.046875 337.796875 195.863281 C 338.253906 195.105469 338.523438 194.269531 338.839844 193.453125 C 338.765625 193.390625 338.777344 193.34375 338.859375 193.304688 C 339.335938 192.453125 339.417969 191.46875 339.796875 190.585938 Z M 343.019531 201.789062 L 342.972656 201.738281 L 342.941406 201.679688 C 343.128906 201.554688 343.316406 201.429688 343.5 201.304688 C 344.652344 200.996094 345.382812 200.199219 345.949219 199.207031 C 345.886719 199.152344 345.890625 199.109375 345.972656 199.082031 C 346.097656 198.953125 346.210938 198.828125 346.289062 198.65625 C 346.929688 197.28125 347.636719 195.933594 348.164062 194.507812 C 348.371094 194.371094 348.273438 194.101562 348.410156 193.941406 C 348.390625 193.902344 348.371094 193.863281 348.355469 193.820312 C 348.386719 193.792969 348.421875 193.773438 348.460938 193.765625 C 348.609375 193.085938 348.914062 192.445312 348.917969 191.730469 C 348.847656 191.667969 348.859375 191.617188 348.941406 191.578125 C 349.058594 191.25 349.09375 190.921875 349.035156 190.574219 C 348.886719 189.707031 348.433594 189.328125 347.636719 189.601562 C 346.816406 189.886719 345.984375 190.261719 345.90625 191.335938 C 345.785156 191.445312 345.675781 191.558594 345.839844 191.71875 C 345.664062 192.1875 345.488281 192.660156 345.316406 193.132812 C 345.230469 193.171875 345.230469 193.226562 345.292969 193.289062 L 345.242188 193.308594 C 345.304688 193.371094 345.300781 193.421875 345.21875 193.464844 C 345.042969 193.695312 344.84375 193.917969 344.9375 194.25 C 344.726562 194.328125 344.691406 194.492188 344.71875 194.691406 C 344.683594 194.71875 344.65625 194.753906 344.636719 194.796875 C 344.5625 194.832031 344.550781 194.875 344.613281 194.929688 C 344.296875 195.285156 344.269531 195.761719 344.089844 196.171875 C 344.011719 196.214844 343.996094 196.269531 344.058594 196.339844 C 343.867188 196.945312 343.503906 197.457031 343.183594 197.996094 C 343.101562 198.03125 343.089844 198.097656 343.113281 198.175781 C 342.589844 198.835938 342.0625 199.492188 341.539062 200.152344 C 341.558594 200.230469 341.554688 200.296875 341.46875 200.335938 C 341.394531 200.476562 341.328125 200.617188 341.25 200.75 C 340.746094 201.570312 340.796875 201.703125 341.589844 202.222656 C 341.972656 202.46875 342.226562 202.183594 342.542969 202.136719 C 342.960938 202.378906 342.976562 202.066406 343.019531 201.789062 Z M 348.40625 199.578125 C 348.5 199.394531 347.855469 199.171875 347.613281 198.882812 C 347.589844 198.851562 347.53125 198.851562 347.492188 198.828125 C 347.304688 198.714844 347.140625 198.804688 347.128906 198.96875 C 347.09375 199.484375 346.617188 199.738281 346.378906 200.332031 C 346.730469 200.207031 346.988281 200.214844 347.207031 200.171875 C 347.652344 200.082031 348.207031 199.96875 348.40625 199.578125 Z M 370.496094 180.054688 C 370.617188 180.070312 370.738281 180.085938 370.859375 180.101562 C 371.125 180.015625 371.277344 179.703125 371.601562 179.734375 C 371.835938 179.589844 372.074219 179.445312 372.308594 179.300781 C 372.667969 179.171875 373.042969 179.082031 373.378906 178.910156 C 374.25 178.460938 374.96875 177.878906 374.933594 176.765625 C 375.144531 176.597656 375.015625 176.402344 374.980469 176.210938 C 374.914062 176.09375 374.847656 175.972656 374.78125 175.855469 C 374.921875 175.457031 374.453125 175.53125 374.363281 175.3125 C 374.324219 175.332031 374.292969 175.359375 374.273438 175.394531 C 373.414062 175.324219 372.582031 175.507812 371.742188 175.636719 C 371.691406 175.578125 371.636719 175.550781 371.574219 175.621094 C 371.457031 175.6875 371.34375 175.757812 371.226562 175.824219 C 370.839844 175.710938 370.457031 175.644531 370.105469 175.929688 C 369.855469 175.800781 369.585938 175.859375 369.320312 175.859375 C 368.921875 175.855469 368.519531 176.023438 368.128906 175.824219 C 368.09375 175.742188 368.046875 175.734375 367.988281 175.796875 C 367.503906 175.820312 367.015625 175.785156 366.539062 175.933594 C 366.382812 175.792969 366.21875 175.804688 366.054688 175.917969 C 365.597656 175.621094 365.101562 175.714844 364.613281 175.773438 C 364.550781 175.722656 364.492188 175.707031 364.429688 175.773438 C 363.929688 175.941406 363.429688 175.539062 362.929688 175.78125 C 362.722656 175.71875 362.523438 175.773438 362.324219 175.828125 C 361.972656 175.511719 361.582031 175.53125 361.175781 175.703125 C 360.808594 175.746094 360.421875 175.464844 360.074219 175.773438 C 359.777344 175.484375 359.519531 175.703125 359.253906 175.832031 C 358.671875 175.632812 358.136719 175.90625 357.585938 176 C 357.449219 175.886719 357.308594 175.835938 357.175781 176.007812 C 356.382812 176.15625 355.585938 176.304688 354.792969 176.453125 C 354.75 176.429688 354.710938 176.414062 354.679688 176.410156 C 354.710938 176.414062 354.75 176.429688 354.792969 176.453125 C 354.71875 176.503906 354.644531 176.558594 354.566406 176.609375 C 354.386719 176.753906 354.199219 176.867188 353.96875 176.707031 C 353.816406 176.800781 353.660156 176.890625 353.507812 176.980469 C 353.382812 176.949219 353.300781 177.015625 353.230469 177.101562 C 353.121094 177.121094 353.007812 177.140625 352.898438 177.160156 C 352.921875 177.097656 352.949219 177.035156 352.980469 176.980469 C 352.953125 177.035156 352.925781 177.097656 352.898438 177.160156 C 352.585938 177.445312 352.105469 177.148438 351.804688 177.472656 C 351.722656 177.515625 351.640625 177.558594 351.558594 177.601562 C 351.460938 177.65625 351.367188 177.742188 351.261719 177.765625 C 349.773438 178.050781 348.550781 178.953125 347.191406 179.53125 C 346.972656 179.648438 346.71875 179.722656 346.660156 180.015625 C 346.339844 180.097656 346.164062 180.394531 345.894531 180.546875 C 345.714844 180.488281 345.601562 180.59375 345.492188 180.710938 C 344.695312 181.234375 343.742188 181.253906 342.867188 181.527344 C 342.8125 181.46875 342.753906 181.449219 342.695312 181.515625 C 342.074219 181.429688 341.453125 181.34375 340.832031 181.261719 C 340.664062 181.160156 340.5 181.160156 340.335938 181.269531 C 340.109375 181.210938 339.882812 181.152344 339.660156 181.09375 C 339.65625 181.046875 339.636719 181.007812 339.597656 180.976562 C 339.558594 180.992188 339.523438 181.015625 339.492188 181.039062 C 339.160156 181.042969 338.832031 181.046875 338.5 181.050781 C 338.5 181.050781 338.507812 181.050781 338.507812 181.050781 C 337.9375 180.898438 337.320312 181.0625 336.769531 180.785156 C 336.671875 180.851562 336.570312 180.917969 336.449219 180.832031 C 336.414062 180.75 336.347656 180.75 336.277344 180.777344 C 336.246094 180.75 336.21875 180.722656 336.1875 180.695312 C 335.925781 181.050781 335.566406 180.519531 335.296875 180.796875 C 335.242188 180.734375 335.1875 180.667969 335.132812 180.605469 C 335.050781 180.644531 334.972656 180.683594 334.894531 180.722656 C 334.707031 180.695312 334.519531 180.667969 334.332031 180.640625 C 334.195312 180.625 334.058594 180.609375 333.921875 180.59375 C 333.882812 180.511719 333.832031 180.5 333.769531 180.570312 C 333.726562 180.578125 333.683594 180.59375 333.644531 180.617188 C 333.480469 180.566406 333.316406 180.511719 333.152344 180.460938 C 333.113281 180.378906 333.066406 180.371094 333.003906 180.4375 C 332.898438 180.441406 332.792969 180.445312 332.691406 180.449219 C 331.980469 180.335938 331.265625 180.246094 330.546875 180.277344 C 329.949219 180.039062 329.296875 180.316406 328.703125 180.0625 C 328.640625 180.011719 328.582031 179.992188 328.519531 180.058594 C 327.9375 179.941406 327.347656 179.921875 326.753906 179.921875 C 326.636719 179.84375 326.507812 179.816406 326.371094 179.855469 C 326.339844 179.824219 326.304688 179.796875 326.273438 179.769531 C 325.425781 180.355469 325.273438 181.316406 325.042969 182.199219 C 324.769531 183.246094 324.789062 184.359375 324.339844 185.367188 C 324.253906 185.40625 324.246094 185.453125 324.320312 185.511719 C 324.324219 185.554688 324.335938 185.597656 324.355469 185.636719 C 324.296875 185.699219 324.289062 185.761719 324.355469 185.824219 C 324.296875 186.15625 324.242188 186.488281 324.183594 186.820312 C 324.101562 186.859375 324.089844 186.910156 324.164062 186.96875 C 324.113281 187.398438 324.066406 187.824219 324.015625 188.253906 C 324.050781 188.324219 324.066406 188.390625 323.976562 188.433594 C 324.023438 189.160156 323.769531 189.886719 323.960938 190.609375 C 324.183594 191.441406 324.121094 192.308594 324.234375 193.15625 C 324.234375 193.222656 324.234375 193.289062 324.230469 193.355469 C 324.238281 193.519531 324.242188 193.679688 324.246094 193.84375 C 324.207031 193.851562 324.171875 193.871094 324.140625 193.898438 L 324.171875 193.957031 L 324.226562 193.996094 C 324.363281 194.285156 324.636719 194.5625 324.316406 194.894531 C 324.230469 195.195312 324.636719 195.4375 324.417969 195.753906 C 324.285156 195.949219 324.410156 195.964844 324.5625 195.964844 C 324.617188 196.035156 324.671875 196.101562 324.726562 196.171875 L 324.78125 196.183594 C 324.882812 196.199219 324.988281 196.214844 325.089844 196.230469 C 325.1875 196.191406 325.28125 196.101562 325.398438 196.1875 C 325.46875 196.148438 325.539062 196.109375 325.609375 196.070312 C 325.769531 196.246094 325.945312 196.296875 326.152344 196.148438 C 326.136719 196 326.121094 195.851562 326.105469 195.699219 L 326.050781 195.660156 L 326.019531 195.605469 C 326.050781 195.578125 326.085938 195.558594 326.128906 195.554688 C 326.164062 195.457031 326.207031 195.359375 326.242188 195.261719 C 326.144531 195.105469 326.125 194.96875 326.34375 194.898438 C 326.40625 194.835938 326.46875 194.777344 326.53125 194.71875 C 326.484375 194.574219 326.300781 194.449219 326.382812 194.289062 C 326.804688 193.484375 327.148438 192.632812 327.839844 192 C 327.910156 191.941406 327.984375 191.886719 328.058594 191.828125 C 328.183594 191.203125 328.671875 190.785156 328.96875 190.253906 C 329.070312 190.203125 329.144531 190.132812 329.121094 190.003906 C 329.570312 189.714844 329.679688 189.144531 330.09375 188.828125 C 330.082031 188.785156 330.070312 188.742188 330.066406 188.699219 C 330.109375 188.605469 330.15625 188.507812 330.199219 188.414062 C 330.285156 188.375 330.371094 188.332031 330.453125 188.292969 C 330.785156 188.058594 330.875 187.660156 331.101562 187.351562 C 331.292969 187.210938 331.484375 187.066406 331.675781 186.921875 C 331.6875 186.855469 331.699219 186.785156 331.710938 186.71875 C 331.78125 186.640625 331.898438 186.585938 331.855469 186.445312 C 332.484375 185.496094 333.34375 184.765625 334.160156 183.992188 C 334.382812 184.023438 334.515625 183.867188 334.660156 183.738281 C 334.707031 183.726562 334.757812 183.71875 334.808594 183.703125 C 334.824219 183.664062 334.855469 183.636719 334.894531 183.613281 C 334.933594 183.640625 334.957031 183.679688 334.96875 183.722656 C 335.085938 183.796875 335.195312 183.734375 335.304688 183.691406 C 335.367188 183.6875 335.429688 183.6875 335.492188 183.683594 C 335.863281 183.464844 336.097656 183.765625 336.371094 183.914062 C 336.429688 184 336.476562 184.09375 336.601562 184.085938 C 336.800781 184.28125 337.003906 184.476562 337.207031 184.671875 C 337.496094 184.972656 337.351562 185.417969 337.574219 185.742188 C 337.628906 185.804688 337.6875 185.871094 337.746094 185.9375 C 337.671875 185.964844 337.621094 185.972656 337.589844 185.964844 C 337.578125 185.960938 337.566406 185.953125 337.558594 185.945312 C 337.566406 185.953125 337.578125 185.960938 337.589844 185.964844 C 337.621094 185.972656 337.671875 185.964844 337.746094 185.9375 C 337.902344 185.769531 338.058594 185.601562 338.214844 185.433594 C 338.265625 185.421875 338.3125 185.414062 338.359375 185.402344 C 338.554688 185.265625 338.695312 185.03125 338.984375 185.082031 C 339.855469 184.71875 340.636719 185.011719 341.402344 185.417969 C 341.929688 185.90625 341.910156 186.566406 341.964844 187.207031 C 342.007812 187.230469 342.035156 187.261719 342.050781 187.308594 C 342.015625 187.335938 341.976562 187.355469 341.929688 187.367188 L 341.96875 187.398438 C 341.542969 187.578125 342.105469 187.949219 341.824219 188.15625 C 341.84375 188.210938 341.867188 188.265625 341.886719 188.320312 C 341.792969 188.3125 341.753906 188.285156 341.765625 188.238281 C 341.753906 188.285156 341.792969 188.3125 341.886719 188.320312 C 342.171875 188.347656 342.15625 188.03125 342.335938 187.929688 C 342.890625 187.5625 343.550781 187.445312 344.148438 187.1875 C 344.269531 187.421875 344.535156 187.347656 344.714844 187.453125 C 344.777344 187.667969 344.980469 187.578125 345.113281 187.640625 C 345.210938 187.695312 345.308594 187.753906 345.40625 187.808594 C 345.617188 188.105469 345.828125 188.398438 346.039062 188.695312 C 346.046875 188.953125 345.964844 189.226562 346.15625 189.460938 C 346.292969 189.5625 346.332031 189.457031 346.375 189.359375 C 346.453125 189.308594 346.53125 189.261719 346.609375 189.210938 C 347.300781 189.023438 347.949219 188.585938 348.71875 188.828125 C 348.769531 188.929688 348.816406 189.042969 348.96875 189.011719 C 349.160156 189.207031 349.347656 189.398438 349.539062 189.589844 C 349.480469 189.867188 349.75 190.039062 349.765625 190.289062 C 349.9375 190.65625 349.820312 191.039062 349.824219 191.414062 C 349.789062 191.503906 349.757812 191.589844 349.71875 191.675781 C 349.761719 191.753906 349.804688 191.832031 349.84375 191.910156 C 349.804688 192.003906 349.765625 192.09375 349.726562 192.1875 C 349.640625 192.632812 349.554688 193.070312 349.46875 193.515625 C 349.226562 193.753906 349.386719 194.113281 349.214844 194.375 C 349.128906 194.449219 349.03125 194.515625 349.070312 194.65625 C 349.125 194.71875 349.136719 194.773438 349.046875 194.816406 C 348.898438 194.988281 348.949219 195.195312 348.929688 195.390625 C 348.808594 195.53125 348.597656 195.636719 348.742188 195.878906 C 348.707031 195.894531 348.683594 195.925781 348.675781 195.964844 C 348.574219 196.015625 348.46875 196.0625 348.492188 196.207031 C 348.390625 196.351562 348.289062 196.496094 348.1875 196.640625 C 348.203125 196.722656 348.199219 196.792969 348.105469 196.824219 C 348.039062 196.910156 347.921875 196.96875 347.957031 197.105469 C 347.96875 197.472656 347.617188 197.941406 348.238281 198.144531 C 348.367188 198.210938 348.492188 198.273438 348.621094 198.335938 C 348.648438 198.59375 348.871094 198.503906 349.011719 198.5625 C 349.292969 198.851562 349.652344 199.027344 349.996094 199.222656 C 350.070312 199.460938 350.292969 199.4375 350.46875 199.5 C 350.550781 199.589844 350.636719 199.679688 350.71875 199.769531 C 350.898438 199.835938 351.117188 199.832031 351.195312 200.0625 C 351.789062 200.410156 352.347656 200.828125 353.054688 200.941406 C 353.191406 201.226562 353.460938 201.164062 353.695312 201.183594 C 353.765625 201.257812 353.832031 201.339844 353.953125 201.320312 C 354.089844 201.5 354.230469 201.667969 354.496094 201.566406 L 354.511719 201.617188 C 354.578125 201.5625 354.632812 201.5625 354.671875 201.648438 C 354.773438 201.6875 354.878906 201.726562 354.984375 201.769531 C 355.019531 201.859375 355.089844 201.859375 355.167969 201.828125 C 355.511719 201.894531 355.8125 202.144531 356.191406 202.097656 C 356.417969 202.375 356.738281 202.320312 357.039062 202.347656 C 357.144531 202.507812 357.277344 202.535156 357.433594 202.417969 C 357.496094 202.421875 357.554688 202.429688 357.617188 202.4375 C 358.070312 202.613281 358.53125 202.191406 358.984375 202.453125 C 359.171875 202.402344 359.289062 202.175781 359.519531 202.246094 C 359.683594 202.152344 359.847656 202.058594 359.914062 201.863281 C 360.097656 201.800781 360.316406 201.84375 360.453125 201.660156 C 360.507812 201.578125 360.566406 201.589844 360.632812 201.644531 C 360.808594 201.597656 360.992188 201.554688 360.894531 201.296875 C 360.296875 201.320312 359.765625 200.949219 359.164062 200.996094 C 358.9375 200.671875 358.582031 200.582031 358.234375 200.476562 C 358.203125 200.394531 358.140625 200.390625 358.070312 200.410156 C 357.917969 200.191406 357.761719 199.972656 357.605469 199.753906 C 357.976562 199.421875 358.339844 199.191406 358.835938 199.597656 C 358.976562 199.714844 359.207031 199.863281 359.449219 199.800781 C 359.597656 200.097656 359.859375 200.035156 360.109375 200.003906 C 360.183594 200.070312 360.257812 200.132812 360.332031 200.199219 C 360.332031 200.242188 360.328125 200.285156 360.328125 200.328125 C 360.328125 200.371094 360.332031 200.414062 360.335938 200.453125 C 360.332031 200.414062 360.328125 200.375 360.328125 200.328125 C 360.328125 200.289062 360.328125 200.246094 360.332031 200.199219 C 360.429688 200.195312 360.527344 200.191406 360.625 200.1875 C 360.796875 200.246094 360.964844 200.347656 361.15625 200.277344 C 361.222656 200.285156 361.289062 200.289062 361.351562 200.296875 C 361.523438 200.40625 361.707031 200.46875 361.910156 200.386719 C 362.390625 200.433594 362.875 200.550781 363.339844 200.304688 C 363.621094 200.546875 363.753906 200.265625 363.929688 200.140625 C 364.164062 200.066406 364.402344 199.992188 364.640625 199.921875 C 364.605469 199.800781 364.574219 199.683594 364.539062 199.566406 C 364.121094 199.351562 363.699219 199.136719 363.28125 198.925781 C 363.15625 198.777344 362.996094 198.722656 362.808594 198.757812 C 362.652344 198.25 361.949219 198.46875 361.773438 197.984375 C 361.683594 197.765625 361.210938 197.648438 361.589844 197.304688 C 361.824219 196.964844 362.097656 197.152344 362.367188 197.234375 C 362.484375 197.40625 362.652344 197.425781 362.835938 197.410156 C 362.910156 197.492188 362.972656 197.582031 363.105469 197.550781 C 363.496094 197.980469 364.082031 198.066406 364.53125 198.398438 C 364.652344 198.480469 364.773438 198.558594 364.898438 198.640625 C 364.898438 198.664062 364.902344 198.683594 364.90625 198.703125 C 364.90625 198.683594 364.902344 198.664062 364.898438 198.640625 C 365.097656 198.582031 365.234375 198.683594 365.359375 198.824219 C 365.523438 198.824219 365.691406 198.820312 365.859375 198.820312 C 366.269531 198.964844 366.6875 198.996094 367.117188 198.925781 C 367.300781 199.050781 367.40625 198.871094 367.539062 198.816406 C 367.652344 198.886719 367.820312 198.863281 367.878906 199.023438 C 368.804688 198.730469 369.511719 198.144531 370.097656 197.386719 C 370.246094 197.320312 370.390625 197.230469 370.304688 197.042969 C 370.234375 196.894531 370.117188 196.992188 370.023438 197.039062 C 369.929688 196.9375 369.839844 196.835938 369.75 196.734375 C 369.746094 196.691406 369.726562 196.652344 369.699219 196.621094 C 369.65625 196.636719 369.617188 196.652344 369.574219 196.667969 C 369.351562 196.570312 369.054688 196.582031 368.972656 196.273438 C 368.933594 196.246094 368.898438 196.214844 368.859375 196.191406 C 368.800781 196.175781 368.746094 196.164062 368.691406 196.152344 C 368.707031 196.136719 368.726562 196.125 368.742188 196.117188 C 368.726562 196.125 368.707031 196.136719 368.691406 196.152344 L 368.675781 196.109375 C 368.613281 196.167969 368.554688 196.183594 368.492188 196.105469 C 368.003906 196.019531 367.816406 195.59375 367.550781 195.257812 C 367.273438 195.351562 367.171875 194.972656 366.914062 195.019531 C 366.753906 194.914062 366.734375 194.628906 366.46875 194.65625 C 366.398438 194.585938 366.355469 194.46875 366.21875 194.496094 C 366.058594 194.351562 365.890625 194.234375 365.667969 194.21875 C 365.605469 194.152344 365.542969 194.085938 365.480469 194.019531 C 365.433594 193.949219 365.390625 193.875 365.34375 193.800781 C 365.179688 193.792969 365.015625 193.785156 364.851562 193.777344 C 364.410156 193.261719 364.546875 192.976562 365.328125 192.777344 C 365.40625 193 365.605469 192.984375 365.785156 193 C 365.800781 193.03125 365.816406 193.066406 365.820312 193.105469 C 366.171875 193.25 366.484375 193.484375 366.875 193.539062 C 366.917969 193.65625 367 193.714844 367.128906 193.699219 C 367.261719 193.867188 367.390625 194.039062 367.523438 194.207031 C 367.867188 194.214844 368.082031 194.433594 368.316406 194.652344 C 368.855469 195.152344 369.480469 195.523438 370.148438 195.816406 C 370.210938 195.753906 370.257812 195.753906 370.289062 195.84375 C 370.382812 195.921875 370.464844 196.035156 370.617188 196 C 370.671875 195.9375 370.71875 195.945312 370.75 196.023438 C 370.855469 196.070312 370.957031 196.121094 371.0625 196.167969 C 371.125 196.113281 371.179688 196.113281 371.21875 196.199219 C 371.257812 196.222656 371.289062 196.25 371.320312 196.285156 C 371.394531 196.257812 371.457031 196.257812 371.5 196.339844 C 372.808594 196.429688 373.882812 195.785156 374.984375 195.226562 C 375.160156 195.132812 375.253906 194.925781 375.277344 194.714844 C 375.703125 194.136719 375.703125 194.136719 375.378906 193.945312 C 375.082031 193.757812 374.785156 193.574219 374.492188 193.386719 C 374.4375 193.277344 374.378906 193.183594 374.230469 193.230469 C 373.84375 192.941406 373.457031 192.65625 373.070312 192.367188 C 373 192.15625 372.832031 192.128906 372.644531 192.152344 C 372.464844 191.890625 372.183594 191.789062 371.914062 191.667969 C 371.871094 191.585938 371.808594 191.585938 371.734375 191.613281 C 371.292969 191.253906 370.851562 190.898438 370.410156 190.539062 C 370.222656 190.34375 370.035156 190.140625 369.847656 189.945312 C 369.808594 189.964844 369.773438 189.992188 369.734375 190.015625 C 369.65625 189.902344 369.578125 189.789062 369.5 189.675781 C 369.171875 189.917969 369.125 189.382812 368.859375 189.445312 C 368.800781 189.375 368.742188 189.304688 368.683594 189.234375 C 368.585938 188.988281 368.339844 189.011719 368.144531 188.941406 C 367.863281 188.714844 367.675781 188.355469 367.253906 188.347656 C 367.105469 188.003906 366.675781 188.03125 366.46875 187.765625 C 366.421875 187.660156 366.367188 187.5625 366.222656 187.59375 C 365.660156 187.082031 365.113281 186.464844 364.519531 186.097656 C 363.835938 185.675781 363.5 184.996094 362.882812 184.574219 C 362.429688 184.347656 362.265625 183.886719 362.019531 183.496094 C 361.707031 183.082031 361.125 182.808594 361.316406 182.132812 C 361.402344 181.335938 362.070312 181.183594 362.652344 181.023438 C 363.65625 180.746094 364.691406 180.875 365.714844 180.925781 C 365.734375 180.890625 365.761719 180.863281 365.792969 180.84375 C 365.828125 180.871094 365.851562 180.90625 365.867188 180.949219 C 365.984375 181.003906 366.089844 180.972656 366.195312 180.910156 C 366.492188 180.863281 366.792969 180.8125 367.09375 180.765625 C 367.125 180.796875 367.160156 180.824219 367.191406 180.851562 C 367.25 180.863281 367.3125 180.875 367.371094 180.886719 C 367.441406 180.832031 367.515625 180.777344 367.589844 180.722656 C 367.9375 180.652344 368.320312 180.769531 368.648438 180.558594 C 368.808594 180.503906 368.964844 180.425781 369.140625 180.496094 C 369.183594 180.566406 369.234375 180.59375 369.304688 180.53125 C 369.476562 180.46875 369.640625 180.277344 369.839844 180.484375 C 369.886719 180.433594 369.933594 180.386719 369.980469 180.335938 C 370.019531 180.160156 370.117188 180.105469 370.285156 180.191406 L 370.308594 180.253906 L 370.347656 180.308594 C 370.4375 180.253906 370.535156 180.191406 370.496094 180.054688 Z M 368.757812 196.117188 C 368.773438 196.117188 368.789062 196.117188 368.800781 196.125 C 368.789062 196.117188 368.777344 196.113281 368.757812 196.117188 Z M 364.914062 198.757812 C 364.921875 198.789062 364.933594 198.816406 364.945312 198.835938 C 364.933594 198.816406 364.921875 198.789062 364.914062 198.757812 Z M 382.519531 178.128906 Z M 382.714844 178.183594 C 382.832031 178.082031 382.84375 177.957031 382.78125 177.828125 C 382.84375 177.957031 382.832031 178.082031 382.714844 178.183594 C 382.675781 178.203125 382.640625 178.207031 382.613281 178.199219 C 382.640625 178.207031 382.675781 178.203125 382.714844 178.183594 Z M 396.34375 172.777344 C 396.375 172.78125 396.402344 172.78125 396.433594 172.777344 C 396.460938 172.773438 396.488281 172.765625 396.515625 172.757812 C 396.488281 172.765625 396.460938 172.773438 396.433594 172.777344 C 396.402344 172.78125 396.375 172.78125 396.34375 172.777344 Z M 400.71875 182.769531 C 400.699219 182.824219 400.6875 182.878906 400.679688 182.933594 C 400.6875 182.878906 400.699219 182.824219 400.71875 182.769531 Z M 382.285156 174.085938 C 382.214844 174.15625 382.101562 174.207031 382.167969 174.339844 C 382.242188 174.28125 382.316406 174.222656 382.390625 174.164062 C 382.359375 174.132812 382.324219 174.109375 382.285156 174.085938 Z M 381.65625 175.582031 C 381.707031 175.585938 381.757812 175.59375 381.808594 175.601562 C 381.765625 175.527344 381.71875 175.507812 381.65625 175.582031 Z M 314.710938 176.5 C 314.773438 176.496094 314.835938 176.496094 314.898438 176.496094 C 314.835938 176.445312 314.773438 176.433594 314.710938 176.5 Z M 358.289062 174.714844 C 358.34375 174.722656 358.398438 174.734375 358.449219 174.746094 C 358.410156 174.667969 358.355469 174.652344 358.289062 174.714844 Z M 326.832031 177.703125 C 326.792969 177.722656 326.765625 177.75 326.746094 177.789062 C 326.792969 177.792969 326.84375 177.800781 326.890625 177.808594 C 326.878906 177.769531 326.859375 177.734375 326.832031 177.703125 Z M 324.230469 193.15625 C 324.230469 193.222656 324.230469 193.289062 324.226562 193.359375 C 324.277344 193.289062 324.300781 193.226562 324.230469 193.15625 Z M 335.296875 183.699219 C 335.359375 183.695312 335.421875 183.691406 335.488281 183.691406 C 335.457031 183.660156 335.425781 183.628906 335.394531 183.605469 C 335.359375 183.636719 335.328125 183.664062 335.296875 183.699219 Z M 343.382812 180.347656 C 343.445312 180.351562 343.503906 180.351562 343.566406 180.351562 C 343.507812 180.300781 343.445312 180.28125 343.382812 180.347656 Z M 358.066406 200.421875 C 358.066406 200.421875 358.0625 200.417969 358.0625 200.417969 C 358.058594 200.417969 358.054688 200.417969 358.050781 200.421875 Z M 347.371094 174.777344 C 347.320312 174.769531 347.269531 174.757812 347.222656 174.75 C 347.257812 174.828125 347.308594 174.84375 347.371094 174.777344 Z M 380.707031 193.445312 C 380.695312 193.453125 380.691406 193.484375 380.683594 193.5 C 380.703125 193.507812 380.722656 193.515625 380.742188 193.523438 C 380.75 193.503906 380.757812 193.484375 380.761719 193.464844 C 380.746094 193.457031 380.71875 193.441406 380.707031 193.445312 Z M 380.707031 193.445312 " fill-opacity="1" fill-rule="nonzero"/></g></g></g></svg>